<svg xmlns="http://www.w3.org/2000/svg" width="1774" height="887" viewBox="0 0 1774 887" version="1.1">
	<path d="M 904.227 243.038 C 902.428 243.433, 899.862 244.936, 898.525 246.378 C 897.189 247.820, 895.687 249, 895.187 249 C 894.687 249, 892.849 251.588, 891.102 254.750 C 889.354 257.913, 886.557 262.975, 884.884 266 C 883.212 269.025, 881.317 271.955, 880.672 272.511 C 880.027 273.067, 878.286 275.992, 876.802 279.011 C 874.235 284.235, 874.006 285.974, 872.073 315 C 870.955 331.775, 869.738 355.756, 869.367 368.291 L 868.693 391.082 866.097 392.917 C 864.668 393.926, 861.925 395.073, 860 395.467 C 858.075 395.860, 852.900 397.222, 848.500 398.494 C 844.100 399.765, 837.575 401.577, 834 402.521 C 830.425 403.465, 822.100 405.924, 815.500 407.987 C 808.900 410.049, 800.800 412.529, 797.500 413.497 C 794.200 414.465, 790.938 415.473, 790.250 415.736 C 789.452 416.041, 789 415.293, 789 413.666 C 789 412.265, 788.485 410.800, 787.856 410.411 C 787.019 409.894, 786.927 405.376, 787.513 393.602 C 787.954 384.746, 788.465 373.225, 788.647 368 C 789.291 349.594, 790.934 323.108, 791.605 320.320 C 791.978 318.769, 793.132 315.807, 794.168 313.739 C 795.204 311.670, 796.557 306.406, 797.175 302.040 C 798.159 295.077, 798.092 293.789, 796.625 291.551 C 795.706 290.148, 794.005 289, 792.845 289 C 791.685 289, 789.238 288.074, 787.406 286.942 C 783.787 284.706, 777.705 277.628, 778.618 276.715 C 779.994 275.340, 777.613 272.027, 774.513 271.004 C 771.770 270.099, 770.538 270.188, 768.061 271.468 C 766.378 272.339, 765 273.703, 765 274.500 C 765 275.297, 763.704 276.619, 762.121 277.437 C 760.537 278.256, 756.649 281.296, 753.481 284.191 C 749.210 288.095, 747.903 288.880, 748.428 287.228 C 749.533 283.746, 746.697 284.442, 743.104 288.535 C 741.397 290.479, 739.951 293.066, 739.890 294.285 C 739.592 300.321, 739.108 302.827, 737.535 306.500 C 732.862 317.407, 732.100 322.911, 734.477 328.599 C 735.639 331.381, 736.438 332.066, 738.227 331.817 C 740.464 331.505, 740.510 331.708, 741.134 344.500 C 741.482 351.650, 741.932 374.921, 742.134 396.214 C 742.490 433.866, 742.445 434.982, 740.500 436.866 C 739.400 437.931, 729.950 443.136, 719.500 448.432 C 709.050 453.728, 698.076 459.735, 695.113 461.780 C 689.906 465.375, 674.180 478.825, 667 485.824 C 665.075 487.701, 661.024 490.870, 657.998 492.868 C 648.329 499.251, 645.180 502.045, 644.071 505.226 C 643.204 507.714, 643.304 508.815, 644.575 510.755 C 645.870 512.731, 646.652 513.039, 648.831 512.430 C 652.782 511.326, 656.524 511.361, 656.324 512.500 C 656.227 513.050, 655.857 514.248, 655.501 515.163 C 655.063 516.286, 655.444 516.960, 656.677 517.243 C 658.198 517.591, 658.045 517.881, 655.750 518.991 C 652.743 520.445, 652.086 523.435, 654.563 524.386 C 655.423 524.716, 657.397 524.329, 658.949 523.526 C 660.893 522.521, 663.334 522.252, 666.793 522.662 C 671.362 523.203, 672.343 522.925, 677.658 519.579 C 680.871 517.556, 685.447 514.348, 687.828 512.450 C 690.399 510.400, 693.273 509, 694.908 509 C 696.787 509, 701.919 505.957, 711.080 499.411 C 724.121 490.093, 741.576 480.242, 742.827 481.494 C 744.523 483.190, 748.787 525.572, 749.015 543 C 749.091 548.775, 748.832 555.750, 748.441 558.500 C 747.336 566.268, 747.851 581.274, 749.371 585.596 C 750.670 589.287, 750.948 589.483, 754.465 589.195 L 758.185 588.890 757.906 595.695 C 757.753 599.438, 757.960 603.490, 758.365 604.700 C 759.269 607.396, 765.489 611.410, 767.232 610.422 C 770.196 608.741, 773 605.519, 773 603.792 C 773 601.449, 777.345 592.789, 779.360 591.116 C 780.634 590.059, 781.129 590.348, 782.463 592.929 C 784.340 596.558, 784.439 596.573, 789.725 594.019 C 793.990 591.958, 798 587.748, 798 585.330 C 798 584.560, 798.732 582.812, 799.628 581.445 C 800.736 579.754, 801.070 577.820, 800.675 575.386 C 800.168 572.263, 800.517 571.412, 803.428 568.655 C 807.194 565.091, 808.413 560.759, 808.256 551.500 C 808.008 536.832, 805.998 531.402, 802.217 535.183 C 799.797 537.603, 799.853 537.857, 795.595 505.500 C 794.219 495.050, 792.677 485.117, 792.167 483.427 C 791.658 481.737, 790.919 475.852, 790.525 470.349 L 789.809 460.344 796.154 457.339 C 799.644 455.686, 804.975 453.546, 808 452.584 C 811.025 451.622, 814.850 450.371, 816.500 449.805 C 818.150 449.238, 821.649 448.173, 824.275 447.437 C 826.901 446.702, 830.726 445.217, 832.775 444.137 C 834.824 443.057, 839.326 441.620, 842.779 440.944 C 846.233 440.267, 849.297 439.329, 849.588 438.857 C 849.880 438.386, 849.615 438, 849 438 C 847.113 438, 848.831 436.269, 851.235 435.748 C 852.481 435.478, 854.248 434.941, 855.163 434.555 C 856.228 434.105, 856.946 434.373, 857.163 435.299 C 857.451 436.534, 858.227 436.558, 862.498 435.464 C 868.310 433.975, 868.919 434.441, 869.068 440.500 C 869.122 442.700, 869.316 445.625, 869.499 447 C 869.682 448.375, 870.320 458.275, 870.917 469 C 871.514 479.725, 872.430 490.075, 872.953 492 C 873.475 493.925, 874.651 501.967, 875.564 509.871 C 876.854 521.025, 876.955 524.410, 876.016 524.990 C 875.102 525.555, 875.824 530.836, 878.973 546.606 C 883.065 567.095, 884.772 573.204, 883.750 563.701 C 883.061 557.286, 884.153 558.660, 885.676 566.123 C 886.349 569.426, 887.814 575.137, 888.931 578.814 C 891.854 588.439, 900.003 617.890, 899.985 618.762 C 899.947 620.599, 897.860 615.969, 896.374 610.750 C 895.473 607.587, 894.412 605, 894.015 605 C 891.661 605, 904.357 641.836, 910.903 654 C 913.041 657.973, 916 659.249, 916 656.198 C 916 654.812, 916.911 654.068, 919.160 653.618 C 920.898 653.270, 922.411 653.102, 922.523 653.243 C 922.635 653.384, 923.386 655.525, 924.191 658 C 925.184 661.048, 926.277 662.582, 927.578 662.755 C 930.681 663.168, 934.307 660.725, 934.639 658 C 936.122 645.803, 936.965 641.921, 938.608 639.735 L 940.500 637.217 942.061 641.182 C 942.919 643.363, 944.044 645.120, 944.561 645.085 C 946.215 644.975, 946.165 633.839, 944.476 626.248 C 943.431 621.549, 943.180 618.465, 943.782 617.698 C 944.727 616.495, 944.569 615.552, 939.964 595 C 936.691 580.394, 934.471 569.909, 931.071 553 C 927.858 537.024, 926.930 532.721, 925.036 525 C 923.484 518.674, 923.089 516.510, 921.936 508 C 919.808 492.287, 919.010 484.252, 918.858 477 C 918.771 472.875, 918.513 470.738, 918.284 472.250 C 917.225 479.236, 916.195 473.273, 915.001 453.250 C 913.243 423.756, 913.227 421.445, 914.778 421.759 C 915.481 421.902, 916.316 421.339, 916.635 420.509 C 916.953 419.679, 917.728 418.990, 918.357 418.978 C 918.986 418.966, 920.625 418.076, 922 417 C 923.375 415.924, 925.204 415.034, 926.065 415.022 C 926.925 415.010, 928.387 413.411, 929.313 411.469 C 930.239 409.527, 931.673 407.679, 932.499 407.362 C 933.324 407.045, 934 405.934, 934 404.893 C 934 403.473, 933.279 403, 931.115 403 C 929.177 403, 927.716 402.216, 926.664 400.610 C 925.231 398.424, 925.243 398.101, 926.799 396.811 C 927.735 396.035, 930.188 394.533, 932.250 393.473 C 934.405 392.365, 936 390.806, 936 389.808 C 936 387.639, 932.716 385.788, 930.428 386.666 C 929.328 387.088, 928.206 386.637, 927.307 385.412 C 926.271 384.002, 924.675 383.500, 921.224 383.500 L 916.546 383.500 916.796 374.500 C 917.144 361.986, 919.698 326.287, 921.445 309.500 C 923.689 287.951, 924.769 280.533, 927.627 267.061 L 930.265 254.623 927.382 252.316 C 925.797 251.048, 923.813 250.008, 922.973 250.005 C 922.133 250.002, 919.968 248.650, 918.161 247 C 916.355 245.350, 913.975 244, 912.873 244 C 911.770 244, 910.111 243.622, 909.184 243.160 C 908.258 242.697, 906.027 242.643, 904.227 243.038 M 293.107 245.673 C 290.437 246.802, 287 250.372, 287 252.016 C 287 254.279, 277.090 273.705, 273.603 278.276 C 272.049 280.314, 270.344 281.713, 269.815 281.385 C 269.285 281.058, 267.867 281.716, 266.662 282.848 C 265.458 283.979, 262.679 285.645, 260.486 286.551 C 258.294 287.456, 255.150 289.180, 253.500 290.382 C 251.850 291.584, 249.253 293.110, 247.728 293.772 C 246.203 294.435, 240.578 297.833, 235.228 301.324 C 217.535 312.867, 213.558 315.282, 207.500 318.154 C 204.200 319.718, 200.428 320.999, 199.118 320.999 C 196.649 321, 190 324.589, 190 325.921 C 190 326.338, 188.946 327.159, 187.658 327.746 C 185.055 328.932, 181.550 335.384, 182.361 337.498 C 182.647 338.245, 184.146 339.001, 185.691 339.178 C 188.275 339.474, 188.486 339.815, 188.322 343.431 C 188.224 345.593, 187.594 348.390, 186.921 349.647 C 185.941 351.480, 185.965 352.252, 187.043 353.552 C 188.723 355.576, 192.879 354.888, 196.889 351.924 C 199.249 350.179, 200.140 350.004, 201.892 350.942 C 204.485 352.330, 210.177 350.062, 219.766 343.822 C 224.828 340.528, 225.811 339.477, 224.878 338.353 C 223.231 336.368, 225.906 333.725, 233.932 329.406 C 239.467 326.428, 242.042 325.721, 250.308 324.913 C 255.702 324.385, 260.529 324.209, 261.034 324.521 C 261.565 324.849, 261.903 337.663, 261.833 354.795 C 261.739 378.026, 262.103 387.551, 263.503 398.500 C 264.488 406.200, 265.426 413.850, 265.589 415.500 C 265.751 417.150, 266.571 423.225, 267.411 429 C 268.820 438.690, 268.650 449, 267.083 449 C 266.720 449, 263.436 451.587, 259.786 454.750 C 256.136 457.913, 251.991 461.309, 250.575 462.297 C 249.159 463.285, 248 464.681, 248 465.399 C 248 466.117, 245.187 468.870, 241.750 471.517 C 238.313 474.163, 234.150 477.565, 232.500 479.077 C 230.850 480.589, 227.475 482.838, 225 484.075 C 220.375 486.388, 216 489.790, 216 491.074 C 216 491.473, 214.425 493.375, 212.500 495.300 C 208.463 499.337, 208.336 499.928, 210.867 502.847 C 213.341 505.700, 214.527 505.592, 224.238 501.628 C 228.782 499.773, 233.816 497.945, 235.425 497.565 C 237.972 496.963, 238.185 497.072, 237.080 498.403 C 234.650 501.331, 236.532 501.775, 241.385 499.420 C 246.717 496.832, 248.581 497.046, 246.968 500.061 C 246.111 501.661, 246.259 502, 247.816 502 C 248.853 502, 251.155 501.493, 252.931 500.874 C 255.423 500.005, 256.713 500.044, 258.580 501.043 C 260.682 502.168, 261.853 501.998, 267.550 499.737 L 274.102 497.138 275.051 499.634 C 275.573 501.007, 276 502.764, 276 503.538 C 276 504.313, 276.868 506.871, 277.929 509.223 C 280.125 514.090, 285.903 538, 284.884 538 C 284.515 538, 283.944 537.296, 283.614 536.437 C 282.335 533.102, 280.811 536.252, 281.495 540.817 C 282.267 545.962, 292.451 580.784, 293.487 581.820 C 293.854 582.187, 293.837 579.678, 293.448 576.244 C 292.659 569.270, 293.950 567.832, 295.688 573.750 C 296.293 575.813, 298.902 583.125, 301.486 590 C 304.069 596.875, 306.400 603.850, 306.665 605.500 C 307.809 612.613, 316.382 625, 320.161 625 C 321.134 625, 322.402 624.117, 322.980 623.037 C 323.603 621.874, 324.640 621.309, 325.528 621.649 C 326.352 621.965, 327.638 621.716, 328.386 621.094 C 329.446 620.215, 330.107 620.515, 331.374 622.447 C 332.268 623.813, 333 625.594, 333 626.406 C 333 627.218, 333.450 628.160, 334 628.500 C 334.550 628.840, 335 629.965, 335 631 C 335 632.035, 335.470 633.172, 336.044 633.527 C 337.633 634.509, 342 631.210, 342 629.027 C 342 627.967, 342.602 626.740, 343.338 626.300 C 344.074 625.860, 346.446 622.804, 348.609 619.510 C 350.784 616.197, 353.427 613.362, 354.521 613.167 C 355.610 612.974, 358.300 611.127, 360.500 609.062 C 362.700 606.998, 365.968 604.733, 367.763 604.028 C 371.276 602.648, 372.697 599.538, 371.553 595.734 C 371.183 594.505, 370.506 590.431, 370.048 586.679 C 369.175 579.522, 363.411 566.315, 361.500 567.093 C 360.950 567.317, 360.627 567.880, 360.781 568.344 C 360.936 568.808, 360.529 569.010, 359.876 568.792 C 359.224 568.575, 358.076 566.395, 357.324 563.948 C 353.660 552.019, 342 501.210, 342 497.176 C 342 496.245, 342.665 496.284, 344.750 497.337 C 346.262 498.101, 348.027 498.537, 348.671 498.306 C 349.315 498.075, 352.063 499.011, 354.777 500.387 C 357.595 501.815, 360.096 502.515, 360.606 502.019 C 361.817 500.842, 401.792 526.255, 421 540.412 C 424.025 542.642, 428.525 545.867, 431 547.579 C 437.379 551.991, 457.438 568.059, 457.816 569.060 C 458.886 571.890, 492.668 597.679, 493.788 596.520 C 494.180 596.115, 490.900 592.463, 486.500 588.405 C 482.100 584.347, 479.038 581.021, 479.696 581.014 C 481.298 580.995, 510.961 604.735, 511.681 606.611 C 512.509 608.769, 511.468 609.321, 509.030 608.016 C 505.199 605.966, 504.815 607.455, 508.194 611.256 C 512.055 615.599, 516.344 617.984, 519.029 617.282 C 520.074 617.009, 521.856 615.214, 522.989 613.294 C 524.929 610.006, 525.179 609.887, 527.275 611.256 C 528.621 612.135, 530.290 612.421, 531.500 611.980 C 532.600 611.579, 534.901 611.468, 536.613 611.734 C 540.286 612.304, 544 610.590, 544 608.325 C 544 606.135, 546.947 604.070, 550.128 604.032 C 553.600 603.990, 555.101 601.998, 554.770 597.873 C 554.546 595.077, 554.842 594.500, 556.500 594.500 C 559.744 594.500, 561 593.098, 561 589.476 C 561 587.117, 560.077 585.019, 557.998 582.651 C 556.347 580.770, 554.713 577.814, 554.366 576.080 C 553.726 572.879, 551.523 571, 548.410 571 C 547.463 571, 545.157 569.832, 543.285 568.404 C 540.198 566.049, 540.040 565.692, 541.585 564.562 C 543.101 563.453, 542.519 562.701, 536.287 557.729 C 532.436 554.656, 528.604 551.462, 527.772 550.629 C 526.134 548.991, 510.658 536.266, 501.466 529 C 498.335 526.525, 493.237 522.457, 490.137 519.961 C 483.530 514.641, 478.434 511, 477.596 511 C 475.616 511, 478.276 513.833, 488.461 522.575 C 500.161 532.617, 503.557 536.651, 493.726 528.831 C 472.316 511.799, 447.967 493.314, 435.271 484.452 C 430.659 481.232, 429.278 478.632, 433.750 481.587 C 442.731 487.521, 454.159 494.174, 454.605 493.728 C 454.892 493.441, 451.664 490.573, 447.433 487.353 C 443.201 484.134, 437.210 479.451, 434.119 476.946 C 429.086 472.867, 417.843 464.941, 402 454.304 C 398.975 452.273, 392.675 448.627, 388 446.202 C 383.325 443.777, 378.931 441.254, 378.235 440.596 C 377.236 439.651, 379.713 437.831, 390.002 431.949 C 397.170 427.852, 405.374 423.038, 408.233 421.250 C 411.093 419.462, 414.173 418, 415.078 418 C 415.983 418, 420.048 416.138, 424.112 413.863 C 428.175 411.588, 432.850 409, 434.500 408.113 C 446.359 401.736, 454 396.636, 454 395.097 C 454 394.130, 455.713 392.406, 457.886 391.184 C 462.436 388.627, 463.733 388.411, 462 390.500 C 460.205 392.663, 461.483 392.351, 465.936 389.541 C 470.146 386.883, 472.549 384.169, 469.664 385.330 C 465.102 387.167, 464.500 387.167, 466.703 385.334 C 467.915 384.325, 471.065 381.940, 473.703 380.034 C 476.341 378.128, 480.587 374.866, 483.139 372.784 C 489.849 367.310, 490.464 368.155, 484 373.968 C 475.386 381.714, 479.932 379.841, 489.716 371.613 C 501.310 361.863, 506 357.216, 506 355.476 C 506 354.691, 506.887 352.590, 507.971 350.807 C 509.056 349.024, 510.196 345.525, 510.506 343.033 C 511.644 333.883, 513.303 326.993, 514.634 325.889 C 517.034 323.897, 516.299 318.358, 513.260 315.540 C 511.753 314.143, 510.066 312.998, 509.510 312.996 C 508.955 312.994, 506.997 312.076, 505.161 310.957 C 502.359 309.248, 502.023 308.677, 503.075 307.410 C 505.073 305.002, 502.670 303.489, 490.566 299.535 C 474.507 294.289, 450 289.825, 450 292.147 C 450 292.616, 450.450 293, 451 293 C 451.550 293, 452 293.414, 452 293.919 C 452 294.465, 450.679 294.492, 448.750 293.986 C 441.982 292.210, 415.698 289.036, 395 287.495 C 383.175 286.615, 368.100 285.487, 361.500 284.987 C 349.901 284.109, 327.189 283.026, 319.994 283.009 C 317.047 283.001, 316.272 282.511, 315.130 279.932 C 314.383 278.244, 312.693 276.454, 311.374 275.952 C 310.055 275.450, 308.602 274.019, 308.145 272.770 C 304.991 264.145, 302.178 253.975, 302.154 251.113 C 302.139 249.250, 301.746 247.346, 301.282 246.882 C 300.133 245.733, 294.822 244.948, 293.107 245.673 M 1263.500 251.536 C 1261.850 252.292, 1259.592 252.930, 1258.482 252.955 C 1257.372 252.980, 1254.222 254.809, 1251.482 257.021 C 1236.990 268.717, 1234.020 271.363, 1233.484 273.051 C 1233.161 274.067, 1232.303 274.670, 1231.576 274.391 C 1230.070 273.813, 1222.244 282.415, 1221.421 285.553 C 1221.124 286.682, 1219.671 288.134, 1218.191 288.780 C 1214.686 290.309, 1205.611 296.948, 1200.320 301.854 C 1195.296 306.512, 1192.760 311.820, 1194.269 314.516 C 1194.836 315.530, 1195.345 317.740, 1195.400 319.429 C 1195.465 321.411, 1196.032 322.526, 1197 322.574 C 1197.825 322.615, 1200.300 323.175, 1202.500 323.819 C 1204.700 324.462, 1207.963 324.991, 1209.750 324.994 C 1212.476 324.999, 1212.987 325.363, 1212.920 327.250 C 1212.838 329.567, 1208.332 333.853, 1179.451 359.081 C 1144.469 389.638, 1111.982 418.524, 1093.577 435.435 C 1082.345 445.756, 1081.597 446.264, 1080.674 444.195 C 1079.952 442.577, 1078.748 441.959, 1076.097 441.844 C 1070.401 441.598, 1067.804 442.024, 1065.604 443.565 C 1064.477 444.354, 1062.868 445.002, 1062.027 445.004 C 1059.341 445.011, 1053.148 453.899, 1050.843 461.054 L 1048.643 467.887 1051.126 473.693 C 1052.976 478.017, 1054.123 479.500, 1055.618 479.500 C 1058.305 479.500, 1065.115 484.195, 1064.564 485.667 C 1064.323 486.309, 1064.810 487.097, 1065.645 487.417 C 1068.161 488.383, 1073.837 488.073, 1074.542 486.932 C 1074.905 486.344, 1075.862 486.117, 1076.668 486.426 C 1078.853 487.265, 1086.060 483.612, 1089.689 479.827 C 1094.150 475.173, 1095.687 471.761, 1095.200 467.590 C 1094.867 464.737, 1094.342 463.991, 1092.641 463.955 C 1090.849 463.917, 1091.225 463.306, 1094.944 460.205 C 1097.389 458.167, 1103.428 453.012, 1108.366 448.750 C 1113.303 444.488, 1117.671 441, 1118.072 441 C 1118.474 441, 1120.759 439.040, 1123.151 436.644 C 1126.990 432.798, 1132.186 428.138, 1140.085 421.457 C 1141.413 420.334, 1145.952 416.396, 1150.171 412.707 C 1154.390 409.018, 1158.290 406, 1158.838 406 C 1159.385 406, 1159.983 405.659, 1160.167 405.242 C 1160.350 404.826, 1164.775 400.715, 1170 396.107 C 1175.225 391.499, 1179.950 387.226, 1180.500 386.611 C 1181.050 385.996, 1186.675 380.995, 1193 375.497 C 1199.325 369.999, 1206.075 364.074, 1208 362.332 C 1218.106 353.181, 1218.283 353.131, 1235.539 354.563 C 1242.144 355.112, 1242.658 355.330, 1243.888 358.110 C 1244.773 360.108, 1245.736 360.917, 1246.850 360.595 C 1247.757 360.333, 1250.380 359.634, 1252.678 359.040 C 1254.977 358.447, 1258.802 356.367, 1261.178 354.419 C 1263.555 352.471, 1266.287 350.234, 1267.250 349.448 C 1268.213 348.662, 1269 347.362, 1269 346.558 C 1269 345.754, 1270.979 343.734, 1273.399 342.070 C 1275.818 340.405, 1280.206 336.755, 1283.149 333.958 C 1286.092 331.160, 1290.996 327.146, 1294.047 325.036 C 1300.272 320.732, 1306.965 313.122, 1308.554 308.539 C 1310.013 304.336, 1308.553 300.381, 1305.184 299.410 C 1303.708 298.984, 1296.425 298.605, 1289 298.568 C 1276.224 298.504, 1275.509 298.395, 1275.674 296.542 C 1275.926 293.694, 1274.204 291, 1272.131 291 C 1271.143 291, 1270.100 290.766, 1269.814 290.481 C 1269.529 290.195, 1269.909 286.483, 1270.659 282.231 C 1271.410 277.979, 1272.514 270.077, 1273.113 264.672 C 1274.174 255.089, 1274.144 254.783, 1271.926 252.422 C 1269.375 249.706, 1267.847 249.546, 1263.500 251.536 M 1499.259 250.705 C 1498.026 250.942, 1496.451 251.914, 1495.759 252.864 C 1495.066 253.814, 1488.663 259.048, 1481.528 264.495 C 1472.400 271.465, 1467.840 274.340, 1466.136 274.199 C 1464.424 274.058, 1462.307 275.407, 1458.905 278.809 C 1453.371 284.343, 1451.887 287.506, 1452.632 292.180 C 1452.989 294.424, 1451.843 299.876, 1449.095 309 C 1442.861 329.699, 1442.553 332.305, 1442.597 364.131 L 1442.636 392.762 1437.296 395.381 C 1434.359 396.821, 1431.447 398, 1430.826 398 C 1428.615 398, 1407.353 412.879, 1398.495 420.625 C 1384.166 433.156, 1368.675 450.243, 1357.812 465.500 C 1355.071 469.350, 1352.755 472.576, 1352.664 472.668 C 1352.574 472.761, 1352.485 468.711, 1352.466 463.668 C 1352.410 448.684, 1351.845 442.672, 1350.195 439.500 C 1349.337 437.850, 1348.570 435.746, 1348.490 434.824 C 1348.251 432.065, 1340.914 422.135, 1334.408 415.766 C 1327.955 409.449, 1322 405.144, 1322 406.795 C 1322 407.340, 1322.739 408.070, 1323.643 408.417 C 1324.547 408.763, 1325.073 409.261, 1324.811 409.522 C 1324.550 409.783, 1321.448 408.827, 1317.918 407.398 C 1311.169 404.666, 1308.964 403.326, 1312.750 404.259 C 1313.987 404.563, 1315 404.476, 1315 404.065 C 1315 403.012, 1307.881 401, 1304.157 401 C 1301.977 401, 1300.576 400.282, 1299.474 398.601 C 1296.290 393.742, 1284.118 391.800, 1276.258 394.898 C 1273.599 395.946, 1270.223 396.574, 1268.755 396.294 C 1264.981 395.572, 1259.938 398.758, 1246.535 410.332 C 1241.914 414.323, 1230.342 428.976, 1228.976 432.566 C 1228.543 433.702, 1227.022 436.353, 1225.595 438.456 C 1224.168 440.559, 1223 443.024, 1223 443.935 C 1223 444.846, 1220.998 449.680, 1218.551 454.679 C 1209.756 472.644, 1206.448 486.191, 1206.757 502.976 C 1206.947 513.299, 1207.430 516.785, 1209.558 523.173 C 1210.972 527.420, 1213 532.002, 1214.065 533.355 C 1215.129 534.708, 1216 536.042, 1216 536.318 C 1216 537.324, 1228.457 550, 1229.445 550 C 1230.004 550, 1232.860 550.994, 1235.792 552.210 C 1239.845 553.889, 1241.305 554.125, 1241.882 553.191 C 1242.474 552.234, 1243.592 552.298, 1246.946 553.481 C 1249.314 554.316, 1252.657 555.007, 1254.376 555.015 C 1258.262 555.034, 1260.912 556.436, 1258.680 557.292 C 1257.862 557.606, 1256.250 557.617, 1255.096 557.315 C 1253.908 557.004, 1253 557.242, 1253 557.864 C 1253 559.396, 1257.503 560.418, 1264.027 560.367 C 1268.384 560.333, 1270.466 559.720, 1273.861 557.474 C 1277.285 555.207, 1278.525 554.847, 1279.914 555.714 C 1282.125 557.095, 1292.189 552.844, 1299.422 547.473 C 1302.130 545.463, 1305.116 543.670, 1306.059 543.489 C 1308.966 542.929, 1312 540.599, 1312 538.927 C 1312 537.059, 1319.611 530.642, 1320.890 531.432 C 1321.370 531.729, 1324.563 528.996, 1327.984 525.358 C 1332.312 520.757, 1333.829 518.512, 1332.969 517.981 C 1332.060 517.419, 1332.462 516.261, 1334.485 513.608 C 1335.999 511.624, 1337.296 509.999, 1337.369 509.998 C 1337.441 509.997, 1337.350 512.910, 1337.166 516.473 C 1336.690 525.688, 1340.526 533.526, 1349.073 540.807 C 1357.340 547.849, 1361.159 549.627, 1369.379 550.260 C 1375.364 550.722, 1376.543 551.148, 1378.455 553.546 C 1380.561 556.187, 1380.936 556.279, 1387.437 555.757 C 1392.121 555.381, 1395.103 554.561, 1397.070 553.106 C 1398.787 551.837, 1401.425 551, 1403.710 550.999 C 1407.957 550.998, 1416.830 547.080, 1424.724 541.718 C 1427.597 539.767, 1431.404 537.850, 1433.184 537.460 C 1434.965 537.069, 1437.564 535.954, 1438.960 534.982 C 1440.357 534.011, 1444.825 531.030, 1448.889 528.358 C 1452.952 525.686, 1458.105 522.263, 1460.340 520.750 C 1465.359 517.352, 1468.626 517.174, 1469.518 520.250 C 1469.877 521.487, 1472.382 529.369, 1475.085 537.764 C 1477.788 546.160, 1480.014 554.035, 1480.032 555.264 C 1480.049 556.494, 1480.702 558.343, 1481.482 559.373 C 1484.095 562.823, 1488.423 578.093, 1487.299 579.893 C 1486.636 580.954, 1486.613 582.394, 1487.232 584.012 C 1487.755 585.381, 1488.552 588.750, 1489.002 591.500 C 1490.181 598.707, 1492.365 603.963, 1495.963 608.248 C 1499.202 612.106, 1502 613.150, 1502 610.500 C 1502 607.204, 1508.273 610.103, 1510.947 614.635 C 1512.753 617.696, 1512.776 618.026, 1511.236 618.888 C 1508.675 620.321, 1511.363 624.623, 1515.314 625.413 C 1518.794 626.109, 1520.088 625.174, 1522.887 619.941 C 1524.365 617.179, 1525.607 616.303, 1529.184 615.500 C 1534.691 614.264, 1538.996 611.516, 1539.012 609.227 C 1539.028 607.093, 1545.140 603, 1548.312 603 C 1553.343 603, 1556.820 595.246, 1554.034 590.236 C 1553.503 589.281, 1551.880 584.787, 1550.427 580.248 C 1548.974 575.709, 1546.885 570.852, 1545.785 569.454 C 1543.900 567.057, 1543.710 567.014, 1542.468 568.706 C 1541.269 570.340, 1540.979 570.098, 1539.220 566 C 1536.221 559.012, 1514.520 492.725, 1511.482 481.272 C 1509.990 475.647, 1509.056 470.296, 1509.407 469.381 C 1509.758 468.467, 1509.367 466.683, 1508.538 465.418 C 1507.056 463.156, 1504.177 451.779, 1501.347 437 C 1499.852 429.193, 1499.265 425.582, 1496.192 405.310 C 1495.176 398.606, 1493.705 392.350, 1492.922 391.408 C 1491.246 389.390, 1490.368 361.818, 1491.874 358.500 C 1492.373 357.400, 1493.274 350.200, 1493.875 342.500 C 1494.911 329.237, 1496.915 317.910, 1500.271 306.349 C 1502.363 299.145, 1512.292 279.620, 1517.107 273.242 C 1522.071 266.667, 1521.901 264.530, 1516.170 261.474 C 1510.630 258.520, 1507.805 255.951, 1508.397 254.407 C 1508.655 253.737, 1508.073 252.471, 1507.104 251.594 C 1505.375 250.029, 1503.729 249.843, 1499.259 250.705 M 317.738 325.405 C 316.498 326.645, 316.179 328.207, 316.533 331.296 C 316.798 333.608, 317.682 342.475, 318.496 351 C 319.311 359.525, 320.241 367.850, 320.563 369.500 C 320.886 371.150, 321.340 377.675, 321.573 384 C 322.424 407.086, 323.053 412.351, 325.203 414.380 C 327.154 416.221, 327.272 416.215, 330.983 414.130 C 333.067 412.958, 335.531 412, 336.458 412 C 337.385 412, 340.060 410.877, 342.402 409.505 C 344.744 408.132, 349.228 406.126, 352.367 405.046 C 364.160 400.988, 415.904 370.826, 437.903 355.185 C 446.846 348.827, 450.062 345.728, 448.911 344.577 C 448.115 343.781, 417.201 335.923, 411.161 334.981 C 408.224 334.523, 405.065 333.464, 404.140 332.627 C 402.574 331.209, 384.439 328.624, 382.856 329.593 C 382.503 329.809, 380.375 329.338, 378.129 328.545 C 375.882 327.753, 371.222 326.873, 367.772 326.589 C 364.322 326.306, 362.400 326.326, 363.500 326.634 C 364.600 326.942, 365.950 327.667, 366.500 328.244 C 367.188 328.967, 366.929 329.093, 365.668 328.647 C 364.661 328.291, 362.073 328, 359.918 328 C 357.102 328, 356 327.578, 356 326.500 C 356 325.305, 354.526 324.999, 348.750 324.995 C 344.762 324.993, 336.533 324.705, 330.462 324.355 C 320.893 323.803, 319.200 323.943, 317.738 325.405 M 1059.500 326.607 C 1057.300 326.832, 1050.325 327.950, 1044 329.092 C 1035.070 330.704, 1030.936 332.017, 1025.500 334.969 C 1021.650 337.060, 1015.598 339.990, 1012.052 341.481 C 998.765 347.067, 984.516 358.406, 970.839 374.276 C 964.873 381.198, 962.502 386.346, 968.203 380 C 971.417 376.422, 975.853 373.018, 977.318 373.007 C 978.316 372.999, 975.324 377.122, 970.428 382.500 C 964.896 388.577, 954.846 404.401, 949.947 414.750 C 947.538 419.837, 945.239 424, 944.838 424 C 944.436 424, 944.991 421.434, 946.070 418.297 C 948.602 410.939, 947.896 409.008, 945.047 415.500 C 942.599 421.080, 936.775 439.074, 935.176 446 C 933.488 453.312, 932.581 473.440, 933.842 475.611 C 934.802 477.265, 934.943 477.095, 934.970 474.250 C 934.986 472.462, 935.450 471, 936 471 C 936.550 471, 937.001 472.913, 937.001 475.250 C 937.003 480.721, 939.527 495.061, 941.573 501.220 C 942.448 503.854, 942.969 506.569, 942.730 507.254 C 942.492 507.940, 941.473 505.913, 940.466 502.750 C 939.459 499.587, 938.267 497, 937.817 497 C 936.538 497, 936.791 498.253, 940.074 508.193 C 943.737 519.286, 949.247 530.481, 956.606 541.784 C 959.573 546.341, 962 550.442, 962 550.899 C 962 552.385, 981.326 571.605, 988 576.755 C 995.849 582.813, 1004.848 588.217, 1006.287 587.738 C 1006.865 587.545, 1005.201 586.136, 1002.590 584.606 C 994.789 580.034, 998.135 580.497, 1009.475 585.559 C 1016.837 588.845, 1019.779 590.621, 1019.058 591.342 C 1017.521 592.879, 1036.490 597.545, 1052.460 599.560 C 1055.980 600.004, 1056.972 600.436, 1055.878 601.049 C 1054.378 601.888, 1050.234 601.749, 1041 600.552 L 1036.500 599.969 1040.500 601.520 C 1042.700 602.374, 1048.100 603.308, 1052.500 603.597 C 1062.944 604.282, 1062.800 604.281, 1074.864 603.659 C 1083.204 603.228, 1086.229 602.631, 1090.364 600.599 C 1095.018 598.312, 1115.590 591.888, 1117.649 592.079 C 1118.117 592.122, 1116.250 593.241, 1113.500 594.566 C 1107.006 597.694, 1109.693 597.665, 1118.977 594.508 C 1126.738 591.868, 1141.174 584.506, 1149.500 578.940 C 1156.136 574.505, 1174.545 555.897, 1180.363 547.744 C 1182.916 544.167, 1185.622 539.499, 1186.379 537.370 C 1187.135 535.242, 1189.573 529.900, 1191.797 525.500 C 1194.022 521.100, 1196.779 514.994, 1197.925 511.932 C 1200.755 504.366, 1204.098 488.698, 1203.096 487.696 C 1202.649 487.249, 1201.726 489.722, 1201.044 493.192 C 1199.381 501.657, 1194.822 515.815, 1194.267 514.234 C 1194.023 513.538, 1194.538 510.870, 1195.411 508.306 C 1197.213 503.018, 1197.475 499.110, 1195.767 503 C 1190.586 514.798, 1185.565 525, 1184.940 525 C 1184.523 525, 1184.981 523.313, 1185.959 521.250 C 1190.464 511.746, 1193.206 503.161, 1195.940 490 C 1199.721 471.801, 1196.672 439.648, 1189.470 421.760 C 1188.198 418.603, 1187.545 415.781, 1188.018 415.489 C 1188.490 415.197, 1189.865 417.667, 1191.073 420.979 C 1192.280 424.291, 1193.617 427, 1194.043 427 C 1195.869 427, 1190.369 411.533, 1184.353 399.750 C 1183.580 398.238, 1183.181 397, 1183.464 397 C 1183.748 397, 1185.992 401.006, 1188.451 405.902 C 1193.519 415.994, 1198.304 429.524, 1200.066 438.750 C 1200.723 442.188, 1201.657 445, 1202.142 445 C 1204.230 445, 1198.950 423.618, 1193.745 411 C 1190.646 403.485, 1184.481 391.270, 1182.956 389.622 C 1182.239 388.846, 1176.966 393.073, 1163.691 405.064 L 1159.746 408.627 1163.284 416.064 C 1167.605 425.143, 1171.604 437.719, 1173.152 447.091 C 1174.912 457.748, 1176.484 454.252, 1174.956 443.077 C 1174.271 438.061, 1173.970 433.697, 1174.287 433.380 C 1175.409 432.258, 1177.852 442.959, 1179.064 454.306 C 1180.461 467.374, 1179.499 478.379, 1176.076 488.500 C 1174.641 492.743, 1174.182 493.475, 1174.509 491 C 1175.745 481.632, 1176.107 468.557, 1175.089 470 C 1174.507 470.825, 1174.021 472.850, 1174.009 474.500 C 1173.982 478.429, 1168.935 496.849, 1165.767 504.584 C 1161.802 514.265, 1152.095 527.696, 1142.145 537.269 C 1137.131 542.092, 1132.011 546.489, 1130.765 547.040 C 1129.519 547.592, 1126.700 549.362, 1124.500 550.974 C 1118.190 555.597, 1105.246 561.772, 1096.287 564.433 C 1079.899 569.300, 1061.403 569.828, 1038 566.095 C 1031.023 564.982, 1015.716 558.061, 1006 551.627 C 992.766 542.864, 978.916 527.445, 974.448 516.500 C 972.381 511.439, 973.303 512.461, 980.307 523 C 986.791 532.755, 991.934 539.053, 991.973 537.285 C 991.988 536.616, 990.748 534.591, 989.218 532.785 C 979.889 521.772, 972.404 507.274, 968.253 492.176 C 964.651 479.078, 964.527 460.326, 967.946 446 C 971.219 432.289, 977.102 417.863, 983.967 406.718 C 987.259 401.373, 989.601 397, 989.172 397 C 988.043 397, 982.838 402.749, 978.986 408.250 C 973.482 416.113, 973.651 413.602, 979.256 404.256 C 991.204 384.334, 1013.954 366.433, 1037.271 358.608 C 1046.790 355.413, 1051.920 355.199, 1043.500 358.348 C 1040.200 359.582, 1036.600 361.165, 1035.500 361.865 C 1033.623 363.059, 1033.654 363.100, 1036 362.530 C 1037.375 362.196, 1041.875 360.948, 1046 359.755 C 1052.488 357.880, 1055.996 357.588, 1072 357.588 C 1090.223 357.588, 1097.273 358.582, 1107.414 362.584 C 1108.746 363.110, 1109.111 362.988, 1108.613 362.183 C 1108.220 361.547, 1104.747 360.070, 1100.896 358.900 C 1093.144 356.545, 1092.145 354.958, 1099.721 357.033 C 1108.072 359.320, 1120.429 364.900, 1122.500 367.319 C 1123.600 368.604, 1127.650 371.723, 1131.500 374.252 C 1135.350 376.780, 1140.024 380.430, 1141.887 382.363 L 1145.273 385.877 1154.637 377.725 C 1159.786 373.242, 1164 369.165, 1164 368.665 C 1164 368.165, 1161.694 364.914, 1158.876 361.440 C 1151.230 352.017, 1128.639 337.412, 1116.678 334.161 C 1113.393 333.267, 1113.024 333.324, 1114.050 334.561 C 1115.568 336.390, 1115.463 336.381, 1107.855 334.065 C 1104.360 333.001, 1099.816 331.827, 1097.759 331.456 C 1095.701 331.084, 1094.250 330.404, 1094.534 329.944 C 1095.488 328.401, 1087.597 327.017, 1075.500 326.606 C 1068.900 326.381, 1061.700 326.382, 1059.500 326.607 M 1054.750 354.662 C 1055.438 354.940, 1056.563 354.940, 1057.250 354.662 C 1057.938 354.385, 1057.375 354.158, 1056 354.158 C 1054.625 354.158, 1054.063 354.385, 1054.750 354.662 M 913.654 366.250 C 912.743 377.956, 912.847 383, 914 383 C 914.613 383, 915 378.167, 915 370.500 C 915 363.625, 914.842 358, 914.648 358 C 914.455 358, 914.007 361.712, 913.654 366.250 M 1019.571 369.571 C 1018.512 370.346, 1017.871 371.204, 1018.146 371.479 C 1018.421 371.754, 1019.512 371.346, 1020.571 370.571 C 1021.630 369.797, 1022.272 368.939, 1021.997 368.664 C 1021.722 368.389, 1020.630 368.797, 1019.571 369.571 M 1088.500 380.515 C 1092.900 381.839, 1096.912 382.940, 1097.417 382.961 C 1097.921 382.983, 1098.097 383.236, 1097.809 383.524 C 1097.521 383.813, 1094.782 383.397, 1091.723 382.600 C 1084.428 380.700, 1070.862 379.548, 1067.311 380.528 C 1065.134 381.128, 1066.905 381.585, 1075.159 382.551 C 1090.225 384.315, 1091.514 385.611, 1078.294 385.704 C 1059.197 385.839, 1047.123 388.530, 1034.100 395.556 L 1027.500 399.117 1031.432 395.545 C 1033.595 393.580, 1037.645 390.906, 1040.432 389.603 C 1043.220 388.299, 1047.525 386.297, 1050 385.153 C 1055.384 382.664, 1054.361 382.436, 1047.500 384.595 C 1037.952 387.601, 1037 387.858, 1037 387.432 C 1037 387.196, 1039.138 385.621, 1041.750 383.931 L 1046.500 380.858 1042.500 381.516 C 1037.359 382.362, 1026.411 387.748, 1020.978 392.104 C 1013.956 397.733, 1002.115 410.154, 998.281 415.912 C 993.759 422.705, 988.943 434.118, 986.218 444.500 C 983.126 456.283, 982.640 461.242, 983.992 467.198 C 984.654 470.114, 985.630 474.525, 986.161 477 C 988.629 488.502, 991.617 497, 993.193 497 C 993.681 497, 996.268 501.613, 998.940 507.250 C 1007.761 525.858, 1021.705 538.309, 1040.272 544.159 C 1046.256 546.044, 1064.168 547.624, 1062.372 546.108 C 1061.893 545.704, 1057.450 544.578, 1052.500 543.606 C 1043.522 541.844, 1031.440 537.169, 1033.682 536.324 C 1034.332 536.079, 1036.357 536.650, 1038.181 537.594 C 1042.859 540.013, 1060.923 542.977, 1071 542.980 C 1081.570 542.982, 1098.904 539.203, 1107.094 535.111 C 1110.342 533.488, 1113 532.526, 1113 532.973 C 1113 533.949, 1093.662 543.566, 1089.750 544.535 C 1088.237 544.910, 1087 545.648, 1087 546.176 C 1087 546.703, 1087.787 546.892, 1088.750 546.596 C 1089.713 546.299, 1093.650 545.098, 1097.500 543.927 C 1114.799 538.663, 1132.008 526.068, 1142.065 511.309 C 1148.249 502.235, 1153.821 490.774, 1152.296 490.265 C 1151.605 490.035, 1151.917 488.092, 1153.180 484.768 C 1155.401 478.922, 1156.951 459.706, 1155.284 458.676 C 1154.676 458.300, 1154.041 460.663, 1153.663 464.708 C 1153.074 471.011, 1151 476.114, 1151 471.259 C 1151 470.081, 1150.550 468.840, 1150 468.500 C 1149.450 468.160, 1148.993 468.696, 1148.985 469.691 C 1148.976 470.686, 1148.601 472.080, 1148.151 472.790 C 1147.684 473.525, 1147.248 470.249, 1147.136 465.165 C 1146.943 456.402, 1143.591 439.841, 1141.049 435.092 C 1140.383 433.847, 1140.087 432.580, 1140.391 432.275 C 1140.696 431.971, 1142.532 435.034, 1144.472 439.083 C 1148.585 447.665, 1148.960 446.553, 1145.486 436.071 C 1144.132 431.986, 1143.214 428.452, 1143.447 428.220 C 1143.680 427.987, 1145.452 430.880, 1147.386 434.648 C 1149.770 439.294, 1150.917 440.771, 1150.951 439.236 C 1150.978 437.991, 1150.596 436.191, 1150.103 435.236 C 1149.609 434.281, 1148.458 431.700, 1147.545 429.500 C 1143.869 420.642, 1144.402 420.555, 1131.639 432.121 C 1125.340 437.830, 1120.145 443.077, 1120.093 443.783 C 1119.990 445.199, 1124.739 455, 1125.529 455 C 1125.801 455, 1125.800 453.222, 1125.527 451.049 C 1124.861 445.750, 1126.465 445.080, 1128.692 449.727 C 1130.907 454.349, 1131.047 469.735, 1128.887 471.070 C 1128.168 471.514, 1127.112 473.784, 1126.540 476.115 C 1125.364 480.907, 1122.960 482.785, 1123.756 478.290 C 1124.469 474.265, 1122.697 476.505, 1120.545 482.348 C 1118.266 488.537, 1108.091 502.076, 1102.525 506.326 C 1100.167 508.126, 1095.147 510.855, 1091.369 512.389 C 1079.515 517.205, 1080.142 516.856, 1083.205 516.932 C 1084.692 516.970, 1088.950 515.896, 1092.668 514.547 C 1099.866 511.934, 1101.486 511.820, 1097.781 514.186 C 1093.745 516.765, 1087.680 518.755, 1079.852 520.071 C 1073.232 521.183, 1071.087 521.133, 1063.774 519.696 C 1055.242 518.020, 1047.358 515.309, 1048.293 514.373 C 1048.573 514.093, 1051.210 514.590, 1054.151 515.478 C 1059.748 517.167, 1081.030 518.845, 1079.778 517.499 C 1079.380 517.071, 1075.780 516.668, 1071.778 516.602 C 1065.203 516.493, 1063.478 515.990, 1053.930 511.395 C 1045.234 507.211, 1042.174 505.099, 1036.675 499.492 C 1029.820 492.500, 1025.092 484.280, 1023.452 476.500 C 1021.016 464.942, 1024.729 445.854, 1031.154 436.910 C 1035.898 430.305, 1043.919 421.734, 1047.265 419.696 C 1048.893 418.704, 1049.971 417.637, 1049.659 417.326 C 1048.540 416.206, 1044.266 418.017, 1039.576 421.598 C 1035.970 424.351, 1035.076 424.727, 1035.929 423.133 C 1036.551 421.970, 1039.409 419.288, 1042.280 417.171 C 1051.729 410.204, 1062.360 407.031, 1073 408.002 L 1078.500 408.504 1072.451 409.216 C 1067.077 409.848, 1057.927 412.763, 1060.500 413.023 C 1061.050 413.079, 1065.839 413.071, 1071.143 413.007 C 1082.410 412.870, 1091.065 414.780, 1098.807 419.112 L 1104.114 422.082 1107.294 419.406 C 1113.249 414.395, 1125 403.347, 1125 402.759 C 1125 402.437, 1122.862 400.066, 1120.250 397.491 L 1115.500 392.809 1121.250 396.392 C 1124.412 398.363, 1127 399.566, 1127 399.066 C 1127 397.724, 1119.974 391.974, 1113.750 388.223 C 1106.833 384.053, 1089.252 377.984, 1084.294 378.054 C 1080.999 378.100, 1081.551 378.424, 1088.500 380.515 M 1058 382 C 1056.787 382.784, 1056.931 382.972, 1058.750 382.985 C 1059.987 382.993, 1061 382.550, 1061 382 C 1061 380.747, 1059.939 380.747, 1058 382 M 1091 387 C 1091.825 387.533, 1093.175 387.969, 1094 387.969 C 1095.333 387.969, 1095.333 387.862, 1094 387 C 1093.175 386.467, 1091.825 386.031, 1091 386.031 C 1089.667 386.031, 1089.667 386.138, 1091 387 M 951.667 400.667 C 951.300 401.033, 951 401.798, 951 402.367 C 951 402.993, 951.466 402.934, 952.183 402.217 C 952.834 401.566, 953.134 400.801, 952.850 400.517 C 952.566 400.233, 952.033 400.300, 951.667 400.667 M 1492.509 405.750 C 1492.761 407.262, 1493.446 412.100, 1494.031 416.500 C 1495.782 429.665, 1502.173 462.425, 1503.200 463.500 C 1503.812 464.140, 1503.954 463.239, 1503.595 461 C 1503.286 459.075, 1502.098 451.650, 1500.955 444.500 C 1499.812 437.350, 1498.710 430.495, 1498.507 429.266 C 1498.304 428.038, 1497.905 426.655, 1497.619 426.193 C 1497.334 425.731, 1496.604 421.336, 1495.998 416.426 C 1495.393 411.517, 1494.646 406.488, 1494.340 405.250 C 1493.543 402.030, 1491.960 402.462, 1492.509 405.750 M 1185.031 409.500 C 1185.031 410.050, 1185.467 411.175, 1186 412 C 1186.533 412.825, 1186.969 413.050, 1186.969 412.500 C 1186.969 411.950, 1186.533 410.825, 1186 410 C 1185.467 409.175, 1185.031 408.950, 1185.031 409.500 M 1195 431.500 C 1195 432.325, 1195.436 433, 1195.969 433 C 1196.501 433, 1196.678 432.325, 1196.362 431.500 C 1196.045 430.675, 1195.609 430, 1195.393 430 C 1195.177 430, 1195 430.675, 1195 431.500 M 1443.688 436.611 C 1439.209 438.230, 1432.930 442.428, 1427.941 447.139 C 1425.983 448.988, 1421.933 452.498, 1418.941 454.941 C 1408.434 463.517, 1391.262 485.212, 1388.058 493.957 C 1386.231 498.942, 1386.154 500.053, 1387.286 505 C 1388.369 509.728, 1389.034 510.749, 1392.023 512.270 C 1399.517 516.084, 1416.354 512.144, 1435.539 502.086 C 1441.018 499.214, 1446.429 495.995, 1447.564 494.932 C 1448.700 493.869, 1450.004 493, 1450.461 493 C 1450.919 493, 1453.167 491.465, 1455.457 489.589 C 1460.502 485.455, 1460.519 486.323, 1454.852 459.500 C 1450.825 440.437, 1449.298 434.900, 1448.129 435.117 C 1447.783 435.181, 1445.785 435.853, 1443.688 436.611 M 1289.017 440.740 C 1288.202 441.060, 1286.707 442.374, 1285.695 443.661 C 1284.426 445.274, 1282.824 446, 1280.535 446 C 1273.495 446, 1260.593 464.716, 1256.429 480.971 C 1254.205 489.650, 1255.169 500.984, 1258.577 506.229 C 1259.910 508.279, 1261 510.337, 1261 510.801 C 1261 511.266, 1263.077 512.683, 1265.616 513.951 C 1272.014 517.146, 1279.213 516.439, 1288.551 511.698 C 1300.556 505.602, 1308.633 495.321, 1312.797 480.836 C 1315.424 471.698, 1315.501 469.147, 1313.402 460.831 C 1310.918 450.988, 1307.590 446.427, 1300.357 442.952 C 1294.314 440.048, 1291.953 439.588, 1289.017 440.740 M 1149 464 C 1149 465.100, 1149.408 466, 1149.906 466 C 1150.405 466, 1150.577 465.100, 1150.290 464 C 1150.002 462.900, 1149.594 462, 1149.383 462 C 1149.173 462, 1149 462.900, 1149 464 M 1204.195 473.500 C 1204.215 475.150, 1204.439 475.704, 1204.693 474.731 C 1204.947 473.758, 1204.930 472.408, 1204.656 471.731 C 1204.382 471.054, 1204.175 471.850, 1204.195 473.500 M 1202.769 482.956 C 1202.078 485.417, 1202.491 486.842, 1203.581 485.753 C 1203.900 485.433, 1204.004 484.121, 1203.810 482.836 L 1203.459 480.500 1202.769 482.956 M 934.638 483.500 C 934.955 484.325, 935.391 485, 935.607 485 C 935.823 485, 936 484.325, 936 483.500 C 936 482.675, 935.564 482, 935.031 482 C 934.499 482, 934.322 482.675, 934.638 483.500 M 1198.088 493.242 C 1197.407 495.300, 1197.031 497.775, 1197.253 498.742 C 1197.501 499.826, 1198.128 498.841, 1198.886 496.176 C 1200.439 490.721, 1199.755 488.206, 1198.088 493.242 M 1586.421 510.288 C 1584.814 511.634, 1580.350 514.775, 1576.500 517.267 C 1567.096 523.356, 1565.626 525.167, 1562.515 534.497 C 1559.626 543.160, 1559.692 545.240, 1563.085 552.458 C 1565.566 557.735, 1568.353 559.781, 1570.563 557.948 C 1571.677 557.023, 1572.698 557.046, 1575.123 558.051 C 1577.954 559.224, 1578.086 559.464, 1576.524 560.606 C 1574.199 562.306, 1575.083 563.378, 1580.524 565.456 C 1584.739 567.066, 1585.256 567.078, 1586.885 565.604 C 1587.860 564.722, 1589.944 564, 1591.517 564 C 1593.090 564, 1595.864 562.987, 1597.681 561.750 C 1600.913 559.550, 1602.232 557.323, 1599.750 558.256 C 1595.608 559.812, 1594 560.039, 1594 559.067 C 1594 558.480, 1594.405 558, 1594.900 558 C 1595.394 558, 1598.139 556.425, 1601 554.500 C 1607.178 550.343, 1607.744 550.216, 1605.615 553.465 C 1602.687 557.933, 1603.931 558.473, 1608 554.500 C 1612.357 550.246, 1612.888 549, 1610.345 549 C 1608.877 549, 1608.902 548.765, 1610.569 546.923 C 1611.610 545.773, 1612.609 545.327, 1612.808 545.923 C 1613.454 547.861, 1614.596 547.063, 1616.808 543.128 C 1618.931 539.350, 1618.945 539.089, 1617.393 532.378 C 1613.941 517.461, 1610.967 513.553, 1600.760 510.521 C 1591.128 507.661, 1589.587 507.636, 1586.421 510.288 M 943.015 509.691 C 943.024 510.136, 943.467 511.175, 944 512 C 944.835 513.293, 944.971 513.266, 944.985 511.809 C 944.993 510.879, 944.550 509.840, 944 509.500 C 943.450 509.160, 943.007 509.246, 943.015 509.691 M 1327.298 522.226 C 1325.030 525.155, 1324.890 526.342, 1327.057 524.278 C 1328.339 523.056, 1329.141 521.807, 1328.837 521.504 C 1328.533 521.200, 1327.841 521.525, 1327.298 522.226 M 950 524.548 C 950 526.619, 956.132 537, 957.356 537 C 957.837 537, 957.413 535.763, 956.415 534.250 C 955.417 532.737, 953.779 529.813, 952.777 527.750 C 951.134 524.371, 950 523.064, 950 524.548 M 600.446 538.500 C 596.755 540.975, 593.380 543, 592.946 543 C 592.511 543, 590.528 544.902, 588.538 547.227 C 583.907 552.637, 580.565 563.118, 581.238 570.121 C 581.838 576.365, 586.060 581.453, 589.852 580.501 C 593.087 579.689, 596.163 582.501, 595.394 585.568 C 594.936 587.390, 595.438 588.175, 597.860 589.428 C 601.866 591.499, 603.317 591.412, 605.532 588.965 C 606.545 587.845, 607.991 587.166, 608.745 587.456 C 611.812 588.633, 622.403 581.213, 621.397 578.591 C 621.146 577.937, 622.549 575.624, 624.516 573.451 C 627.306 570.368, 627.957 569.994, 627.478 571.750 C 626.551 575.152, 627.682 574.464, 630.591 569.855 L 633.208 565.710 631.436 556.296 C 628.796 542.274, 626.080 538.990, 613.929 535.133 C 608.544 533.424, 607.701 533.635, 600.446 538.500 M 964.038 547.538 C 963.987 548.938, 969.664 555.637, 970.343 554.977 C 970.638 554.689, 969.349 552.664, 967.478 550.477 C 965.606 548.289, 964.058 546.967, 964.038 547.538 M 976 561.955 C 976 562.530, 977.717 564.688, 979.815 566.750 C 983.772 570.639, 990.058 574.717, 989.922 573.307 C 989.800 572.038, 976 560.786, 976 561.955 M 610.427 583.479 C 608.735 584.759, 608.706 584.940, 610.191 584.968 C 611.121 584.986, 612.179 584.520, 612.541 583.933 C 613.630 582.171, 612.482 581.924, 610.427 583.479 M 1128.250 586.989 C 1123.949 589.612, 1124.099 590.397, 1128.500 588.299 C 1130.425 587.381, 1132 586.263, 1132 585.815 C 1132 584.715, 1131.959 584.728, 1128.250 586.989 M 1029.500 598.536 C 1031.150 599.292, 1033.175 599.894, 1034 599.874 C 1034.825 599.854, 1034.150 599.219, 1032.500 598.464 C 1030.850 597.708, 1028.825 597.106, 1028 597.126 C 1027.175 597.146, 1027.850 597.781, 1029.500 598.536 M 919.694 655.639 C 918.895 656.438, 919.798 658, 921.059 658 C 921.577 658, 922 657.325, 922 656.500 C 922 654.954, 920.820 654.513, 919.694 655.639" stroke="none" fill="currentColor" fill-rule="evenodd"/>
</svg>