<?xml version="1.0" encoding="UTF-8"?>
<svg xmlns="http://www.w3.org/2000/svg" width="1088" height="1716" viewBox="0 0 1088 1716">
  <title>The People&apos;s Purse regional map curation contact sheet</title>
  <style>
    .sheet-bg { fill: #0d2118; }
    .sheet-title { fill: #f7e8b2; font: 700 26px Georgia, serif; }
    .sheet-meta, .legend { fill: #bcd0bd; font: 12px ui-monospace, monospace; }
    .panel-bg { fill: #173629; stroke: #54755a; stroke-width: 1; }
    .panel-title { fill: #f7e8b2; font: 700 12px ui-monospace, monospace; }
    .quality { fill: #bcd0bd; font: 10px ui-monospace, monospace; }
    .map-bg { fill: #365c39; stroke: #86a16f; stroke-width: 1; }
    .grid path { fill: none; stroke: #9bb58a; stroke-opacity: .2; stroke-width: .7; }
    .river { stroke: #4f9fbd; stroke-width: 15; stroke-linecap: round; opacity: .8; }
    .road { fill: none; stroke: #c5ad78; stroke-linecap: round; stroke-linejoin: round; }
    .road-major { stroke-width: 3.8; }
    .road-minor { stroke-width: 2.4; stroke-dasharray: 4 2; }
    .settlement { fill: #d08445; stroke: #f1c47a; stroke-width: 1; }
    .guard { fill: #cf4c3f; stroke: #6d1f1a; stroke-width: .7; }
    .cache { fill: #efca49; stroke: #5e4a0b; stroke-width: .8; }
    .crossing { fill: #e6e0c0; stroke: #554e39; stroke-width: .8; }
    .camp { fill: #ff9f3f; stroke: #fff0b2; stroke-width: 1.5; }
    .objective { fill: #e44737; stroke: #ffe1b5; stroke-width: 1.2; }
  </style>
  <rect width="1088" height="1716" class="sheet-bg" />
  <text x="24" y="34" class="sheet-title">The People&apos;s Purse · procedural map curation</text>
  <text x="24" y="57" class="sheet-meta">regional-map-baker@1 · sha256:4918ada77f4e7749ecd13cde8e506728b8d8c8f951bf1f89034ccd6c6a05311e</text>
  <text x="24" y="78" class="legend">● camp · ◆ objective · ▬ crossing · ■ settlement · red guard · gold cache · tan road</text>
  
    <g class="panel">
      <rect x="24" y="104" width="508" height="378" rx="8" class="panel-bg" />
      <text x="40" y="124" class="panel-title">1. seed 399180686 · mapq1:0142ab5e</text>
      <text x="40" y="142" class="quality">TF 0.83 · RC 0.99 · RR 0.91 · PS 0.94 · LL 0.67 · CO 0.93 · NV 0.51</text>
      <rect x="130" y="152" width="296" height="296" class="map-bg" />
      <g class="grid"><path d="M 130.0 152.0 V 448.0 M 130.0 152.0 H 426.0" /><path d="M 189.2 152.0 V 448.0 M 130.0 211.2 H 426.0" /><path d="M 248.4 152.0 V 448.0 M 130.0 270.4 H 426.0" /><path d="M 307.6 152.0 V 448.0 M 130.0 329.6 H 426.0" /><path d="M 366.8 152.0 V 448.0 M 130.0 388.8 H 426.0" /><path d="M 426.0 152.0 V 448.0 M 130.0 448.0 H 426.0" /></g>
      <line x1="295.0" y1="152.0" x2="265.4" y2="448.0" class="river" />
      <polyline points="225.3,182.4 228.0,184.9 230.6,187.4 233.3,190.0 236.0,192.5 238.6,195.0 241.3,197.5 244.0,200.0 246.6,202.5 249.3,205.0" class="road road-major" /><polyline points="249.3,205.0 253.0,205.0 256.6,205.0 260.3,205.0 264.0,204.9 267.7,204.9 271.3,204.9 275.0,204.9 278.7,204.8 282.4,204.8 286.1,204.8 289.7,204.8" class="road road-major" /><polyline points="278.1,321.0 281.5,321.3 284.9,321.7 288.3,322.0 291.7,322.4 292.0,318.9 292.4,315.4 292.7,311.9 293.1,308.4 293.4,304.9 293.8,301.4 297.6,301.2 301.4,301.1 305.1,301.0 308.9,300.9 312.7,300.7 316.5,300.6 320.3,300.5 324.1,300.4 327.9,300.2 331.6,300.1 335.4,300.0 335.9,303.8 336.3,307.5 336.7,311.3 337.2,315.0 337.6,318.8 338.1,322.5 338.5,326.3 338.9,330.0 339.4,333.8 339.8,337.5 340.3,341.3 340.7,345.0 341.1,348.8 341.6,352.6 342.0,356.3 342.5,360.1 342.9,363.8 346.4,363.2 349.9,362.5 353.4,361.9 356.9,361.2 360.4,360.6 363.9,359.9 367.3,359.2 370.4,361.0 373.5,362.8 376.6,364.5 379.7,366.3 382.8,368.1 385.8,369.8 388.9,371.6 392.0,373.3 395.1,375.1" class="road road-major" /><polyline points="395.1,375.1 394.6,378.7 394.1,382.3 393.7,385.9 393.2,389.4 392.7,393.0 392.2,396.6 391.8,400.2 391.3,403.8 390.8,407.4 390.3,410.9" class="road road-major" /><polyline points="185.2,406.0 187.4,402.7 189.6,399.4 191.9,396.1 194.1,392.8 196.3,389.5 198.5,386.2 200.7,382.9 202.9,379.6 205.1,376.3 207.3,373.0 209.5,369.7 211.7,366.4 214.0,363.1 216.2,359.8 218.4,356.5 220.6,353.2 222.8,349.9 225.0,346.6 227.2,343.3 229.4,340.0 231.6,336.7 234.2,334.0 236.8,331.3 239.4,328.5 242.0,325.8 244.6,323.1 247.2,320.4 249.8,317.7 252.4,315.0 255.0,312.3 257.6,309.6 260.2,306.9 262.8,304.2 265.4,301.5 267.9,298.8 267.6,302.3 267.2,305.8 266.9,309.3 266.5,312.8 266.2,316.3 265.8,319.8 268.9,320.1 272.0,320.4 275.0,320.7 278.1,321.0" class="road road-minor" /><polyline points="289.7,204.8 292.8,205.1 295.9,205.4 298.9,205.7 302.0,206.0 301.6,209.9 301.2,213.8 300.8,217.6 300.4,221.5 300.1,225.4 299.7,229.3 299.3,233.1 298.9,237.0 298.5,240.9 298.1,244.7 297.7,248.6 297.3,252.5 297.0,256.4 296.6,260.2 296.2,264.1 295.8,268.0 295.4,271.9 295.0,275.7 294.6,279.6 294.2,283.5 293.9,287.4 293.5,291.2 293.1,295.1 292.7,299.0 292.3,302.9 291.9,306.7 291.5,310.6 291.1,314.5 290.8,318.3 290.4,322.2 287.3,321.9 284.2,321.6 281.2,321.3 278.1,321.0" class="road road-minor" />
      <rect x="245.8" y="201.5" width="7" height="7" class="settlement"><title>forest-village</title></rect><rect x="181.7" y="402.5" width="7" height="7" class="settlement"><title>outlaw-hamlet</title></rect><rect x="391.6" y="371.6" width="7" height="7" class="settlement"><title>sheriff-post</title></rect>
      <circle cx="394.3" cy="410.9" r="1.8" class="guard" /><circle cx="388.3" cy="414.4" r="1.8" class="guard" /><circle cx="388.3" cy="407.5" r="1.8" class="guard" /><circle cx="299.8" cy="212.7" r="1.8" class="guard" /><circle cx="297.2" cy="206.3" r="1.8" class="guard" /><circle cx="304.0" cy="207.2" r="1.8" class="guard" /><circle cx="291.0" cy="321.9" r="1.8" class="guard" /><circle cx="297.7" cy="320.1" r="1.8" class="guard" /><circle cx="295.9" cy="326.8" r="1.8" class="guard" /><circle cx="316.0" cy="286.4" r="1.8" class="guard" /><circle cx="316.9" cy="293.2" r="1.8" class="guard" /><circle cx="310.5" cy="290.6" r="1.8" class="guard" /><circle cx="277.1" cy="239.5" r="1.8" class="guard" /><circle cx="270.2" cy="239.5" r="1.8" class="guard" /><circle cx="273.6" cy="233.5" r="1.8" class="guard" />
      <circle cx="158.8" cy="244.6" r="2.7" class="cache" /><circle cx="397.9" cy="190.7" r="2.7" class="cache" /><circle cx="283.6" cy="418.2" r="2.7" class="cache" /><circle cx="336.8" cy="244.1" r="2.7" class="cache" />
      <rect x="286.7" y="202.8" width="6" height="4" class="crossing" /><rect x="275.1" y="319.0" width="6" height="4" class="crossing" />
      <circle cx="225.3" cy="182.4" r="5" class="camp"><title>campfire</title></circle>
      <path d="M 390.3 404.9 L 396.3 410.9 L 390.3 416.9 L 384.3 410.9 Z" class="objective"><title>objective</title></path>
    </g>
    <g class="panel">
      <rect x="544" y="104" width="508" height="378" rx="8" class="panel-bg" />
      <text x="560" y="124" class="panel-title">2. seed 432735924 · mapq1:214a46aa</text>
      <text x="560" y="142" class="quality">TF 0.83 · RC 1.00 · RR 0.81 · PS 0.91 · LL 0.60 · CO 1.00 · NV 0.55</text>
      <rect x="650" y="152" width="296" height="296" class="map-bg" />
      <g class="grid"><path d="M 650.0 152.0 V 448.0 M 650.0 152.0 H 946.0" /><path d="M 709.2 152.0 V 448.0 M 650.0 211.2 H 946.0" /><path d="M 768.4 152.0 V 448.0 M 650.0 270.4 H 946.0" /><path d="M 827.6 152.0 V 448.0 M 650.0 329.6 H 946.0" /><path d="M 886.8 152.0 V 448.0 M 650.0 388.8 H 946.0" /><path d="M 946.0 152.0 V 448.0 M 650.0 448.0 H 946.0" /></g>
      <line x1="815.0" y1="152.0" x2="785.4" y2="448.0" class="river" />
      <polyline points="680.2,416.6 684.2,416.3 688.1,416.0 692.1,415.8 696.0,415.5 700.0,415.2 703.9,414.9 707.8,414.6 711.8,414.4 715.7,414.1 719.7,413.8 723.6,413.5 727.6,413.2 731.5,413.0 735.5,412.7 739.4,412.4 743.4,412.1 747.3,411.8 751.3,411.6 755.2,411.3 759.2,411.0 763.1,410.7 767.1,410.4" class="road road-major" /><polyline points="767.1,410.4 769.8,411.5 772.5,412.5 775.1,413.5 775.5,409.8 775.9,406.1 776.3,402.3 776.6,398.6 777.0,394.9 777.4,391.2 777.7,387.4 778.1,383.7 778.5,380.0 778.9,376.3 779.2,372.6 779.6,368.8 780.0,365.1 780.4,361.4 783.7,361.7 787.1,362.1 790.5,362.4 793.9,362.7" class="road road-major" /><polyline points="805.6,246.4 809.0,246.8 812.4,247.1 815.8,247.4 819.1,247.8 818.8,251.3 818.4,254.9 818.1,258.4 817.7,262.0 817.4,265.5 817.0,269.1 816.7,272.6 820.6,272.9 824.5,273.1 828.5,273.3 832.4,273.5 836.3,273.8 840.3,274.0 844.2,274.2 848.1,274.4 852.0,274.7 852.5,278.5 853.0,282.4 853.5,286.3 853.9,290.2 854.4,294.1 854.9,297.9 855.3,301.8 855.8,305.7 856.3,309.6 856.8,313.4 857.2,317.3 857.7,321.2 858.2,325.1 858.6,328.9 859.1,332.8 859.6,336.7 860.1,340.6 860.5,344.4 861.0,348.3 861.5,352.2 862.0,356.1 862.4,359.9 862.9,363.8 866.7,363.3 870.6,362.8 874.4,362.3 878.3,361.8 882.1,361.4 886.0,360.9 889.8,360.4 893.6,359.9 897.5,359.4 901.3,358.9 905.2,358.4 909.0,357.9 912.9,357.4 912.6,353.8 912.3,350.3 912.0,346.7 911.8,343.1 911.5,339.5 911.2,335.9 910.9,332.3 910.7,328.7 910.0,324.8 909.3,320.9 908.7,317.0 908.0,313.1 907.3,309.2 906.7,305.3 906.0,301.4 905.4,297.5 904.7,293.6 904.0,289.7 903.4,285.8 902.7,281.9 902.0,278.0 901.4,274.1 900.7,270.2 900.1,266.3 899.4,262.4 898.7,258.5 898.1,254.6 897.4,250.7 896.7,246.8 896.1,242.9 895.4,239.0 894.8,235.1 894.1,231.2 893.4,227.3 892.8,223.3 892.1,219.4 891.4,215.5 890.8,211.6" class="road road-major" /><polyline points="890.8,211.6 893.6,209.2 896.4,206.7 899.3,204.2 902.1,201.7 905.0,199.2 907.8,196.7 910.6,194.3 913.5,191.8 916.3,189.3" class="road road-major" /><polyline points="711.9,205.0 715.5,206.6 719.1,208.2 722.7,209.8 726.3,211.4 729.9,213.0 733.5,214.6 737.1,216.2 740.7,217.8 744.3,219.4 747.9,220.9 751.5,222.5 755.1,224.1 758.7,225.7 762.3,227.3 765.9,228.9 769.5,230.5 773.1,232.1 776.7,233.7 780.3,235.3 783.9,236.9 787.5,238.5 791.1,240.1 794.8,241.6 798.4,243.2 802.0,244.8 805.6,246.4" class="road road-minor" /><polyline points="805.6,246.4 808.6,246.7 811.7,247.0 814.8,247.3 817.8,247.7 817.4,251.5 817.1,255.4 816.7,259.3 816.3,263.2 815.9,267.0 815.5,270.9 815.1,274.8 814.7,278.7 814.3,282.6 814.0,286.4 813.6,290.3 813.2,294.2 812.8,298.1 812.4,301.9 812.0,305.8 811.6,309.7 811.2,313.6 810.9,317.4 810.5,321.3 810.1,325.2 809.7,329.1 809.3,333.0 808.9,336.8 808.5,340.7 808.1,344.6 807.7,348.5 807.4,352.3 807.0,356.2 806.6,360.1 806.2,364.0 803.1,363.7 800.1,363.4 797.0,363.1 793.9,362.7" class="road road-minor" />
      <rect x="763.6" y="406.9" width="7" height="7" class="settlement"><title>forest-village</title></rect><rect x="708.4" y="201.5" width="7" height="7" class="settlement"><title>outlaw-hamlet</title></rect><rect x="887.3" y="208.1" width="7" height="7" class="settlement"><title>sheriff-post</title></rect>
      <circle cx="920.3" cy="189.3" r="1.8" class="guard" /><circle cx="914.3" cy="192.7" r="1.8" class="guard" /><circle cx="914.3" cy="185.9" r="1.8" class="guard" /><circle cx="815.7" cy="254.3" r="1.8" class="guard" /><circle cx="813.0" cy="248.0" r="1.8" class="guard" /><circle cx="819.8" cy="248.9" r="1.8" class="guard" /><circle cx="779.5" cy="357.8" r="1.8" class="guard" /><circle cx="786.1" cy="356.0" r="1.8" class="guard" /><circle cx="784.4" cy="362.6" r="1.8" class="guard" /><circle cx="809.7" cy="290.0" r="1.8" class="guard" /><circle cx="810.6" cy="296.9" r="1.8" class="guard" /><circle cx="804.3" cy="294.3" r="1.8" class="guard" /><circle cx="853.9" cy="422.1" r="1.8" class="guard" /><circle cx="847.0" cy="422.1" r="1.8" class="guard" /><circle cx="850.4" cy="416.2" r="1.8" class="guard" /><circle cx="849.2" cy="307.0" r="1.8" class="guard" /><circle cx="850.0" cy="300.1" r="1.8" class="guard" /><circle cx="855.5" cy="304.3" r="1.8" class="guard" /><circle cx="916.2" cy="417.2" r="1.8" class="guard" /><circle cx="922.9" cy="418.9" r="1.8" class="guard" /><circle cx="918.1" cy="423.8" r="1.8" class="guard" />
      <circle cx="794.6" cy="186.7" r="2.7" class="cache" /><circle cx="687.8" cy="352.7" r="2.7" class="cache" /><circle cx="799.4" cy="415.9" r="2.7" class="cache" /><circle cx="918.3" cy="297.2" r="2.7" class="cache" />
      <rect x="802.6" y="244.4" width="6" height="4" class="crossing" /><rect x="790.9" y="360.7" width="6" height="4" class="crossing" />
      <circle cx="680.2" cy="416.6" r="5" class="camp"><title>campfire</title></circle>
      <path d="M 916.3 183.3 L 922.3 189.3 L 916.3 195.3 L 910.3 189.3 Z" class="objective"><title>objective</title></path>
    </g>
    <g class="panel">
      <rect x="24" y="494" width="508" height="378" rx="8" class="panel-bg" />
      <text x="40" y="514" class="panel-title">3. seed 2361911846 · mapq1:34a3e030</text>
      <text x="40" y="532" class="quality">TF 0.83 · RC 0.94 · RR 1.00 · PS 1.00 · LL 0.63 · CO 0.98 · NV 0.62</text>
      <rect x="130" y="542" width="296" height="296" class="map-bg" />
      <g class="grid"><path d="M 130.0 542.0 V 838.0 M 130.0 542.0 H 426.0" /><path d="M 189.2 542.0 V 838.0 M 130.0 601.2 H 426.0" /><path d="M 248.4 542.0 V 838.0 M 130.0 660.4 H 426.0" /><path d="M 307.6 542.0 V 838.0 M 130.0 719.6 H 426.0" /><path d="M 366.8 542.0 V 838.0 M 130.0 778.8 H 426.0" /><path d="M 426.0 542.0 V 838.0 M 130.0 838.0 H 426.0" /></g>
      <line x1="295.0" y1="542.0" x2="265.4" y2="838.0" class="river" />
      <polyline points="334.0,578.6 330.9,580.4 327.7,582.1 324.6,583.9 321.5,585.7 318.3,587.5 315.2,589.2 312.1,591.0 308.9,592.8" class="road road-major" /><polyline points="308.9,592.8 308.9,589.5 308.9,586.2 308.9,582.9 308.9,579.6 308.0,583.2 307.1,586.9 306.1,590.5 305.2,594.2 304.3,597.9 303.3,601.5 302.4,605.2 302.0,608.9 301.7,612.5 301.3,616.2 300.9,619.9 300.6,623.6 300.2,627.2 299.8,630.9 299.5,634.6 299.1,638.2 295.7,637.9 292.3,637.6 288.9,637.2 285.5,636.9" class="road road-major" /><polyline points="274.7,745.2 270.9,745.1 267.1,745.0 263.3,745.0 259.6,744.9 255.8,744.8 252.0,744.8 248.2,744.7 244.4,744.7 240.7,744.6 236.9,744.5 233.1,744.5 229.3,744.4 225.5,744.3 221.7,744.3 218.0,744.2 214.2,744.2 210.4,744.1 211.0,747.9 211.7,751.7 212.3,755.5 212.9,759.3 213.6,763.1 214.2,766.9 214.8,770.7 215.5,774.5 216.1,778.3 216.8,782.1 217.4,785.9 218.0,789.7 218.7,793.5 219.3,797.3 219.9,801.1 220.6,804.9 217.0,804.0 213.5,803.1 210.0,802.2 206.4,801.3 202.9,800.4 199.4,799.6 195.8,798.7 192.3,797.8 188.8,796.9 185.2,796.0" class="road road-major" /><polyline points="185.2,796.0 182.0,797.9 178.7,799.8 175.5,801.7 172.2,803.6 169.0,805.5 165.7,807.4 162.5,809.3 159.2,811.2" class="road road-major" /><polyline points="395.1,765.1 391.6,764.0 388.1,762.9 384.7,761.9 381.2,760.8 377.7,759.7 374.3,758.6 370.8,757.5 367.3,756.4 363.7,757.1 360.1,757.8 356.4,758.5 352.5,757.9 348.7,757.4 344.8,756.8 340.9,756.3 337.1,755.8 333.2,755.2 329.3,754.7 325.4,754.1 321.6,753.6 317.7,753.0 313.8,752.5 310.0,751.9 306.1,751.4 302.2,750.8 298.3,750.3 294.5,749.8 290.6,749.2 286.7,748.7 283.7,747.8 280.7,746.9 277.7,746.0 274.7,745.2" class="road road-minor" /><polyline points="285.5,636.9 288.6,637.2 291.7,637.5 294.7,637.8 297.8,638.1 297.4,642.0 297.0,645.8 296.6,649.7 296.2,653.6 295.9,657.4 295.5,661.3 295.1,665.2 294.7,669.0 294.3,672.9 293.9,676.8 293.5,680.6 293.1,684.5 292.8,688.4 292.4,692.3 292.0,696.1 291.6,700.0 291.2,703.9 290.8,707.7 290.4,711.6 290.1,715.5 289.7,719.3 289.3,723.2 288.9,727.1 288.5,730.9 288.1,734.8 287.7,738.7 287.3,742.5 287.0,746.4 283.9,746.1 280.8,745.8 277.8,745.5 274.7,745.2" class="road road-minor" />
      <rect x="305.4" y="589.3" width="7" height="7" class="settlement"><title>forest-village</title></rect><rect x="391.6" y="761.6" width="7" height="7" class="settlement"><title>outlaw-hamlet</title></rect><rect x="181.7" y="792.5" width="7" height="7" class="settlement"><title>sheriff-post</title></rect>
      <circle cx="163.2" cy="811.2" r="1.8" class="guard" /><circle cx="157.2" cy="814.7" r="1.8" class="guard" /><circle cx="157.2" cy="807.8" r="1.8" class="guard" /><circle cx="295.6" cy="644.8" r="1.8" class="guard" /><circle cx="293.0" cy="638.4" r="1.8" class="guard" /><circle cx="299.8" cy="639.3" r="1.8" class="guard" /><circle cx="260.2" cy="740.2" r="1.8" class="guard" /><circle cx="266.9" cy="738.4" r="1.8" class="guard" /><circle cx="265.1" cy="745.0" r="1.8" class="guard" /><circle cx="248.4" cy="669.1" r="1.8" class="guard" /><circle cx="249.3" cy="675.9" r="1.8" class="guard" /><circle cx="242.9" cy="673.3" r="1.8" class="guard" /><circle cx="172.7" cy="748.2" r="1.8" class="guard" /><circle cx="165.8" cy="748.3" r="1.8" class="guard" /><circle cx="169.2" cy="742.3" r="1.8" class="guard" /><circle cx="387.8" cy="808.8" r="1.8" class="guard" /><circle cx="388.6" cy="801.9" r="1.8" class="guard" /><circle cx="394.1" cy="806.1" r="1.8" class="guard" /><circle cx="336.3" cy="748.6" r="1.8" class="guard" /><circle cx="342.9" cy="750.3" r="1.8" class="guard" /><circle cx="338.1" cy="755.2" r="1.8" class="guard" />
      <circle cx="221.1" cy="569.9" r="2.7" class="cache" /><circle cx="396.3" cy="690.0" r="2.7" class="cache" /><circle cx="222.0" cy="752.7" r="2.7" class="cache" /><circle cx="156.7" cy="580.3" r="2.7" class="cache" />
      <rect x="282.5" y="634.9" width="6" height="4" class="crossing" /><rect x="271.7" y="743.2" width="6" height="4" class="crossing" />
      <circle cx="334.0" cy="578.6" r="5" class="camp"><title>campfire</title></circle>
      <path d="M 159.2 805.2 L 165.2 811.2 L 159.2 817.2 L 153.2 811.2 Z" class="objective"><title>objective</title></path>
    </g>
    <g class="panel">
      <rect x="544" y="494" width="508" height="378" rx="8" class="panel-bg" />
      <text x="560" y="514" class="panel-title">4. seed 917172561 · mapq1:37dd81e7</text>
      <text x="560" y="532" class="quality">TF 0.83 · RC 0.96 · RR 0.73 · PS 1.00 · LL 0.68 · CO 1.00 · NV 0.69</text>
      <rect x="650" y="542" width="296" height="296" class="map-bg" />
      <g class="grid"><path d="M 650.0 542.0 V 838.0 M 650.0 542.0 H 946.0" /><path d="M 709.2 542.0 V 838.0 M 650.0 601.2 H 946.0" /><path d="M 768.4 542.0 V 838.0 M 650.0 660.4 H 946.0" /><path d="M 827.6 542.0 V 838.0 M 650.0 719.6 H 946.0" /><path d="M 886.8 542.0 V 838.0 M 650.0 778.8 H 946.0" /><path d="M 946.0 542.0 V 838.0 M 650.0 838.0 H 946.0" /></g>
      <line x1="815.0" y1="542.0" x2="785.4" y2="838.0" class="river" />
      <polyline points="740.1,569.8 743.0,572.3 745.9,574.9 748.8,577.4 751.8,579.9 754.7,582.4 757.6,584.9 760.5,587.5 763.4,590.0 766.4,592.5 769.3,595.0" class="road road-major" /><polyline points="769.3,595.0 773.0,594.9 776.6,594.9 780.3,594.8 784.0,594.7 787.7,594.6 791.4,594.5 795.1,594.4 798.7,594.4 802.4,594.3 806.1,594.2 809.8,594.1" class="road road-major" /><polyline points="791.4,778.6 794.8,778.3 798.3,778.0 801.7,777.8 805.2,777.5 805.6,773.6 806.0,769.7 806.4,765.8 806.7,761.8 807.1,757.9 807.5,754.0 807.9,750.1 808.3,746.2 808.7,742.3 809.1,738.3 809.5,734.4 809.9,730.5 810.3,726.6 810.7,722.7 811.1,718.8 811.4,714.9 811.8,710.9 812.2,707.0 812.6,703.1 813.0,699.2 813.4,695.3 813.8,691.4 817.6,691.2 821.4,691.1 825.1,691.0 828.9,690.9 832.7,690.7 836.5,690.6 840.3,690.5 844.1,690.4 847.9,690.2 851.6,690.1 855.4,690.0 855.9,693.8 856.3,697.5 856.7,701.3 857.2,705.0 857.6,708.8 858.1,712.5 858.5,716.3 858.9,720.0 859.4,723.8 859.8,727.5 860.3,731.3 860.7,735.0 861.1,738.8 861.6,742.6 862.0,746.3 862.5,750.1 862.9,753.8 866.4,753.2 869.9,752.5 873.4,751.9 876.9,751.2 880.4,750.6 883.9,749.9 887.3,749.2 890.4,751.0 893.5,752.8 896.6,754.5 899.7,756.3 902.8,758.1 905.8,759.8 908.9,761.6 912.0,763.3 915.1,765.1" class="road road-major" /><polyline points="915.1,765.1 914.9,768.9 914.8,772.8 914.7,776.6 914.5,780.4 914.4,784.3 914.3,788.1 914.1,791.9 914.0,795.7 913.9,799.6 913.7,803.4 913.6,807.2" class="road road-major" /><polyline points="705.2,796.0 708.5,796.0 711.9,796.0 715.2,796.0 718.5,796.0 719.4,792.3 720.4,788.6 721.3,784.9 722.3,781.1 723.2,777.4 724.1,773.7 725.1,770.0 726.0,766.2 727.0,762.5 727.9,758.8 728.9,755.1 729.8,751.3 730.8,747.6 731.7,743.9 735.4,743.4 739.0,742.8 742.7,742.3 746.4,741.7 750.0,741.2 753.7,740.7 756.0,743.8 758.4,746.9 760.7,750.0 763.0,753.1 765.3,756.2 767.7,759.3 770.0,762.5 772.3,765.6 774.7,768.7 777.0,771.8 779.3,774.9 782.3,775.8 785.3,776.7 788.3,777.7 791.4,778.6" class="road road-minor" /><polyline points="809.8,594.1 812.9,594.4 815.9,594.7 819.0,595.0 822.1,595.3 821.7,599.2 821.3,603.1 820.9,607.0 820.5,610.8 820.1,614.7 819.7,618.6 819.4,622.5 819.0,626.3 818.6,630.2 818.2,634.1 817.8,638.0 817.4,641.8 817.0,645.7 816.6,649.6 816.3,653.4 815.9,657.3 815.5,661.2 815.1,665.1 814.7,668.9 814.3,672.8 813.9,676.7 813.5,680.6 813.2,684.4 812.8,688.3 812.4,692.2 812.0,696.0 811.6,699.9 811.2,703.8 810.8,707.7 810.4,711.5 810.1,715.4 809.7,719.3 809.3,723.2 808.9,727.0 808.5,730.9 808.1,734.8 807.7,738.6 807.3,742.5 807.0,746.4 806.6,750.3 806.2,754.1 805.8,758.0 805.4,761.9 805.0,765.8 804.6,769.6 804.2,773.5 803.9,777.4 800.7,777.7 797.6,778.0 794.5,778.3 791.4,778.6" class="road road-minor" />
      <rect x="765.8" y="591.5" width="7" height="7" class="settlement"><title>forest-village</title></rect><rect x="701.7" y="792.5" width="7" height="7" class="settlement"><title>outlaw-hamlet</title></rect><rect x="911.6" y="761.6" width="7" height="7" class="settlement"><title>sheriff-post</title></rect>
      <circle cx="917.6" cy="807.2" r="1.8" class="guard" /><circle cx="911.6" cy="810.7" r="1.8" class="guard" /><circle cx="911.6" cy="803.8" r="1.8" class="guard" /><circle cx="819.9" cy="602.0" r="1.8" class="guard" /><circle cx="817.2" cy="595.7" r="1.8" class="guard" /><circle cx="824.1" cy="596.6" r="1.8" class="guard" /><circle cx="776.9" cy="773.6" r="1.8" class="guard" /><circle cx="783.6" cy="771.8" r="1.8" class="guard" /><circle cx="781.8" cy="778.4" r="1.8" class="guard" /><circle cx="835.0" cy="678.2" r="1.8" class="guard" /><circle cx="835.9" cy="685.0" r="1.8" class="guard" /><circle cx="829.5" cy="682.4" r="1.8" class="guard" /><circle cx="919.2" cy="744.1" r="1.8" class="guard" /><circle cx="912.3" cy="744.2" r="1.8" class="guard" /><circle cx="915.7" cy="738.2" r="1.8" class="guard" /><circle cx="682.2" cy="687.7" r="1.8" class="guard" /><circle cx="683.0" cy="680.9" r="1.8" class="guard" /><circle cx="688.5" cy="685.0" r="1.8" class="guard" />
      <circle cx="678.4" cy="684.9" r="2.7" class="cache" /><circle cx="734.0" cy="636.1" r="2.7" class="cache" /><circle cx="737.1" cy="696.5" r="2.7" class="cache" /><circle cx="913.2" cy="687.4" r="2.7" class="cache" />
      <rect x="806.8" y="592.1" width="6" height="4" class="crossing" /><rect x="788.4" y="776.6" width="6" height="4" class="crossing" />
      <circle cx="740.1" cy="569.8" r="5" class="camp"><title>campfire</title></circle>
      <path d="M 913.6 801.2 L 919.6 807.2 L 913.6 813.2 L 907.6 807.2 Z" class="objective"><title>objective</title></path>
    </g>
    <g class="panel">
      <rect x="24" y="884" width="508" height="378" rx="8" class="panel-bg" />
      <text x="40" y="904" class="panel-title">5. seed 2328209513 · mapq1:310b6e14</text>
      <text x="40" y="922" class="quality">TF 0.83 · RC 0.94 · RR 0.91 · PS 0.94 · LL 0.78 · CO 0.93 · NV 0.56</text>
      <rect x="130" y="932" width="296" height="296" class="map-bg" />
      <g class="grid"><path d="M 130.0 932.0 V 1228.0 M 130.0 932.0 H 426.0" /><path d="M 189.2 932.0 V 1228.0 M 130.0 991.2 H 426.0" /><path d="M 248.4 932.0 V 1228.0 M 130.0 1050.4 H 426.0" /><path d="M 307.6 932.0 V 1228.0 M 130.0 1109.6 H 426.0" /><path d="M 366.8 932.0 V 1228.0 M 130.0 1168.8 H 426.0" /><path d="M 426.0 932.0 V 1228.0 M 130.0 1228.0 H 426.0" /></g>
      <line x1="295.0" y1="932.0" x2="265.4" y2="1228.0" class="river" />
      <polyline points="389.0,1019.7 387.5,1023.2 385.9,1026.7 384.4,1030.2 382.9,1033.7 381.3,1037.2 379.8,1040.8 378.3,1044.3 376.7,1047.8 375.2,1051.3" class="road road-major" /><polyline points="375.2,1051.3 377.2,1054.5 379.1,1057.7 381.1,1060.9 383.0,1064.0 385.0,1067.2 387.0,1070.4 388.9,1073.6 390.9,1076.8 392.9,1080.0 392.9,1083.8 392.9,1087.7 392.9,1091.5 392.9,1095.3 392.9,1099.1 392.9,1103.0 392.9,1106.8 392.9,1110.6 392.9,1114.5 392.9,1118.3 392.9,1122.1 392.9,1125.9 392.9,1129.8 392.9,1133.6 392.9,1137.4 389.0,1137.9 385.2,1138.4 381.3,1138.9 377.5,1139.4 373.6,1139.9 369.8,1140.4 366.0,1140.9 362.1,1141.4 358.3,1141.8 354.4,1142.3 350.6,1142.8 346.7,1143.3 342.9,1143.8 342.4,1139.9 342.0,1136.1 341.5,1132.2 341.0,1128.3 340.5,1124.4 340.1,1120.6 339.6,1116.7 339.1,1112.8 338.6,1108.9 338.2,1105.1 337.7,1101.2 337.2,1097.3 336.8,1093.4 336.3,1089.6 335.8,1085.7 335.3,1081.8 334.9,1077.9 334.4,1074.1 333.9,1070.2 333.5,1066.3 333.0,1062.4 332.5,1058.5 332.0,1054.7 328.1,1054.4 324.2,1054.2 320.3,1054.0 316.3,1053.8 312.4,1053.5 308.5,1053.3 304.5,1053.1 300.6,1052.9 296.7,1052.6 297.1,1048.7 297.5,1044.7 297.9,1040.8 298.2,1036.8 298.6,1032.9 299.0,1028.9 299.4,1025.0 299.8,1021.0 300.2,1017.1 300.6,1013.1 301.0,1009.2 301.4,1005.2 301.8,1001.3 302.2,997.3 302.6,993.3 303.0,989.4 303.4,985.4 300.0,985.1 296.6,984.8 293.2,984.4 289.8,984.1" class="road road-major" /><polyline points="271.4,1167.9 268.1,1167.2 264.7,1166.4 261.4,1165.6 258.0,1164.8 256.2,1161.6 254.3,1158.4 252.5,1155.3 250.6,1152.1 248.8,1148.9 246.9,1145.7 245.1,1142.5 243.2,1139.4 241.4,1136.2 239.5,1133.0 237.7,1129.8 235.8,1126.6 234.0,1123.5 230.5,1122.1 227.1,1120.8 223.7,1119.4 220.3,1118.1 216.8,1116.8 213.4,1115.4 210.0,1114.1 206.6,1112.7 203.1,1111.4 199.7,1110.1 196.3,1108.7 193.0,1108.7 189.6,1108.7 186.3,1108.7 183.0,1108.7" class="road road-major" /><polyline points="183.0,1108.7 179.7,1108.7 176.4,1108.7 173.1,1108.7 169.8,1108.7 169.4,1112.7 169.0,1116.6 168.6,1120.6 168.2,1124.5 167.8,1128.5 167.4,1132.5 167.1,1136.4 166.7,1140.4 166.3,1144.3 165.9,1148.3 165.5,1152.2 165.1,1156.2 164.7,1160.2 164.3,1164.1 164.0,1168.1 163.6,1172.0 163.2,1176.0 162.8,1179.9 162.4,1183.9 162.0,1187.9 161.6,1191.8 161.2,1195.8" class="road road-major" /><polyline points="395.1,1155.1 391.6,1154.0 388.1,1152.9 384.7,1151.9 381.2,1150.8 377.7,1149.7 374.3,1148.6 370.8,1147.5 367.3,1146.4 363.7,1147.1 360.1,1147.8 356.4,1148.5 352.5,1147.9 348.7,1147.4 344.8,1146.8 340.9,1146.3 337.1,1145.8 333.2,1145.2 329.3,1144.7 325.4,1144.1 321.6,1143.6 317.7,1143.0 313.8,1142.5 310.0,1141.9 306.1,1141.4 302.2,1140.8 298.3,1140.3 294.5,1139.8 290.6,1139.2 286.7,1138.7 286.4,1142.2 286.0,1145.8 285.7,1149.4 285.3,1153.0 284.9,1156.6 284.6,1160.2 284.2,1163.8 283.9,1167.4 280.7,1167.5 277.6,1167.7 274.5,1167.8 271.4,1167.9" class="road road-minor" /><polyline points="289.8,984.1 292.9,984.4 295.9,984.7 299.0,985.0 302.1,985.3 301.7,989.2 301.3,993.1 300.9,996.9 300.5,1000.8 300.1,1004.7 299.7,1008.6 299.4,1012.4 299.0,1016.3 298.6,1020.2 298.2,1024.0 297.8,1027.9 297.4,1031.8 297.0,1035.7 296.6,1039.5 296.3,1043.4 295.9,1047.3 295.5,1051.2 295.1,1055.0 294.7,1058.9 294.3,1062.8 293.9,1066.7 293.5,1070.5 293.2,1074.4 292.8,1078.3 292.4,1082.2 292.0,1086.0 291.6,1089.9 291.2,1093.8 290.8,1097.6 290.4,1101.5 290.1,1105.4 289.7,1109.3 289.3,1113.1 288.9,1117.0 288.5,1120.9 288.1,1124.8 287.7,1128.6 287.3,1132.5 287.0,1136.4 286.6,1140.3 286.2,1144.1 285.8,1148.0 285.4,1151.9 285.0,1155.8 284.6,1159.6 284.2,1163.5 283.9,1167.4 280.7,1167.5 277.6,1167.7 274.5,1167.8 271.4,1167.9" class="road road-minor" />
      <rect x="371.7" y="1047.8" width="7" height="7" class="settlement"><title>forest-village</title></rect><rect x="391.6" y="1151.6" width="7" height="7" class="settlement"><title>outlaw-hamlet</title></rect><rect x="179.5" y="1105.2" width="7" height="7" class="settlement"><title>sheriff-post</title></rect>
      <circle cx="165.2" cy="1195.8" r="1.8" class="guard" /><circle cx="159.3" cy="1199.2" r="1.8" class="guard" /><circle cx="159.3" cy="1192.3" r="1.8" class="guard" /><circle cx="299.9" cy="992.0" r="1.8" class="guard" /><circle cx="297.2" cy="985.6" r="1.8" class="guard" /><circle cx="304.1" cy="986.5" r="1.8" class="guard" /><circle cx="257.0" cy="1163.0" r="1.8" class="guard" /><circle cx="263.6" cy="1161.2" r="1.8" class="guard" /><circle cx="261.9" cy="1167.8" r="1.8" class="guard" /><circle cx="296.0" cy="1100.8" r="1.8" class="guard" /><circle cx="296.9" cy="1107.6" r="1.8" class="guard" /><circle cx="290.6" cy="1105.0" r="1.8" class="guard" />
      <circle cx="214.1" cy="1077.0" r="2.7" class="cache" /><circle cx="158.6" cy="1028.9" r="2.7" class="cache" /><circle cx="330.7" cy="966.8" r="2.7" class="cache" /><circle cx="221.4" cy="969.7" r="2.7" class="cache" />
      <rect x="286.8" y="982.1" width="6" height="4" class="crossing" /><rect x="268.4" y="1165.9" width="6" height="4" class="crossing" />
      <circle cx="389.0" cy="1019.7" r="5" class="camp"><title>campfire</title></circle>
      <path d="M 161.2 1189.8 L 167.2 1195.8 L 161.2 1201.8 L 155.2 1195.8 Z" class="objective"><title>objective</title></path>
    </g>
    <g class="panel">
      <rect x="544" y="884" width="508" height="378" rx="8" class="panel-bg" />
      <text x="560" y="904" class="panel-title">6. seed 934757807 · mapq1:2cef80ca</text>
      <text x="560" y="922" class="quality">TF 0.83 · RC 0.98 · RR 0.86 · PS 0.91 · LL 0.60 · CO 1.00 · NV 0.53</text>
      <rect x="650" y="932" width="296" height="296" class="map-bg" />
      <g class="grid"><path d="M 650.0 932.0 V 1228.0 M 650.0 932.0 H 946.0" /><path d="M 709.2 932.0 V 1228.0 M 650.0 991.2 H 946.0" /><path d="M 768.4 932.0 V 1228.0 M 650.0 1050.4 H 946.0" /><path d="M 827.6 932.0 V 1228.0 M 650.0 1109.6 H 946.0" /><path d="M 886.8 932.0 V 1228.0 M 650.0 1168.8 H 946.0" /><path d="M 946.0 932.0 V 1228.0 M 650.0 1228.0 H 946.0" /></g>
      <line x1="815.0" y1="932.0" x2="785.4" y2="1228.0" class="river" />
      <polyline points="688.9,1194.8 692.8,1194.6 696.7,1194.4 700.6,1194.2 704.5,1194.0 708.4,1193.7 712.3,1193.5 716.2,1193.3 720.2,1193.1 724.1,1192.9 728.0,1192.6 731.9,1192.4 735.8,1192.2 739.7,1192.0 743.6,1191.8 747.5,1191.5 751.4,1191.3 755.3,1191.1 759.3,1190.9 763.2,1190.7 767.1,1190.4" class="road road-major" /><polyline points="767.1,1190.4 769.8,1191.5 772.5,1192.5 775.1,1193.5 775.5,1190.1 775.8,1186.6 776.2,1183.2 776.5,1179.7 776.9,1176.3 777.2,1172.8 780.6,1173.2 784.0,1173.5 787.4,1173.9 790.8,1174.2" class="road road-major" /><polyline points="805.8,1023.9 809.2,1024.3 812.6,1024.6 816.0,1024.9 819.4,1025.3 819.0,1029.2 818.6,1033.1 818.2,1037.0 817.8,1040.9 817.4,1044.8 817.1,1048.7 816.7,1052.6 820.6,1052.9 824.5,1053.1 828.5,1053.3 832.4,1053.5 836.3,1053.8 840.3,1054.0 844.2,1054.2 848.1,1054.4 852.0,1054.7 852.5,1058.5 853.0,1062.4 853.5,1066.3 853.9,1070.2 854.4,1074.1 854.9,1077.9 855.3,1081.8 855.8,1085.7 856.3,1089.6 856.8,1093.4 857.2,1097.3 857.7,1101.2 858.2,1105.1 858.6,1108.9 859.1,1112.8 859.6,1116.7 860.1,1120.6 860.5,1124.4 861.0,1128.3 861.5,1132.2 862.0,1136.1 862.4,1139.9 862.9,1143.8 866.7,1143.3 870.6,1142.8 874.4,1142.3 878.3,1141.8 882.1,1141.4 886.0,1140.9 889.8,1140.4 893.6,1139.9 897.5,1139.4 901.3,1138.9 905.2,1138.4 909.0,1137.9 912.9,1137.4 912.6,1133.8 912.3,1130.3 912.0,1126.7 911.8,1123.1 911.5,1119.5 911.2,1115.9 910.9,1112.3 910.7,1108.7 910.0,1104.8 909.3,1100.9 908.7,1097.0 908.0,1093.1 907.3,1089.2 906.7,1085.3 906.0,1081.4 905.4,1077.5 904.7,1073.6 904.0,1069.7 903.4,1065.8 902.7,1061.9 902.0,1058.0 901.4,1054.1 900.7,1050.2 900.1,1046.3 899.4,1042.4 898.7,1038.5 898.1,1034.6 897.4,1030.7 896.7,1026.8 896.1,1022.9 895.4,1019.0 894.8,1015.1 894.1,1011.2 893.4,1007.3 892.8,1003.3 892.1,999.4 891.4,995.5 890.8,991.6" class="road road-major" /><polyline points="890.8,991.6 893.5,988.9 896.2,986.1 899.0,983.4 901.7,980.6 904.5,977.8 907.2,975.1 909.9,972.3 912.7,969.6" class="road road-major" /><polyline points="711.9,985.0 715.5,986.5 719.1,988.0 722.7,989.5 726.3,991.0 729.9,992.5 733.5,994.0 737.1,995.5 740.8,997.0 744.4,998.5 748.0,1000.0 751.6,1001.5 755.2,1003.0 758.8,1004.5 762.4,1006.0 766.1,1007.5 769.7,1009.0 773.3,1010.5 776.9,1012.0 780.5,1013.4 784.1,1014.9 787.7,1016.4 791.4,1017.9 795.0,1019.4 798.6,1020.9 802.2,1022.4 805.8,1023.9" class="road road-minor" /><polyline points="805.8,1023.9 808.9,1024.2 811.9,1024.5 815.0,1024.8 818.1,1025.2 817.7,1029.1 817.3,1033.1 816.9,1037.0 816.5,1041.0 816.1,1044.9 815.7,1048.9 815.3,1052.8 814.9,1056.8 814.5,1060.7 814.1,1064.7 813.7,1068.6 813.3,1072.6 812.9,1076.6 812.5,1080.5 812.1,1084.5 811.8,1088.4 811.4,1092.4 811.0,1096.3 810.6,1100.3 810.2,1104.2 809.8,1108.2 809.4,1112.1 809.0,1116.1 808.6,1120.1 808.2,1124.0 807.8,1128.0 807.4,1131.9 807.0,1135.9 806.6,1139.8 806.2,1143.8 805.8,1147.7 805.4,1151.7 805.0,1155.6 804.6,1159.6 804.2,1163.6 803.8,1167.5 803.5,1171.5 803.1,1175.4 800.0,1175.1 796.9,1174.8 793.9,1174.5 790.8,1174.2" class="road road-minor" />
      <rect x="763.6" y="1186.9" width="7" height="7" class="settlement"><title>forest-village</title></rect><rect x="708.4" y="981.5" width="7" height="7" class="settlement"><title>outlaw-hamlet</title></rect><rect x="887.3" y="988.1" width="7" height="7" class="settlement"><title>sheriff-post</title></rect>
      <circle cx="916.6" cy="969.6" r="1.8" class="guard" /><circle cx="910.7" cy="973.0" r="1.8" class="guard" /><circle cx="910.7" cy="966.1" r="1.8" class="guard" /><circle cx="815.9" cy="1031.8" r="1.8" class="guard" /><circle cx="813.3" cy="1025.5" r="1.8" class="guard" /><circle cx="820.1" cy="1026.4" r="1.8" class="guard" /><circle cx="776.3" cy="1169.2" r="1.8" class="guard" /><circle cx="783.0" cy="1167.4" r="1.8" class="guard" /><circle cx="781.2" cy="1174.1" r="1.8" class="guard" /><circle cx="810.3" cy="1070.9" r="1.8" class="guard" /><circle cx="811.2" cy="1077.7" r="1.8" class="guard" /><circle cx="804.9" cy="1075.1" r="1.8" class="guard" /><circle cx="691.4" cy="973.7" r="1.8" class="guard" /><circle cx="684.5" cy="973.7" r="1.8" class="guard" /><circle cx="687.9" cy="967.7" r="1.8" class="guard" /><circle cx="789.8" cy="1147.2" r="1.8" class="guard" /><circle cx="790.7" cy="1140.3" r="1.8" class="guard" /><circle cx="796.2" cy="1144.5" r="1.8" class="guard" /><circle cx="741.7" cy="956.7" r="1.8" class="guard" /><circle cx="748.4" cy="958.4" r="1.8" class="guard" /><circle cx="743.6" cy="963.3" r="1.8" class="guard" />
      <circle cx="689.0" cy="969.8" r="2.7" class="cache" /><circle cx="917.1" cy="1020.6" r="2.7" class="cache" /><circle cx="907.5" cy="1199.8" r="2.7" class="cache" /><circle cx="856.9" cy="1189.0" r="2.7" class="cache" />
      <rect x="802.8" y="1021.9" width="6" height="4" class="crossing" /><rect x="787.8" y="1172.2" width="6" height="4" class="crossing" />
      <circle cx="688.9" cy="1194.8" r="5" class="camp"><title>campfire</title></circle>
      <path d="M 912.7 963.6 L 918.7 969.6 L 912.7 975.6 L 906.7 969.6 Z" class="objective"><title>objective</title></path>
    </g>
    <g class="panel">
      <rect x="24" y="1274" width="508" height="378" rx="8" class="panel-bg" />
      <text x="40" y="1294" class="panel-title">7. seed 448674900 · mapq1:c7b7caf8</text>
      <text x="40" y="1312" class="quality">TF 0.83 · RC 0.93 · RR 0.91 · PS 0.94 · LL 0.69 · CO 0.93 · NV 0.72</text>
      <rect x="130" y="1322" width="296" height="296" class="map-bg" />
      <g class="grid"><path d="M 130.0 1322.0 V 1618.0 M 130.0 1322.0 H 426.0" /><path d="M 189.2 1322.0 V 1618.0 M 130.0 1381.2 H 426.0" /><path d="M 248.4 1322.0 V 1618.0 M 130.0 1440.4 H 426.0" /><path d="M 307.6 1322.0 V 1618.0 M 130.0 1499.6 H 426.0" /><path d="M 366.8 1322.0 V 1618.0 M 130.0 1558.8 H 426.0" /><path d="M 426.0 1322.0 V 1618.0 M 130.0 1618.0 H 426.0" /></g>
      <line x1="295.0" y1="1322.0" x2="265.4" y2="1618.0" class="river" />
      <polyline points="161.5,1464.4 162.4,1468.2 163.3,1472.0 164.2,1475.8 165.2,1479.6 166.1,1483.5 167.0,1487.3 167.9,1491.1 168.8,1494.9 169.8,1498.7 169.6,1494.9 169.5,1491.1 169.3,1487.2 169.2,1483.4 169.0,1479.6 168.9,1475.7 168.7,1471.9 168.6,1468.1 168.4,1464.3 168.3,1460.4 168.1,1456.6 168.0,1452.8 167.8,1448.9 167.7,1445.1 167.6,1441.3 170.9,1441.3 174.2,1441.3 177.5,1441.3 180.8,1441.3" class="road road-major" /><polyline points="180.8,1441.3 180.8,1438.0 180.8,1434.7 180.8,1431.3 180.8,1428.0 181.8,1424.4 182.8,1420.8 183.8,1417.2 184.8,1413.6 185.8,1410.0 186.8,1406.3 187.8,1402.7 188.8,1399.1 189.8,1395.5 190.8,1391.9 191.9,1388.3 195.2,1389.6 198.5,1391.0 201.9,1392.3 205.2,1393.7 208.5,1395.0 211.9,1396.4 215.2,1397.7 218.6,1399.1 221.9,1400.4 225.6,1401.5 229.4,1402.5 233.1,1403.5 236.9,1404.5 240.6,1405.5 244.3,1406.5 248.1,1407.5 251.8,1408.5 255.5,1409.5 259.3,1410.6 263.0,1411.6 266.8,1412.6 270.5,1413.6 274.2,1414.6 278.0,1415.6 281.7,1416.6 285.4,1417.6" class="road road-major" /><polyline points="270.8,1564.1 274.2,1564.4 277.6,1564.7 281.0,1565.1 284.4,1565.4 284.8,1561.5 285.2,1557.6 285.6,1553.7 286.0,1549.7 286.3,1545.8 286.7,1541.9 287.1,1538.0 287.5,1534.1 287.9,1530.2 288.3,1526.2 288.7,1522.3 289.1,1518.4 289.5,1514.5 289.9,1510.6 290.3,1506.6 290.7,1502.7 291.0,1498.8 291.4,1494.9 291.8,1491.0 292.2,1487.0 292.6,1483.1 293.0,1479.2 293.4,1475.3 293.8,1471.4 297.6,1471.2 301.4,1471.1 305.1,1471.0 308.9,1470.9 312.7,1470.7 316.5,1470.6 320.3,1470.5 324.1,1470.4 327.9,1470.2 331.6,1470.1 335.4,1470.0 335.9,1473.8 336.3,1477.5 336.7,1481.3 337.2,1485.0 337.6,1488.8 338.1,1492.5 338.5,1496.3 338.9,1500.0 339.4,1503.8 339.8,1507.5 340.3,1511.3 340.7,1515.0 341.1,1518.8 341.6,1522.6 342.0,1526.3 342.5,1530.1 342.9,1533.8 346.4,1533.2 349.9,1532.5 353.4,1531.9 356.9,1531.2 360.4,1530.6 363.9,1529.9 367.3,1529.2 370.4,1531.0 373.5,1532.8 376.6,1534.5 379.7,1536.3 382.8,1538.1 385.8,1539.8 388.9,1541.6 392.0,1543.3 395.1,1545.1" class="road road-major" /><polyline points="395.1,1545.1 395.5,1548.8 396.0,1552.6 396.4,1556.3 396.9,1560.0 397.3,1563.7 397.7,1567.5 398.2,1571.2 398.6,1574.9 399.1,1578.6" class="road road-major" /><polyline points="191.9,1375.0 195.5,1376.7 199.1,1378.3 202.7,1379.9 206.2,1381.6 209.8,1383.2 213.4,1384.9 217.0,1386.5 220.6,1388.1 224.2,1389.8 227.8,1391.4 231.4,1393.0 235.0,1394.7 238.6,1396.3 242.2,1398.0 245.8,1399.6 249.4,1401.2 253.0,1402.9 256.6,1404.5 260.2,1406.2 263.8,1407.8 267.4,1409.4 271.0,1411.1 274.6,1412.7 278.2,1414.4 281.8,1416.0 285.4,1417.6" class="road road-minor" /><polyline points="285.4,1417.6 288.5,1417.9 291.6,1418.3 294.6,1418.6 297.7,1418.9 297.3,1422.7 296.9,1426.6 296.6,1430.4 296.2,1434.3 295.8,1438.1 295.4,1442.0 295.0,1445.8 294.6,1449.7 294.2,1453.5 293.9,1457.4 293.5,1461.3 293.1,1465.1 292.7,1469.0 292.3,1472.8 291.9,1476.7 291.5,1480.5 291.2,1484.4 290.8,1488.2 290.4,1492.1 290.0,1495.9 289.6,1499.8 289.2,1503.6 288.8,1507.5 288.5,1511.3 288.1,1515.2 287.7,1519.1 287.3,1522.9 286.9,1526.8 286.5,1530.6 286.1,1534.5 285.8,1538.3 285.4,1542.2 285.0,1546.0 284.6,1549.9 284.2,1553.7 283.8,1557.6 283.5,1561.4 283.1,1565.3 280.0,1565.0 276.9,1564.7 273.9,1564.4 270.8,1564.1" class="road road-minor" />
      <rect x="177.3" y="1437.8" width="7" height="7" class="settlement"><title>forest-village</title></rect><rect x="188.4" y="1371.5" width="7" height="7" class="settlement"><title>outlaw-hamlet</title></rect><rect x="391.6" y="1541.6" width="7" height="7" class="settlement"><title>sheriff-post</title></rect>
      <circle cx="403.1" cy="1578.6" r="1.8" class="guard" /><circle cx="397.1" cy="1582.1" r="1.8" class="guard" /><circle cx="397.1" cy="1575.2" r="1.8" class="guard" /><circle cx="295.5" cy="1425.6" r="1.8" class="guard" /><circle cx="292.9" cy="1419.2" r="1.8" class="guard" /><circle cx="299.7" cy="1420.1" r="1.8" class="guard" /><circle cx="256.4" cy="1559.1" r="1.8" class="guard" /><circle cx="263.0" cy="1557.3" r="1.8" class="guard" /><circle cx="261.2" cy="1563.9" r="1.8" class="guard" /><circle cx="288.4" cy="1511.2" r="1.8" class="guard" /><circle cx="289.3" cy="1518.0" r="1.8" class="guard" /><circle cx="283.0" cy="1515.4" r="1.8" class="guard" /><circle cx="228.7" cy="1408.4" r="1.8" class="guard" /><circle cx="221.8" cy="1408.4" r="1.8" class="guard" /><circle cx="225.2" cy="1402.4" r="1.8" class="guard" />
      <circle cx="214.5" cy="1408.2" r="2.7" class="cache" /><circle cx="332.8" cy="1469.3" r="2.7" class="cache" /><circle cx="163.3" cy="1417.0" r="2.7" class="cache" /><circle cx="331.4" cy="1353.3" r="2.7" class="cache" />
      <rect x="282.4" y="1415.6" width="6" height="4" class="crossing" /><rect x="267.8" y="1562.1" width="6" height="4" class="crossing" />
      <circle cx="161.5" cy="1464.4" r="5" class="camp"><title>campfire</title></circle>
      <path d="M 399.1 1572.6 L 405.1 1578.6 L 399.1 1584.6 L 393.1 1578.6 Z" class="objective"><title>objective</title></path>
    </g>
    <g class="panel">
      <rect x="544" y="1274" width="508" height="378" rx="8" class="panel-bg" />
      <text x="560" y="1294" class="panel-title">8. seed 3664039292 · mapq1:03c41bad</text>
      <text x="560" y="1312" class="quality">TF 0.83 · RC 0.95 · RR 0.83 · PS 0.86 · LL 0.65 · CO 0.92 · NV 0.65</text>
      <rect x="650" y="1322" width="296" height="296" class="map-bg" />
      <g class="grid"><path d="M 650.0 1322.0 V 1618.0 M 650.0 1322.0 H 946.0" /><path d="M 709.2 1322.0 V 1618.0 M 650.0 1381.2 H 946.0" /><path d="M 768.4 1322.0 V 1618.0 M 650.0 1440.4 H 946.0" /><path d="M 827.6 1322.0 V 1618.0 M 650.0 1499.6 H 946.0" /><path d="M 886.8 1322.0 V 1618.0 M 650.0 1558.8 H 946.0" /><path d="M 946.0 1322.0 V 1618.0 M 650.0 1618.0 H 946.0" /></g>
      <line x1="815.0" y1="1322.0" x2="785.4" y2="1618.0" class="river" />
      <polyline points="744.1,1357.1 747.3,1359.3 750.4,1361.6 753.5,1363.8 756.7,1366.1 759.8,1368.3 763.0,1370.5 766.1,1372.8 769.3,1375.0" class="road road-major" /><polyline points="769.3,1375.0 771.2,1378.4 773.1,1381.8 774.9,1385.2 776.8,1388.6 778.7,1391.9 780.6,1395.3 782.5,1398.7 784.4,1402.1 786.3,1405.5 788.2,1408.9 790.0,1412.2 791.9,1415.6 795.3,1416.0 798.7,1416.3 802.1,1416.6 805.5,1417.0" class="road road-major" /><polyline points="794.3,1529.4 797.7,1529.8 801.1,1530.1 804.5,1530.4 807.8,1530.8 811.8,1531.0 815.7,1531.2 819.6,1531.4 823.6,1531.6 827.5,1531.9 831.4,1532.1 835.4,1532.3 839.3,1532.5 843.2,1532.7 847.2,1532.9 851.1,1533.2 855.0,1533.4 859.0,1533.6 862.9,1533.8 866.4,1533.2 869.9,1532.5 873.4,1531.9 876.9,1531.2 880.4,1530.6 883.9,1529.9 887.3,1529.2 890.4,1531.0 893.5,1532.8 896.6,1534.5 899.7,1536.3 902.8,1538.1 905.8,1539.8 908.9,1541.6 912.0,1543.3 915.1,1545.1" class="road road-major" /><polyline points="915.1,1545.1 914.6,1548.9 914.2,1552.6 913.8,1556.4 913.3,1560.1 912.9,1563.9 912.4,1567.6 912.0,1571.4 911.6,1575.2 911.1,1578.9" class="road road-major" /><polyline points="705.2,1576.0 708.5,1576.0 711.9,1576.0 715.2,1576.0 718.5,1576.0 719.4,1572.3 720.4,1568.6 721.3,1564.9 722.3,1561.1 723.2,1557.4 724.1,1553.7 725.1,1550.0 726.0,1546.2 727.0,1542.5 727.9,1538.8 728.9,1535.1 729.8,1531.3 730.8,1527.6 731.7,1523.9 735.6,1524.2 739.5,1524.6 743.4,1524.9 747.3,1525.3 751.3,1525.6 755.2,1526.0 759.1,1526.3 763.0,1526.7 766.9,1527.0 770.8,1527.4 774.7,1527.7 778.6,1528.0 782.5,1528.4 786.4,1528.7 790.4,1529.1 794.3,1529.4" class="road road-minor" /><polyline points="805.5,1417.0 808.6,1417.3 811.6,1417.6 814.7,1417.9 817.8,1418.2 817.4,1422.2 817.0,1426.1 816.6,1430.0 816.2,1434.0 815.8,1437.9 815.4,1441.9 815.0,1445.8 814.6,1449.8 814.2,1453.7 813.8,1457.7 813.4,1461.6 813.0,1465.5 812.6,1469.5 812.3,1473.4 811.9,1477.4 811.5,1481.3 811.1,1485.3 810.7,1489.2 810.3,1493.2 809.9,1497.1 809.5,1501.0 809.1,1505.0 808.7,1508.9 808.3,1512.9 807.9,1516.8 807.5,1520.8 807.1,1524.7 806.7,1528.7 803.6,1528.9 800.5,1529.0 797.4,1529.2 794.3,1529.4" class="road road-minor" />
      <rect x="765.8" y="1371.5" width="7" height="7" class="settlement"><title>forest-village</title></rect><rect x="701.7" y="1572.5" width="7" height="7" class="settlement"><title>outlaw-hamlet</title></rect><rect x="911.6" y="1541.6" width="7" height="7" class="settlement"><title>sheriff-post</title></rect>
      <circle cx="915.1" cy="1578.9" r="1.8" class="guard" /><circle cx="909.1" cy="1582.4" r="1.8" class="guard" /><circle cx="909.1" cy="1575.5" r="1.8" class="guard" /><circle cx="815.6" cy="1424.9" r="1.8" class="guard" /><circle cx="813.0" cy="1418.5" r="1.8" class="guard" /><circle cx="819.8" cy="1419.4" r="1.8" class="guard" /><circle cx="779.8" cy="1524.4" r="1.8" class="guard" /><circle cx="786.5" cy="1522.6" r="1.8" class="guard" /><circle cx="784.7" cy="1529.3" r="1.8" class="guard" /><circle cx="835.7" cy="1457.7" r="1.8" class="guard" /><circle cx="836.7" cy="1464.5" r="1.8" class="guard" /><circle cx="830.3" cy="1461.9" r="1.8" class="guard" /><circle cx="857.6" cy="1527.1" r="1.8" class="guard" /><circle cx="850.8" cy="1527.1" r="1.8" class="guard" /><circle cx="854.2" cy="1521.2" r="1.8" class="guard" />
      <circle cx="684.9" cy="1472.8" r="2.7" class="cache" /><circle cx="734.4" cy="1418.5" r="2.7" class="cache" /><circle cx="918.1" cy="1473.2" r="2.7" class="cache" /><circle cx="685.9" cy="1418.6" r="2.7" class="cache" />
      <rect x="802.5" y="1415.0" width="6" height="4" class="crossing" /><rect x="791.3" y="1527.4" width="6" height="4" class="crossing" />
      <circle cx="744.1" cy="1357.1" r="5" class="camp"><title>campfire</title></circle>
      <path d="M 911.1 1572.9 L 917.1 1578.9 L 911.1 1584.9 L 905.1 1578.9 Z" class="objective"><title>objective</title></path>
    </g>
</svg>
