<?xml version="1.0" encoding="UTF-8"?>
<svg xmlns="http://www.w3.org/2000/svg" width="1088" height="1716" viewBox="0 0 1088 1716">
  <title>The People&apos;s Purse regional map curation contact sheet</title>
  <style>
    .sheet-bg { fill: #0d2118; }
    .sheet-title { fill: #f7e8b2; font: 700 26px Georgia, serif; }
    .sheet-meta, .legend { fill: #bcd0bd; font: 12px ui-monospace, monospace; }
    .panel-bg { fill: #173629; stroke: #54755a; stroke-width: 1; }
    .panel-title { fill: #f7e8b2; font: 700 12px ui-monospace, monospace; }
    .quality { fill: #bcd0bd; font: 10px ui-monospace, monospace; }
    .map-bg { fill: #365c39; stroke: #86a16f; stroke-width: 1; }
    .grid path { fill: none; stroke: #9bb58a; stroke-opacity: .2; stroke-width: .7; }
    .river { stroke: #4f9fbd; stroke-width: 15; stroke-linecap: round; opacity: .8; }
    .road { fill: none; stroke: #c5ad78; stroke-linecap: round; stroke-linejoin: round; }
    .road-major { stroke-width: 3.8; }
    .road-minor { stroke-width: 2.4; stroke-dasharray: 4 2; }
    .settlement { fill: #d08445; stroke: #f1c47a; stroke-width: 1; }
    .guard { fill: #cf4c3f; stroke: #6d1f1a; stroke-width: .7; }
    .cache { fill: #efca49; stroke: #5e4a0b; stroke-width: .8; }
    .crossing { fill: #e6e0c0; stroke: #554e39; stroke-width: .8; }
    .camp { fill: #ff9f3f; stroke: #fff0b2; stroke-width: 1.5; }
    .objective { fill: #e44737; stroke: #ffe1b5; stroke-width: 1.2; }
  </style>
  <rect width="1088" height="1716" class="sheet-bg" />
  <text x="24" y="34" class="sheet-title">The People&apos;s Purse · procedural map curation</text>
  <text x="24" y="57" class="sheet-meta">regional-map-baker@1 · sha256:4f162980af3e257c18ad63b5a1864d8ba8cf542e95d3fd4b21bfcbcd1040510f</text>
  <text x="24" y="78" class="legend">● camp · ◆ objective · ▬ crossing · ■ settlement · red guard · gold cache · tan road</text>
  
    <g class="panel">
      <rect x="24" y="104" width="508" height="378" rx="8" class="panel-bg" />
      <text x="40" y="124" class="panel-title">1. cross-river · seed 3781482625 · mapq1:0389da89</text>
      <text x="40" y="142" class="quality">TF 0.83 · RC 0.84 · RR 0.64 · PS 0.83 · LL 0.65 · CO 0.89 · NV 0.61</text>
      <rect x="130" y="152" width="296" height="296" class="map-bg" />
      <g class="grid"><path d="M 130.0 152.0 V 448.0 M 130.0 152.0 H 426.0" /><path d="M 189.2 152.0 V 448.0 M 130.0 211.2 H 426.0" /><path d="M 248.4 152.0 V 448.0 M 130.0 270.4 H 426.0" /><path d="M 307.6 152.0 V 448.0 M 130.0 329.6 H 426.0" /><path d="M 366.8 152.0 V 448.0 M 130.0 388.8 H 426.0" /><path d="M 426.0 152.0 V 448.0 M 130.0 448.0 H 426.0" /></g>
      <line x1="295.0" y1="152.0" x2="265.4" y2="448.0" class="river" />
      <polyline points="395.8,247.8 394.9,251.7 394.0,255.5 393.1,259.4 392.3,263.3 391.4,267.1 390.5,271.0 389.6,274.8 388.8,278.7 387.9,282.5 387.0,286.4 386.1,290.2 385.3,294.1 384.4,297.9 383.5,301.8 382.7,305.6 381.8,309.5 380.9,313.3 380.0,317.2 379.2,321.0 378.3,324.9 377.4,328.7" class="road road-major" /><polyline points="377.4,328.7 377.4,332.0 377.4,335.3 377.4,338.7 377.4,342.0 374.3,344.0 371.1,345.9 368.0,347.9 364.9,349.9 361.7,351.9 358.6,353.9 355.4,355.9 352.3,357.9 349.2,359.8 346.0,361.8 342.9,363.8 339.4,365.7 336.0,367.6 332.6,369.5 329.1,371.4 325.7,373.3 322.2,375.2 318.8,377.1 315.3,379.0 311.9,380.9 308.4,382.8 305.0,384.7 301.5,386.6 298.1,388.5 294.7,390.4 291.2,392.3 287.8,394.2 284.3,396.1 280.9,395.8 277.5,395.4 274.1,395.1 270.7,394.8" class="road road-major" /><polyline points="270.7,394.8 267.3,394.4 263.9,394.1 260.5,393.7 257.1,393.4 257.5,389.7 257.9,385.9 258.3,382.2 258.6,378.5 259.0,374.7 259.4,371.0 259.8,367.3 260.1,363.5 260.5,359.8 260.9,356.1 257.2,354.8 253.5,353.5 249.8,352.2 246.1,350.9 242.3,349.6 238.6,348.3 234.9,347.0 231.2,345.7 227.5,344.3 223.8,343.0 220.1,341.7 216.4,340.4 212.7,339.1 209.0,337.8 205.3,336.5 201.6,335.2 197.8,333.9 194.1,332.6 190.4,331.3 186.7,330.0 183.0,328.7" class="road road-major" /><polyline points="183.0,328.7 182.2,325.0 181.4,321.3 180.6,317.5 179.8,313.8 179.1,310.1 178.3,306.4 177.5,302.6 176.7,298.9 175.9,295.2 175.1,291.5 174.3,287.7 173.5,284.0 172.7,280.3 171.9,276.5 171.1,272.8 170.3,269.1 169.5,265.4 168.7,261.6 167.9,257.9 167.2,254.2 166.4,250.5 165.6,246.7" class="road road-major" /><polyline points="377.4,328.7 377.4,325.4 377.4,322.1 377.4,318.8 377.4,315.5 375.7,312.0 374.0,308.5 372.3,305.1 370.6,301.6 368.9,298.1 367.2,294.6 365.4,291.2 363.7,287.7 362.0,284.2 360.3,280.8 358.6,277.3 356.9,273.8 355.2,270.3 351.3,269.9 347.5,269.4 343.6,268.9 339.8,268.4 335.9,268.0 332.0,267.5 330.8,263.9 329.5,260.3 328.2,256.7 326.9,253.1 325.6,249.5 324.3,245.9 323.1,242.3 321.8,238.7 320.5,235.1 319.2,231.5 317.9,228.0 316.6,224.4 315.3,220.8 314.1,217.2 312.8,213.6 311.5,210.0 310.2,206.4 308.9,202.8" class="road road-minor" /><polyline points="308.9,202.8 308.2,206.6 307.5,210.3 306.9,214.0 306.2,217.8 305.5,221.5 304.8,225.3 304.1,229.0 303.4,232.8 302.7,236.5 302.0,240.3 301.3,244.0 300.7,247.8 300.0,251.5 299.3,255.2 298.6,259.0 297.9,262.7 297.2,266.5 296.5,270.2 295.8,274.0 295.1,277.7 294.4,281.5 291.4,281.2 288.3,280.9 285.3,280.5 282.2,280.2" class="road road-minor" /><polyline points="282.2,280.2 279.1,279.9 276.1,279.6 273.0,279.3 269.9,279.0 269.5,283.0 269.1,286.9 268.7,290.9 268.3,294.8 267.9,298.8 265.4,301.5 262.8,304.2 260.2,306.9 257.6,309.6 255.0,312.3 252.4,315.0 249.8,317.7 247.2,320.4 244.6,323.1 242.0,325.8 239.4,328.5 236.8,331.3 234.2,334.0 231.6,336.7 227.9,336.1 224.2,335.4 220.4,334.8 216.7,334.2 212.9,333.6 209.2,333.0 205.5,332.4 201.7,331.8 198.0,331.2 194.2,330.6 190.5,329.9 186.8,329.3 183.0,328.7" class="road road-minor" />
      <rect x="373.9" y="325.2" width="7" height="7" class="settlement"><title>forest-village</title></rect><rect x="305.4" y="199.3" width="7" height="7" class="settlement"><title>outlaw-hamlet</title></rect><rect x="179.5" y="325.2" width="7" height="7" class="settlement"><title>sheriff-post</title></rect>
      <circle cx="169.5" cy="246.7" r="1.8" class="guard" /><circle cx="163.6" cy="250.2" r="1.8" class="guard" /><circle cx="163.6" cy="243.3" r="1.8" class="guard" /><circle cx="292.3" cy="288.2" r="1.8" class="guard" /><circle cx="289.6" cy="281.8" r="1.8" class="guard" /><circle cx="296.5" cy="282.7" r="1.8" class="guard" /><circle cx="256.3" cy="389.8" r="1.8" class="guard" /><circle cx="262.9" cy="388.0" r="1.8" class="guard" /><circle cx="261.2" cy="394.6" r="1.8" class="guard" /><circle cx="289.5" cy="234.0" r="1.8" class="guard" /><circle cx="290.4" cy="240.8" r="1.8" class="guard" /><circle cx="284.0" cy="238.2" r="1.8" class="guard" />
      <circle cx="227.1" cy="237.3" r="2.7" class="cache" /><circle cx="330.7" cy="360.1" r="2.7" class="cache" /><circle cx="279.7" cy="416.2" r="2.7" class="cache" /><circle cx="283.6" cy="358.7" r="2.7" class="cache" />
      <rect x="279.2" y="278.2" width="6" height="4" class="crossing" /><rect x="267.7" y="392.8" width="6" height="4" class="crossing" />
      <circle cx="397.1" cy="241.8" r="5" class="camp"><title>campfire</title></circle>
      <path d="M 165.6 240.7 L 171.6 246.7 L 165.6 252.7 L 159.6 246.7 Z" class="objective"><title>objective</title></path>
    </g>
    <g class="panel">
      <rect x="544" y="104" width="508" height="378" rx="8" class="panel-bg" />
      <text x="560" y="124" class="panel-title">2. central-expedition · seed 727511626 · mapq1:a8bf0026</text>
      <text x="560" y="142" class="quality">TF 0.83 · RC 1.00 · RR 0.82 · PS 0.97 · LL 0.73 · CO 0.96 · NV 0.51</text>
      <rect x="650" y="152" width="296" height="296" class="map-bg" />
      <g class="grid"><path d="M 650.0 152.0 V 448.0 M 650.0 152.0 H 946.0" /><path d="M 709.2 152.0 V 448.0 M 650.0 211.2 H 946.0" /><path d="M 768.4 152.0 V 448.0 M 650.0 270.4 H 946.0" /><path d="M 827.6 152.0 V 448.0 M 650.0 329.6 H 946.0" /><path d="M 886.8 152.0 V 448.0 M 650.0 388.8 H 946.0" /><path d="M 946.0 152.0 V 448.0 M 650.0 448.0 H 946.0" /></g>
      <line x1="815.0" y1="152.0" x2="785.4" y2="448.0" class="river" />
      <polyline points="735.0,244.0 731.8,244.8 728.7,245.6 725.6,246.4 722.5,247.2 719.4,248.1 718.6,251.9 717.8,255.7 717.0,259.6 716.2,263.4 715.5,267.3 714.7,271.1 713.9,274.9 713.1,278.8 712.4,282.6 711.6,286.5 710.8,290.3 710.0,294.1 709.2,298.0 708.5,301.8 707.7,305.7 706.9,309.5 706.1,313.4 705.3,317.2 704.6,321.0 703.8,324.9 703.0,328.7" class="road road-major" /><polyline points="703.0,328.7 706.5,330.2 709.9,331.6 713.4,333.1 716.9,334.5 720.3,336.0 723.8,337.4 727.3,338.9 730.7,340.3 734.2,341.8 737.7,343.2 741.1,344.7 744.6,346.1 748.1,347.6 751.5,349.0 755.0,350.5 758.5,351.6 762.1,352.7 765.6,353.8 769.2,354.9 772.7,356.0 776.2,357.1 779.8,358.2 783.3,359.3 786.9,360.4 790.4,361.5 793.9,362.6" class="road road-major" /><polyline points="793.9,362.6 797.3,363.0 800.7,363.3 804.1,363.6 807.5,364.0 809.4,360.5 811.3,357.1 813.3,353.7 815.2,350.2 817.1,346.8 819.0,343.4 820.9,340.0 822.8,336.5 824.7,333.1 826.6,329.7 828.5,326.2 830.4,322.8 832.3,319.4 834.3,315.9 836.2,312.5 838.1,309.1 840.0,305.6 841.9,302.2 843.8,298.8 845.7,295.3 847.6,291.9 849.5,288.5 851.4,285.1 853.3,281.6 857.1,280.7 861.0,279.7 864.8,278.8 868.6,277.9 872.4,276.9 876.2,276.0 880.0,275.0 883.8,274.1 887.6,273.2 891.4,272.2 895.2,271.3" class="road road-major" /><polyline points="895.2,271.3 896.1,275.0 897.0,278.8 897.9,282.6 898.8,286.3 899.7,290.1 900.6,293.8 901.5,297.6 902.5,301.3 903.4,305.1 904.3,308.9 905.2,312.6 906.1,316.4 907.0,320.1 907.9,323.9 908.8,327.6 909.7,331.4 910.6,335.2 911.5,338.9 912.4,342.7 913.3,346.4 914.3,350.2 915.2,353.9" class="road road-major" /><polyline points="703.0,328.7 703.1,332.6 703.2,336.4 703.3,340.3 703.5,344.2 703.6,348.0 703.7,351.9 703.8,355.8 703.9,359.6 704.0,363.5 704.1,367.4 704.2,371.2 704.3,375.1 704.5,379.0 704.6,382.8 704.7,386.7 704.8,390.6 704.9,394.4 705.0,398.3 705.1,402.2 705.2,406.0" class="road road-minor" /><polyline points="705.2,406.0 705.2,402.7 705.2,399.4 705.2,396.1 705.2,392.8 707.9,390.0 710.5,387.3 713.1,384.6 715.8,381.9 718.4,379.1 721.0,376.4 723.7,373.7 726.3,370.9 728.9,368.2 731.6,365.5 734.2,362.8 736.9,360.0 739.5,357.3 742.1,354.6 744.8,351.8 747.4,349.1 750.0,346.4 752.7,343.7 753.9,340.0 755.1,336.2 756.3,332.5 757.5,328.8 758.7,325.1 759.9,321.4 761.1,317.7 762.3,314.0 763.5,310.3 764.7,306.6 765.9,302.9 767.1,299.1 768.3,295.4 769.5,291.7 770.7,288.0 771.9,284.3 773.1,280.6 774.3,276.9 775.5,273.2 776.7,269.5 777.9,265.8 779.1,262.0 780.3,258.3 781.5,254.6 782.7,250.9 783.9,247.2 785.1,243.5 786.4,239.8 787.6,236.1 788.8,232.4 790.0,228.7 791.2,225.0 792.4,221.2 793.6,217.5 794.8,213.8 796.0,210.1 797.2,206.4 800.2,206.7 803.3,207.0 806.4,207.3 809.4,207.6" class="road road-minor" /><polyline points="809.4,207.6 812.7,209.0 815.9,210.4 819.2,211.8 822.4,213.2 825.7,214.7 828.9,216.1 830.5,219.5 832.0,222.9 833.5,226.3 835.1,229.8 836.6,233.2 838.2,236.6 839.7,240.1 841.3,243.5 842.8,246.9 844.3,250.3 845.9,253.8 847.4,257.2 849.0,260.6 850.5,264.1 852.0,267.5 856.0,267.8 859.9,268.2 863.8,268.5 867.7,268.9 871.7,269.2 875.6,269.6 879.5,269.9 883.4,270.2 887.3,270.6 891.3,270.9 895.2,271.3" class="road road-minor" />
      <rect x="699.5" y="325.2" width="7" height="7" class="settlement"><title>forest-village</title></rect><rect x="701.7" y="402.5" width="7" height="7" class="settlement"><title>outlaw-hamlet</title></rect><rect x="891.7" y="267.8" width="7" height="7" class="settlement"><title>sheriff-post</title></rect>
      <circle cx="919.1" cy="353.9" r="1.8" class="guard" /><circle cx="913.2" cy="357.4" r="1.8" class="guard" /><circle cx="913.2" cy="350.5" r="1.8" class="guard" /><circle cx="819.5" cy="215.5" r="1.8" class="guard" /><circle cx="816.9" cy="209.2" r="1.8" class="guard" /><circle cx="823.7" cy="210.1" r="1.8" class="guard" /><circle cx="779.5" cy="357.6" r="1.8" class="guard" /><circle cx="786.1" cy="355.8" r="1.8" class="guard" /><circle cx="784.4" cy="362.5" r="1.8" class="guard" /><circle cx="834.3" cy="285.8" r="1.8" class="guard" /><circle cx="835.2" cy="292.6" r="1.8" class="guard" /><circle cx="828.8" cy="290.0" r="1.8" class="guard" /><circle cx="918.7" cy="190.0" r="1.8" class="guard" /><circle cx="911.8" cy="190.1" r="1.8" class="guard" /><circle cx="915.2" cy="184.1" r="1.8" class="guard" />
      <circle cx="688.9" cy="242.9" r="2.7" class="cache" /><circle cx="743.4" cy="363.7" r="2.7" class="cache" /><circle cx="907.6" cy="184.0" r="2.7" class="cache" /><circle cx="856.7" cy="186.9" r="2.7" class="cache" />
      <rect x="806.4" y="205.6" width="6" height="4" class="crossing" /><rect x="790.9" y="360.6" width="6" height="4" class="crossing" />
      <circle cx="737.1" cy="238.2" r="5" class="camp"><title>campfire</title></circle>
      <path d="M 915.2 347.9 L 921.2 353.9 L 915.2 359.9 L 909.2 353.9 Z" class="objective"><title>objective</title></path>
    </g>
    <g class="panel">
      <rect x="24" y="494" width="508" height="378" rx="8" class="panel-bg" />
      <text x="40" y="514" class="panel-title">3. central-expedition · seed 3927487560 · mapq1:5baff5d9</text>
      <text x="40" y="532" class="quality">TF 0.83 · RC 0.82 · RR 1.00 · PS 0.97 · LL 0.69 · CO 1.00 · NV 0.57</text>
      <rect x="130" y="542" width="296" height="296" class="map-bg" />
      <g class="grid"><path d="M 130.0 542.0 V 838.0 M 130.0 542.0 H 426.0" /><path d="M 189.2 542.0 V 838.0 M 130.0 601.2 H 426.0" /><path d="M 248.4 542.0 V 838.0 M 130.0 660.4 H 426.0" /><path d="M 307.6 542.0 V 838.0 M 130.0 719.6 H 426.0" /><path d="M 366.8 542.0 V 838.0 M 130.0 778.8 H 426.0" /><path d="M 426.0 542.0 V 838.0 M 130.0 838.0 H 426.0" /></g>
      <line x1="295.0" y1="542.0" x2="265.4" y2="838.0" class="river" />
      <polyline points="334.0,681.6 333.0,677.9 331.9,674.2 330.9,670.5 329.9,666.8 328.8,663.1 327.8,659.4 326.7,655.7 325.7,652.0 324.6,648.3 323.6,644.6 322.5,640.9 321.5,637.2 320.4,633.5 319.4,629.8 318.3,626.1 317.3,622.4 316.2,618.7 315.2,615.0 314.2,611.3 313.1,607.6 312.1,603.9 311.0,600.2 310.0,596.5 308.9,592.8" class="road road-major" /><polyline points="308.9,592.8 308.0,596.6 307.1,600.4 306.2,604.2 305.3,608.1 304.4,611.9 303.5,615.7 302.6,619.5 301.7,623.3 300.7,627.1 299.8,630.9 296.4,630.6 293.0,630.2 289.6,629.9 286.3,629.6" class="road road-major" /><polyline points="286.3,629.6 282.3,629.9 278.4,630.3 274.4,630.7 270.5,631.1 266.5,631.5 262.6,631.9 258.6,632.3 254.7,632.7 250.7,633.0 246.8,633.4 242.8,633.8 238.9,634.2 234.9,634.6 231.0,635.0 227.0,635.4 223.1,635.7 219.1,636.1 215.2,636.5 211.2,636.9 207.3,637.3 203.3,637.7 199.4,638.1 197.0,641.0 194.7,643.9 192.4,646.8 190.1,649.7 187.8,652.6 185.4,655.5 183.1,658.4 180.8,661.3" class="road road-major" /><polyline points="180.8,661.3 183.5,658.6 186.3,655.8 189.0,653.1 191.8,650.4 194.5,647.7 197.2,644.9 200.0,642.2 202.7,639.5 205.5,636.8 208.2,634.1 210.9,631.3 213.7,628.6 216.4,625.9 219.2,623.2 221.9,620.4 221.7,616.5 221.5,612.6 221.3,608.6 221.1,604.7 220.9,600.8 220.7,596.8 220.5,592.9 220.3,588.9 220.1,585.0 219.9,581.1" class="road road-major" /><polyline points="308.9,592.8 310.2,596.4 311.5,600.0 312.8,603.6 314.1,607.2 315.3,610.8 316.6,614.4 317.9,618.0 319.2,621.5 320.5,625.1 321.8,628.7 323.1,632.3 324.3,635.9 325.6,639.5 326.9,643.1 328.2,646.7 329.5,650.3 330.8,653.9 332.0,657.5 335.5,658.9 339.0,660.3 342.5,661.7 346.0,663.1 349.5,664.5 353.0,665.9 356.5,667.3 358.6,670.5 360.8,673.7 362.9,676.9 365.0,680.2 367.2,683.4 369.3,686.6 371.4,689.8 373.6,693.0 375.7,696.2 377.8,699.4 380.0,702.6 382.1,705.9 384.3,709.1 386.4,712.3 388.5,715.5 390.7,718.7 391.0,722.6 391.4,726.4 391.8,730.3 392.1,734.2 392.5,738.0 392.9,741.9 393.2,745.8 393.6,749.6 394.0,753.5 394.3,757.4 394.7,761.2 395.1,765.1" class="road road-minor" /><polyline points="395.1,765.1 391.2,764.6 387.3,764.0 383.4,763.5 379.5,762.9 375.6,762.4 371.7,761.8 367.8,761.3 363.9,760.8 360.0,760.2 356.1,759.7 352.2,759.1 348.4,758.6 344.5,758.0 340.6,757.5 336.7,757.0 332.8,756.4 328.9,755.9 325.0,755.3 321.1,754.8 317.2,754.2 313.3,753.7 309.4,753.2 305.5,752.6 301.6,752.1 297.7,751.5 293.8,751.0 290.0,750.4 286.1,749.9 282.2,749.4 278.3,748.8 274.4,748.3" class="road road-minor" /><polyline points="274.4,748.3 270.6,747.2 266.8,746.1 263.0,745.0 259.2,743.9 255.3,742.9 251.5,741.8 247.7,740.7 243.9,739.6 240.1,738.5 236.3,737.5 232.5,736.4 228.7,735.3 224.9,734.2 221.1,733.1 217.3,732.1 213.5,731.0 209.6,729.9 208.1,726.3 206.6,722.7 205.1,719.1 203.6,715.5 202.1,711.9 200.5,708.2 199.0,704.6 197.5,701.0 196.0,697.4 194.5,693.8 193.0,690.2 191.4,686.6 189.9,683.0 188.4,679.3 186.9,675.7 185.4,672.1 183.8,668.5 182.3,664.9 180.8,661.3" class="road road-minor" />
      <rect x="305.4" y="589.3" width="7" height="7" class="settlement"><title>forest-village</title></rect><rect x="391.6" y="761.6" width="7" height="7" class="settlement"><title>outlaw-hamlet</title></rect><rect x="177.3" y="657.8" width="7" height="7" class="settlement"><title>sheriff-post</title></rect>
      <circle cx="223.9" cy="581.1" r="1.8" class="guard" /><circle cx="217.9" cy="584.5" r="1.8" class="guard" /><circle cx="217.9" cy="577.6" r="1.8" class="guard" /><circle cx="296.3" cy="637.5" r="1.8" class="guard" /><circle cx="293.7" cy="631.1" r="1.8" class="guard" /><circle cx="300.5" cy="632.0" r="1.8" class="guard" /><circle cx="259.9" cy="743.3" r="1.8" class="guard" /><circle cx="266.6" cy="741.5" r="1.8" class="guard" /><circle cx="264.8" cy="748.1" r="1.8" class="guard" /><circle cx="286.0" cy="624.0" r="1.8" class="guard" /><circle cx="286.9" cy="630.8" r="1.8" class="guard" /><circle cx="280.5" cy="628.2" r="1.8" class="guard" /><circle cx="171.5" cy="755.9" r="1.8" class="guard" /><circle cx="164.6" cy="755.9" r="1.8" class="guard" /><circle cx="168.0" cy="749.9" r="1.8" class="guard" /><circle cx="390.4" cy="744.4" r="1.8" class="guard" /><circle cx="391.2" cy="737.6" r="1.8" class="guard" /><circle cx="396.7" cy="741.7" r="1.8" class="guard" /><circle cx="220.4" cy="624.8" r="1.8" class="guard" /><circle cx="227.1" cy="626.5" r="1.8" class="guard" /><circle cx="222.3" cy="631.4" r="1.8" class="guard" /><circle cx="164.4" cy="566.7" r="1.8" class="guard" /><circle cx="161.8" cy="573.1" r="1.8" class="guard" /><circle cx="157.5" cy="567.7" r="1.8" class="guard" />
      <circle cx="223.7" cy="804.5" r="2.7" class="cache" /><circle cx="157.5" cy="752.6" r="2.7" class="cache" /><circle cx="392.1" cy="742.2" r="2.7" class="cache" /><circle cx="283.2" cy="627.0" r="2.7" class="cache" />
      <rect x="283.3" y="627.6" width="6" height="4" class="crossing" /><rect x="271.4" y="746.3" width="6" height="4" class="crossing" />
      <circle cx="335.7" cy="687.5" r="5" class="camp"><title>campfire</title></circle>
      <path d="M 219.9 575.1 L 225.9 581.1 L 219.9 587.1 L 213.9 581.1 Z" class="objective"><title>objective</title></path>
    </g>
    <g class="panel">
      <rect x="544" y="494" width="508" height="378" rx="8" class="panel-bg" />
      <text x="560" y="514" class="panel-title">4. long-haul · seed 482230138 · mapq1:2f2124fd</text>
      <text x="560" y="532" class="quality">TF 0.83 · RC 0.98 · RR 0.50 · PS 1.00 · LL 0.71 · CO 1.00 · NV 0.57</text>
      <rect x="650" y="542" width="296" height="296" class="map-bg" />
      <g class="grid"><path d="M 650.0 542.0 V 838.0 M 650.0 542.0 H 946.0" /><path d="M 709.2 542.0 V 838.0 M 650.0 601.2 H 946.0" /><path d="M 768.4 542.0 V 838.0 M 650.0 660.4 H 946.0" /><path d="M 827.6 542.0 V 838.0 M 650.0 719.6 H 946.0" /><path d="M 886.8 542.0 V 838.0 M 650.0 778.8 H 946.0" /><path d="M 946.0 542.0 V 838.0 M 650.0 838.0 H 946.0" /></g>
      <line x1="815.0" y1="542.0" x2="785.4" y2="838.0" class="river" />
      <polyline points="683.4,797.8 684.4,794.0 685.3,790.3 686.2,786.5 687.2,782.7 688.1,779.0 689.0,775.2 690.0,771.4 690.9,767.7 691.8,763.9 692.8,760.1 693.7,756.4 694.6,752.6 695.6,748.8 696.5,745.1 697.4,741.3 698.4,737.5 699.3,733.8 700.2,730.0 701.2,726.2 702.1,722.5 703.0,718.7" class="road road-major" /><polyline points="703.0,718.7 703.8,714.9 704.6,711.0 705.3,707.2 706.1,703.4 706.9,699.5 707.7,695.7 708.5,691.8 709.2,688.0 710.0,684.1 710.8,680.3 711.6,676.5 712.4,672.6 713.1,668.8 713.9,664.9 714.7,661.1 715.5,657.3 716.2,653.4 717.0,649.6 717.8,645.7 718.6,641.9 719.4,638.1 722.7,636.1 726.0,634.1 729.4,632.1 732.7,630.1 736.1,628.2 739.4,626.2 742.8,624.2 746.1,622.2 749.4,620.2 752.8,618.3 756.1,616.3 759.5,614.3 762.8,612.3 766.2,610.3 769.5,608.4 772.8,606.4 776.2,604.4 779.5,602.4 782.9,600.4 786.2,598.5 789.6,596.5 792.9,594.5 796.2,592.5 799.6,592.9 803.0,593.2 806.4,593.5 809.8,593.9" class="road road-major" /><polyline points="809.8,593.9 813.2,594.2 816.6,594.6 820.0,594.9 823.4,595.2 824.9,598.7 826.4,602.2 828.0,605.7 829.5,609.1 831.0,612.6 832.5,616.1 834.0,619.5 835.6,623.0 837.1,626.5 838.6,630.0 840.1,633.4 841.6,636.9 843.2,640.4 844.7,643.8 846.2,647.3 847.7,650.8 849.2,654.3 850.7,657.7 854.4,658.0 858.2,658.3 861.9,658.6 865.6,658.9 869.3,659.2 873.0,659.5 876.7,659.8 880.4,660.1 884.1,660.4 887.8,660.7 891.5,661.0 895.2,661.3" class="road road-major" /><polyline points="895.2,661.3 896.1,657.5 897.0,653.8 897.9,650.0 898.7,646.3 899.6,642.5 900.5,638.8 901.4,635.0 902.3,631.3 903.2,627.5 904.1,623.7 905.0,620.0 905.8,616.2 906.7,612.5 907.6,608.7 908.5,605.0 909.4,601.2 910.3,597.5 911.2,593.7 912.1,590.0 912.9,586.2 913.8,582.5 914.7,578.7" class="road road-major" /><polyline points="703.0,718.7 706.6,720.0 710.2,721.2 713.8,722.5 717.4,723.7 721.0,725.0 724.6,726.2 728.2,727.5 731.8,728.7 735.4,730.0 739.0,731.2 742.6,732.5 746.2,733.7 749.8,735.0 753.4,736.2 757.0,737.5 760.6,738.7 764.2,740.0 767.8,741.2 771.4,742.5 775.0,743.7 778.6,745.0 782.2,746.2 786.1,746.8 790.0,747.3 793.9,747.9 797.8,748.4 801.7,749.0 805.6,749.5 809.6,750.1 813.5,750.7 817.4,751.2 821.3,751.8 825.2,752.3 829.1,752.9 833.0,753.4 836.9,754.0 840.8,754.5 844.7,755.1 848.6,755.7 852.5,756.2 856.5,756.8 860.4,757.3 864.3,757.9 868.2,758.4 872.1,759.0 876.0,759.5 879.9,760.1 883.8,760.7 887.7,761.2 891.6,761.8 895.5,762.3 899.4,762.9 903.4,763.4 907.3,764.0 911.2,764.5 915.1,765.1" class="road road-minor" /><polyline points="915.1,765.1 911.2,764.6 907.3,764.1 903.4,763.7 899.5,763.2 895.6,762.7 891.7,762.2 887.8,761.7 883.9,761.3 880.0,760.8 876.1,760.3 872.2,759.8 868.3,759.3 864.4,758.9 860.5,758.4 856.6,757.9 852.7,757.4 848.8,756.9 844.9,756.5 841.0,756.0 837.1,755.5 833.2,755.0 829.3,754.5 825.4,754.1 821.5,753.6 817.6,753.1 813.7,752.6 809.8,752.1 805.9,751.6 802.0,751.2 798.1,750.7 794.2,750.2" class="road road-minor" /><polyline points="794.2,750.2 797.3,749.8 800.5,749.4 803.6,749.0 806.7,748.7 808.8,745.3 810.9,741.9 813.0,738.6 815.1,735.2 817.1,731.9 819.2,728.5 821.3,725.1 823.4,721.8 825.5,718.4 827.6,715.1 829.6,711.7 831.7,708.3 833.8,705.0 835.9,701.6 838.0,698.3 840.1,694.9 842.1,691.5 844.2,688.2 846.3,684.8 848.4,681.5 850.5,678.1 852.6,674.7 854.6,671.4 858.3,670.5 862.0,669.5 865.7,668.6 869.4,667.7 873.1,666.8 876.8,665.9 880.4,665.0 884.1,664.0 887.8,663.1 891.5,662.2 895.2,661.3" class="road road-minor" />
      <rect x="699.5" y="715.2" width="7" height="7" class="settlement"><title>forest-village</title></rect><rect x="911.6" y="761.6" width="7" height="7" class="settlement"><title>outlaw-hamlet</title></rect><rect x="891.7" y="657.8" width="7" height="7" class="settlement"><title>sheriff-post</title></rect>
      <circle cx="918.7" cy="578.7" r="1.8" class="guard" /><circle cx="912.7" cy="582.1" r="1.8" class="guard" /><circle cx="912.7" cy="575.3" r="1.8" class="guard" /><circle cx="819.9" cy="601.8" r="1.8" class="guard" /><circle cx="817.3" cy="595.4" r="1.8" class="guard" /><circle cx="824.1" cy="596.3" r="1.8" class="guard" /><circle cx="779.7" cy="745.2" r="1.8" class="guard" /><circle cx="786.4" cy="743.4" r="1.8" class="guard" /><circle cx="784.6" cy="750.1" r="1.8" class="guard" /><circle cx="808.8" cy="679.0" r="1.8" class="guard" /><circle cx="809.7" cy="685.8" r="1.8" class="guard" /><circle cx="803.4" cy="683.2" r="1.8" class="guard" /><circle cx="738.1" cy="753.2" r="1.8" class="guard" /><circle cx="731.2" cy="753.3" r="1.8" class="guard" /><circle cx="734.6" cy="747.3" r="1.8" class="guard" /><circle cx="733.6" cy="639.3" r="1.8" class="guard" /><circle cx="734.4" cy="632.4" r="1.8" class="guard" /><circle cx="739.9" cy="636.6" r="1.8" class="guard" /><circle cx="792.0" cy="636.3" r="1.8" class="guard" /><circle cx="798.6" cy="638.0" r="1.8" class="guard" /><circle cx="793.8" cy="642.9" r="1.8" class="guard" />
      <circle cx="738.7" cy="639.1" r="2.7" class="cache" /><circle cx="917.0" cy="629.9" r="2.7" class="cache" /><circle cx="850.7" cy="752.0" r="2.7" class="cache" /><circle cx="742.6" cy="742.0" r="2.7" class="cache" />
      <rect x="806.8" y="591.9" width="6" height="4" class="crossing" /><rect x="791.2" y="748.2" width="6" height="4" class="crossing" />
      <circle cx="682.0" cy="803.8" r="5" class="camp"><title>campfire</title></circle>
      <path d="M 914.7 572.7 L 920.7 578.7 L 914.7 584.7 L 908.7 578.7 Z" class="objective"><title>objective</title></path>
    </g>
    <g class="panel">
      <rect x="24" y="884" width="508" height="378" rx="8" class="panel-bg" />
      <text x="40" y="904" class="panel-title">5. central-expedition · seed 3518969603 · mapq1:a17dde62</text>
      <text x="40" y="922" class="quality">TF 0.83 · RC 0.90 · RR 0.73 · PS 1.00 · LL 0.83 · CO 0.90 · NV 0.46</text>
      <rect x="130" y="932" width="296" height="296" class="map-bg" />
      <g class="grid"><path d="M 130.0 932.0 V 1228.0 M 130.0 932.0 H 426.0" /><path d="M 189.2 932.0 V 1228.0 M 130.0 991.2 H 426.0" /><path d="M 248.4 932.0 V 1228.0 M 130.0 1050.4 H 426.0" /><path d="M 307.6 932.0 V 1228.0 M 130.0 1109.6 H 426.0" /><path d="M 366.8 932.0 V 1228.0 M 130.0 1168.8 H 426.0" /><path d="M 426.0 932.0 V 1228.0 M 130.0 1228.0 H 426.0" /></g>
      <line x1="295.0" y1="932.0" x2="265.4" y2="1228.0" class="river" />
      <polyline points="219.0,1023.2 216.7,1020.0 214.5,1016.8 212.2,1013.6 209.9,1010.5 207.7,1007.3 205.4,1004.1 203.2,1000.9 200.9,997.7 198.6,994.6 196.4,991.4 194.1,988.2 191.9,985.0" class="road road-major" /><polyline points="191.9,985.0 191.9,988.3 191.9,991.6 191.9,995.0 191.9,998.3 195.0,1000.2 198.1,1002.1 201.2,1004.0 204.3,1005.9 207.4,1007.9 210.5,1009.8 213.6,1011.7 216.7,1013.6 219.8,1015.5 222.9,1017.4 225.2,1020.7 227.5,1023.9 229.8,1027.1 232.1,1030.3 234.4,1033.5 236.7,1036.8 239.0,1040.0 241.3,1043.2 243.6,1046.4 245.9,1049.7 248.2,1052.9 250.5,1056.1 252.8,1059.3 255.1,1062.5 257.4,1065.8 259.7,1069.0 262.0,1072.2 264.3,1075.4 266.6,1078.6 266.3,1082.4 265.9,1086.1 265.5,1089.9 265.1,1093.6 264.8,1097.3 264.4,1101.1 264.0,1104.8 263.6,1108.5 263.3,1112.3 262.9,1116.0 262.5,1119.7 262.1,1123.5 261.8,1127.2 261.4,1130.9 261.0,1134.7 264.4,1135.0 267.8,1135.4 271.2,1135.7 274.6,1136.0" class="road road-major" /><polyline points="274.6,1136.0 271.2,1136.1 267.7,1136.1 264.3,1136.1 260.9,1136.1 260.0,1139.7 259.0,1143.3 258.1,1146.9 257.2,1150.6 256.3,1154.2 255.4,1157.8 254.4,1161.4 253.5,1165.1 252.6,1168.7 251.7,1172.3 250.8,1175.9 249.8,1179.6 248.9,1183.2 248.0,1186.8 247.1,1190.4" class="road road-major" /><polyline points="247.1,1190.4 243.2,1190.6 239.3,1190.8 235.5,1191.0 231.6,1191.2 227.7,1191.4 223.8,1191.5 220.0,1191.7 216.1,1191.9 212.2,1192.1 208.3,1192.3 204.5,1192.5 200.6,1192.6 196.7,1192.8 192.8,1193.0 189.0,1193.2 185.1,1193.4 181.2,1193.6 177.3,1193.8 173.5,1193.9 169.6,1194.1" class="road road-major" /><polyline points="191.9,985.0 195.8,985.4 199.7,985.7 203.6,986.1 207.5,986.5 211.4,986.8 215.3,987.2 219.2,987.5 223.1,987.9 227.0,988.2 230.9,988.6 234.8,989.0 238.7,989.3 242.6,989.7 246.5,990.0 250.4,990.4 254.3,990.8 258.2,991.1 262.1,991.5 266.0,991.8 269.9,992.2 273.8,992.6 277.7,992.9 281.6,993.3 285.5,993.6 289.4,994.0 293.3,994.4 297.2,994.7 301.1,995.1 303.0,998.4 305.0,1001.6 306.9,1004.9 308.8,1008.2 310.8,1011.5 312.7,1014.7 314.6,1018.0 316.6,1021.3 318.5,1024.6 320.4,1027.8 322.4,1031.1 324.3,1034.4 326.2,1037.7 328.2,1040.9 330.1,1044.2 332.0,1047.5 335.5,1048.9 339.0,1050.3 342.5,1051.7 346.0,1053.1 349.5,1054.5 353.0,1055.9 356.5,1057.3 358.6,1060.5 360.8,1063.7 362.9,1066.9 365.0,1070.2 367.2,1073.4 369.3,1076.6 371.4,1079.8 373.6,1083.0 375.7,1086.2 377.8,1089.4 380.0,1092.6 382.1,1095.9 384.3,1099.1 386.4,1102.3 388.5,1105.5 390.7,1108.7 391.0,1112.6 391.4,1116.4 391.8,1120.3 392.1,1124.2 392.5,1128.0 392.9,1131.9 393.2,1135.8 393.6,1139.6 394.0,1143.5 394.3,1147.4 394.7,1151.2 395.1,1155.1" class="road road-minor" /><polyline points="395.1,1155.1 394.7,1151.2 394.3,1147.4 394.0,1143.5 393.6,1139.6 393.2,1135.8 392.9,1131.9 392.5,1128.0 392.1,1124.2 391.8,1120.3 391.4,1116.4 391.0,1112.6 390.7,1108.7 388.5,1105.5 386.4,1102.3 384.3,1099.1 382.1,1095.9 380.0,1092.6 377.8,1089.4 375.7,1086.2 373.6,1083.0 371.4,1079.8 369.3,1076.6 367.2,1073.4 365.0,1070.2 362.9,1066.9 360.8,1063.7 358.6,1060.5 356.5,1057.3 353.0,1055.9 349.5,1054.5 346.0,1053.1 342.5,1051.7 339.0,1050.3 335.5,1048.9 332.0,1047.5 330.1,1044.2 328.2,1040.9 326.2,1037.7 324.3,1034.4 322.4,1031.1 320.4,1027.8 318.5,1024.6 316.6,1021.3 314.6,1018.0 312.7,1014.7 310.8,1011.5 308.8,1008.2 306.9,1004.9 305.0,1001.6 303.0,998.4 301.1,995.1 298.1,994.4 295.0,993.7 292.0,993.0 289.0,992.3" class="road road-minor" /><polyline points="289.0,992.3 285.9,992.3 282.8,992.4 279.7,992.5 276.6,992.6 276.0,996.5 275.4,1000.4 274.8,1004.3 274.2,1008.1 273.7,1012.0 273.1,1015.9 272.5,1019.8 271.9,1023.7 271.4,1027.5 270.8,1031.4 270.2,1035.3 269.6,1039.2 269.0,1043.0 268.5,1046.9 267.9,1050.8 267.3,1054.7 266.7,1058.6 266.2,1062.4 265.6,1066.3 265.0,1070.2 264.4,1074.1 263.8,1078.0 263.3,1081.8 262.7,1085.7 262.1,1089.6 261.5,1093.5 260.9,1097.4 260.4,1101.2 259.8,1105.1 259.2,1109.0 258.6,1112.9 258.1,1116.7 257.5,1120.6 256.9,1124.5 256.3,1128.4 255.7,1132.3 255.2,1136.1 254.6,1140.0 254.0,1143.9 253.4,1147.8 252.9,1151.7 252.3,1155.5 251.7,1159.4 251.1,1163.3 250.5,1167.2 250.0,1171.1 249.4,1174.9 248.8,1178.8 248.2,1182.7 247.7,1186.6 247.1,1190.4" class="road road-minor" />
      <rect x="188.4" y="981.5" width="7" height="7" class="settlement"><title>forest-village</title></rect><rect x="391.6" y="1151.6" width="7" height="7" class="settlement"><title>outlaw-hamlet</title></rect><rect x="243.6" y="1186.9" width="7" height="7" class="settlement"><title>sheriff-post</title></rect>
      <circle cx="173.6" cy="1194.1" r="1.8" class="guard" /><circle cx="167.6" cy="1197.6" r="1.8" class="guard" /><circle cx="167.6" cy="1190.7" r="1.8" class="guard" /><circle cx="299.1" cy="1000.2" r="1.8" class="guard" /><circle cx="296.4" cy="993.8" r="1.8" class="guard" /><circle cx="303.3" cy="994.7" r="1.8" class="guard" /><circle cx="260.2" cy="1131.1" r="1.8" class="guard" /><circle cx="266.8" cy="1129.2" r="1.8" class="guard" /><circle cx="265.0" cy="1135.9" r="1.8" class="guard" /><circle cx="204.2" cy="1100.9" r="1.8" class="guard" /><circle cx="205.1" cy="1107.7" r="1.8" class="guard" /><circle cx="198.8" cy="1105.1" r="1.8" class="guard" /><circle cx="335.5" cy="1082.7" r="1.8" class="guard" /><circle cx="328.6" cy="1082.7" r="1.8" class="guard" /><circle cx="332.0" cy="1076.7" r="1.8" class="guard" /><circle cx="272.7" cy="1203.1" r="1.8" class="guard" /><circle cx="273.6" cy="1196.3" r="1.8" class="guard" /><circle cx="279.1" cy="1200.4" r="1.8" class="guard" />
      <circle cx="389.0" cy="970.9" r="2.7" class="cache" /><circle cx="335.6" cy="965.6" r="2.7" class="cache" /><circle cx="331.5" cy="1138.6" r="2.7" class="cache" /><circle cx="390.4" cy="1134.9" r="2.7" class="cache" />
      <rect x="286.0" y="990.3" width="6" height="4" class="crossing" /><rect x="271.6" y="1134.0" width="6" height="4" class="crossing" />
      <circle cx="222.6" cy="1028.2" r="5" class="camp"><title>campfire</title></circle>
      <path d="M 169.6 1188.1 L 175.6 1194.1 L 169.6 1200.1 L 163.6 1194.1 Z" class="objective"><title>objective</title></path>
    </g>
    <g class="panel">
      <rect x="544" y="884" width="508" height="378" rx="8" class="panel-bg" />
      <text x="560" y="904" class="panel-title">6. same-bank · seed 146383568 · mapq1:9ed1b090</text>
      <text x="560" y="922" class="quality">TF 0.83 · RC 0.98 · RR 0.65 · PS 1.00 · LL 0.74 · CO 1.00 · NV 0.47</text>
      <rect x="650" y="932" width="296" height="296" class="map-bg" />
      <g class="grid"><path d="M 650.0 932.0 V 1228.0 M 650.0 932.0 H 946.0" /><path d="M 709.2 932.0 V 1228.0 M 650.0 991.2 H 946.0" /><path d="M 768.4 932.0 V 1228.0 M 650.0 1050.4 H 946.0" /><path d="M 827.6 932.0 V 1228.0 M 650.0 1109.6 H 946.0" /><path d="M 886.8 932.0 V 1228.0 M 650.0 1168.8 H 946.0" /><path d="M 946.0 932.0 V 1228.0 M 650.0 1228.0 H 946.0" /></g>
      <line x1="815.0" y1="932.0" x2="785.4" y2="1228.0" class="river" />
      <polyline points="688.0,1183.8 688.7,1180.1 689.5,1176.3 690.2,1172.6 691.0,1168.8 691.7,1165.1 692.5,1161.3 693.2,1157.5 694.0,1153.8 694.7,1150.0 695.5,1146.3 696.3,1142.5 697.0,1138.8 697.8,1135.0 698.5,1131.3 699.3,1127.5 700.0,1123.7 700.8,1120.0 701.5,1116.2 702.3,1112.5 703.0,1108.7" class="road road-major" /><polyline points="703.0,1108.7 703.8,1104.9 704.6,1101.0 705.3,1097.2 706.1,1093.4 706.9,1089.5 707.7,1085.7 708.5,1081.8 709.2,1078.0 710.0,1074.1 710.8,1070.3 711.6,1066.5 712.4,1062.6 713.1,1058.8 713.9,1054.9 714.7,1051.1 715.5,1047.3 716.2,1043.4 717.0,1039.6 717.8,1035.7 718.6,1031.9 719.4,1028.1 722.9,1027.5 726.4,1027.0 729.9,1026.5 733.4,1026.0 736.9,1025.5 740.4,1025.0 744.0,1024.4 747.9,1024.0 751.8,1023.6 755.7,1023.2 759.6,1022.8 763.5,1022.4 767.4,1022.0 771.3,1021.6 775.2,1021.2 779.1,1020.8 783.0,1020.5 786.9,1020.1 790.8,1019.7 794.7,1019.3 798.6,1018.9 802.5,1018.5 806.4,1018.1" class="road road-major" /><polyline points="806.4,1018.1 803.0,1017.7 799.6,1017.4 796.2,1017.0 792.8,1016.7 790.5,1013.5 788.1,1010.4 785.8,1007.2 783.4,1004.0 781.1,1000.9 778.7,997.7 776.3,994.5 774.0,991.4 771.6,988.2 769.3,985.0" class="road road-major" /><polyline points="769.3,985.0 766.5,987.6 763.8,990.1 761.1,992.6 758.3,995.2 755.6,997.7 752.9,1000.3 750.1,1002.8 747.4,1005.4 744.6,1007.9 741.9,1010.4 738.4,1011.0 734.9,1011.5 731.4,1012.0 727.8,1012.5 724.3,1013.0 720.8,1013.6 717.3,1014.1 715.3,1010.8 713.2,1007.6 711.2,1004.4 709.2,1001.1 707.2,997.9 705.2,994.7 703.1,991.4 701.1,988.2 699.1,985.0 697.1,981.7 695.0,978.5 693.0,975.3 691.0,972.0 689.0,968.8" class="road road-major" /><polyline points="703.0,1108.7 706.6,1109.8 710.1,1110.9 713.7,1111.9 717.2,1113.0 720.7,1114.1 724.3,1115.1 727.8,1116.2 731.4,1117.3 734.9,1118.3 738.5,1119.4 742.0,1120.5 745.6,1121.5 749.1,1122.6 752.7,1123.7 756.3,1124.6 759.9,1125.6 763.5,1126.5 767.1,1127.5 770.7,1128.4 774.3,1129.4 777.9,1130.3 781.5,1131.3 785.1,1132.3 788.8,1133.2 792.4,1134.2 796.0,1135.1 799.6,1136.1 803.2,1137.0 806.8,1138.0 810.7,1138.6 814.5,1139.2 818.4,1139.8 822.3,1140.4 826.1,1141.0 830.0,1141.6 833.9,1142.3 837.7,1142.9 841.6,1143.5 845.5,1144.1 849.3,1144.7 853.2,1145.3 857.1,1145.9 860.9,1146.5 864.8,1147.2 868.7,1147.8 872.5,1148.4 876.4,1149.0 880.3,1149.6 884.1,1150.2 888.0,1150.8 891.9,1151.4 895.7,1152.0 899.6,1152.7 903.5,1153.3 907.3,1153.9 911.2,1154.5 915.1,1155.1" class="road road-minor" /><polyline points="915.1,1155.1 911.2,1154.5 907.3,1153.9 903.4,1153.3 899.5,1152.7 895.6,1152.1 891.7,1151.6 887.9,1151.0 884.0,1150.4 880.1,1149.8 876.2,1149.2 872.3,1148.6 868.4,1148.0 864.5,1147.4 860.6,1146.8 856.7,1146.2 852.9,1145.6 849.0,1145.0 845.1,1144.4 841.2,1143.9 837.3,1143.3 833.4,1142.7 829.5,1142.1 825.6,1141.5 821.8,1140.9 817.9,1140.3 814.0,1139.7 810.1,1139.1 806.2,1138.5 802.3,1137.9 798.4,1137.3 794.5,1136.8" class="road road-minor" /><polyline points="794.5,1136.8 791.5,1136.4 788.4,1136.1 785.3,1135.8 782.3,1135.5 781.9,1131.6 781.6,1127.6 781.2,1123.6 780.9,1119.7 780.6,1115.7 780.2,1111.8 779.9,1107.8 779.5,1103.8 779.2,1099.9 778.9,1095.9 778.5,1092.0 778.2,1088.0 777.8,1084.0 777.5,1080.1 777.1,1076.1 776.8,1072.2 776.5,1068.2 776.1,1064.2 775.8,1060.3 775.4,1056.3 775.1,1052.3 774.8,1048.4 774.4,1044.4 774.1,1040.5 773.7,1036.5 773.4,1032.5 773.0,1028.6 772.7,1024.6 772.4,1020.7 772.0,1016.7 771.7,1012.7 771.3,1008.8 771.0,1004.8 770.7,1000.9 770.3,996.9 770.0,992.9 769.6,989.0 769.3,985.0" class="road road-minor" />
      <rect x="699.5" y="1105.2" width="7" height="7" class="settlement"><title>forest-village</title></rect><rect x="911.6" y="1151.6" width="7" height="7" class="settlement"><title>outlaw-hamlet</title></rect><rect x="765.8" y="981.5" width="7" height="7" class="settlement"><title>sheriff-post</title></rect>
      <circle cx="693.0" cy="968.8" r="1.8" class="guard" /><circle cx="687.0" cy="972.2" r="1.8" class="guard" /><circle cx="687.0" cy="965.4" r="1.8" class="guard" /><circle cx="816.5" cy="1026.0" r="1.8" class="guard" /><circle cx="813.8" cy="1019.6" r="1.8" class="guard" /><circle cx="820.7" cy="1020.5" r="1.8" class="guard" /><circle cx="780.1" cy="1131.8" r="1.8" class="guard" /><circle cx="786.7" cy="1130.0" r="1.8" class="guard" /><circle cx="785.0" cy="1136.6" r="1.8" class="guard" /><circle cx="696.0" cy="1069.0" r="1.8" class="guard" /><circle cx="696.9" cy="1075.9" r="1.8" class="guard" /><circle cx="690.6" cy="1073.3" r="1.8" class="guard" /><circle cx="798.1" cy="967.8" r="1.8" class="guard" /><circle cx="791.2" cy="967.9" r="1.8" class="guard" /><circle cx="794.6" cy="961.9" r="1.8" class="guard" /><circle cx="855.1" cy="1027.4" r="1.8" class="guard" /><circle cx="856.0" cy="1020.6" r="1.8" class="guard" /><circle cx="861.5" cy="1024.7" r="1.8" class="guard" /><circle cx="916.6" cy="1128.8" r="1.8" class="guard" /><circle cx="923.3" cy="1130.5" r="1.8" class="guard" /><circle cx="918.5" cy="1135.4" r="1.8" class="guard" />
      <circle cx="801.3" cy="964.4" r="2.7" class="cache" /><circle cx="860.6" cy="1016.8" r="2.7" class="cache" /><circle cx="913.9" cy="1192.8" r="2.7" class="cache" /><circle cx="681.2" cy="1085.6" r="2.7" class="cache" />
      <rect x="803.4" y="1016.1" width="6" height="4" class="crossing" /><rect x="791.5" y="1134.8" width="6" height="4" class="crossing" />
      <circle cx="686.8" cy="1189.9" r="5" class="camp"><title>campfire</title></circle>
      <path d="M 689.0 962.8 L 695.0 968.8 L 689.0 974.8 L 683.0 968.8 Z" class="objective"><title>objective</title></path>
    </g>
    <g class="panel">
      <rect x="24" y="1274" width="508" height="378" rx="8" class="panel-bg" />
      <text x="40" y="1294" class="panel-title">7. same-bank · seed 3848593101 · mapq1:a127ae2d</text>
      <text x="40" y="1312" class="quality">TF 0.83 · RC 0.98 · RR 0.91 · PS 0.86 · LL 0.64 · CO 0.92 · NV 0.68</text>
      <rect x="130" y="1322" width="296" height="296" class="map-bg" />
      <g class="grid"><path d="M 130.0 1322.0 V 1618.0 M 130.0 1322.0 H 426.0" /><path d="M 189.2 1322.0 V 1618.0 M 130.0 1381.2 H 426.0" /><path d="M 248.4 1322.0 V 1618.0 M 130.0 1440.4 H 426.0" /><path d="M 307.6 1322.0 V 1618.0 M 130.0 1499.6 H 426.0" /><path d="M 366.8 1322.0 V 1618.0 M 130.0 1558.8 H 426.0" /><path d="M 426.0 1322.0 V 1618.0 M 130.0 1618.0 H 426.0" /></g>
      <line x1="295.0" y1="1322.0" x2="265.4" y2="1618.0" class="river" />
      <polyline points="391.7,1576.7 391.0,1572.8 390.2,1568.9 389.5,1565.0 388.8,1561.1 388.1,1557.2 387.4,1553.3 386.7,1549.4 386.0,1545.5 385.2,1541.6 384.5,1537.7 383.8,1533.8 383.1,1529.9 382.4,1526.0 381.7,1522.1 381.0,1518.2 380.3,1514.3 379.5,1510.4 378.8,1506.5 378.1,1502.6 377.4,1498.7" class="road road-major" /><polyline points="377.4,1498.7 376.4,1494.9 375.3,1491.1 374.3,1487.2 373.3,1483.4 372.2,1479.6 371.2,1475.7 370.2,1471.9 369.2,1468.1 368.1,1464.3 367.1,1460.4 366.1,1456.6 365.0,1452.8 364.0,1448.9 363.0,1445.1 361.9,1441.3 358.0,1440.8 354.1,1440.4 350.2,1439.9 346.3,1439.5 342.4,1439.1 338.5,1438.6 334.6,1438.2 330.7,1437.7 329.0,1434.4 327.2,1431.2 325.4,1427.9 323.7,1424.6 321.9,1421.3 320.1,1418.0 318.3,1414.7 316.6,1411.5 314.8,1408.2 313.0,1404.9 311.3,1401.6 309.5,1398.3 307.7,1395.1 305.9,1391.8 304.2,1388.5 302.4,1385.2 299.1,1384.2 295.7,1383.3 292.4,1382.3 289.1,1381.3" class="road road-major" /><polyline points="289.1,1381.3 292.4,1382.3 295.7,1383.3 299.1,1384.2 302.4,1385.2 304.2,1388.5 305.9,1391.8 307.7,1395.1 309.5,1398.3 311.3,1401.6 313.0,1404.9 314.8,1408.2 316.6,1411.5 318.3,1414.7 320.1,1418.0 321.9,1421.3 323.7,1424.6 325.4,1427.9 327.2,1431.2 329.0,1434.4 330.7,1437.7 334.4,1438.0 338.2,1438.3 341.9,1438.6 345.6,1438.9 349.3,1439.2 353.0,1439.5 356.7,1439.8 360.4,1440.1 364.1,1440.4 367.8,1440.7 371.5,1441.0 375.2,1441.3" class="road road-major" /><polyline points="375.2,1441.3 376.2,1437.5 377.2,1433.7 378.2,1429.9 379.2,1426.1 380.2,1422.3 381.2,1418.5 382.2,1414.7 383.2,1410.9 384.2,1407.1 385.2,1403.3 386.2,1399.5 387.2,1395.7 388.2,1391.9 389.2,1388.1 390.2,1384.3 391.2,1380.5 392.2,1376.7 393.2,1372.8 394.2,1369.0 395.2,1365.2 396.2,1361.4 397.2,1357.6 398.2,1353.8" class="road road-major" /><polyline points="377.4,1498.7 376.1,1502.1 374.9,1505.6 373.6,1509.0 372.4,1512.4 371.1,1515.8 369.8,1519.2 368.6,1522.7 367.3,1526.1 366.0,1529.5 362.2,1529.2 358.4,1529.0 354.6,1528.7 350.7,1528.5 346.9,1528.2 343.1,1527.9 339.3,1527.7 335.4,1527.4 332.4,1525.3 329.4,1523.1 326.4,1520.9 323.3,1518.8 320.3,1516.6 317.3,1514.4 314.3,1512.3 311.3,1510.1 308.2,1507.9 305.2,1505.8 302.2,1503.6 299.2,1501.4 296.1,1499.3 293.1,1497.1 290.1,1494.9 286.6,1494.6 283.1,1494.2 279.6,1493.9 276.1,1493.5 272.6,1493.2 269.1,1492.8 265.6,1492.5 262.2,1493.9 258.8,1495.3 255.4,1496.7 252.0,1498.2 248.6,1499.6 245.2,1501.0 241.8,1502.4 238.4,1503.8 235.0,1505.3 231.6,1506.7 229.4,1510.0 227.2,1513.3 225.0,1516.6 222.8,1519.9 220.6,1523.2 218.4,1526.5 216.2,1529.8 214.0,1533.1 211.7,1536.4 209.5,1539.7 207.3,1543.0 205.1,1546.3 202.9,1549.6 200.7,1552.9 198.5,1556.2 196.3,1559.5 194.1,1562.8 191.9,1566.1 189.6,1569.4 187.4,1572.7 185.2,1576.0" class="road road-minor" /><polyline points="185.2,1576.0 187.4,1572.7 189.6,1569.4 191.9,1566.1 194.1,1562.8 196.3,1559.5 198.5,1556.2 200.7,1552.9 202.9,1549.6 205.1,1546.3 207.3,1543.0 209.5,1539.7 211.7,1536.4 214.0,1533.1 216.2,1529.8 218.4,1526.5 220.6,1523.2 222.8,1519.9 225.0,1516.6 227.2,1513.3 229.4,1510.0 231.6,1506.7 235.0,1505.3 238.4,1503.8 241.8,1502.4 245.2,1501.0 248.6,1499.6 252.0,1498.2 255.4,1496.7 258.8,1495.3 262.2,1493.9 265.6,1492.5 268.6,1492.8 271.7,1493.1 274.8,1493.4 277.8,1493.7" class="road road-minor" /><polyline points="277.8,1493.7 280.9,1494.0 284.0,1494.3 287.0,1494.6 290.1,1494.9 292.9,1492.2 295.7,1489.5 298.5,1486.8 301.2,1484.0 304.0,1481.3 306.8,1478.6 309.6,1475.9 312.4,1473.2 315.2,1470.4 317.9,1467.7 320.7,1465.0 323.5,1462.3 326.3,1459.5 329.1,1456.8 331.9,1454.1 334.6,1451.4 338.3,1450.5 342.0,1449.5 345.7,1448.6 349.4,1447.7 353.1,1446.8 356.8,1445.9 360.4,1445.0 364.1,1444.0 367.8,1443.1 371.5,1442.2 375.2,1441.3" class="road road-minor" />
      <rect x="373.9" y="1495.2" width="7" height="7" class="settlement"><title>forest-village</title></rect><rect x="181.7" y="1572.5" width="7" height="7" class="settlement"><title>outlaw-hamlet</title></rect><rect x="371.7" y="1437.8" width="7" height="7" class="settlement"><title>sheriff-post</title></rect>
      <circle cx="402.2" cy="1353.8" r="1.8" class="guard" /><circle cx="396.2" cy="1357.3" r="1.8" class="guard" /><circle cx="396.2" cy="1350.4" r="1.8" class="guard" /><circle cx="299.2" cy="1389.2" r="1.8" class="guard" /><circle cx="296.5" cy="1382.9" r="1.8" class="guard" /><circle cx="303.4" cy="1383.8" r="1.8" class="guard" /><circle cx="286.5" cy="1503.0" r="1.8" class="guard" /><circle cx="293.2" cy="1501.2" r="1.8" class="guard" /><circle cx="291.4" cy="1507.9" r="1.8" class="guard" /><circle cx="403.6" cy="1458.0" r="1.8" class="guard" /><circle cx="404.6" cy="1464.8" r="1.8" class="guard" /><circle cx="398.2" cy="1462.2" r="1.8" class="guard" />
      <circle cx="161.6" cy="1526.3" r="2.7" class="cache" /><circle cx="215.4" cy="1523.3" r="2.7" class="cache" /><circle cx="328.8" cy="1531.6" r="2.7" class="cache" /><circle cx="156.6" cy="1361.4" r="2.7" class="cache" />
      <rect x="286.1" y="1379.3" width="6" height="4" class="crossing" /><rect x="274.8" y="1491.7" width="6" height="4" class="crossing" />
      <circle cx="392.8" cy="1582.8" r="5" class="camp"><title>campfire</title></circle>
      <path d="M 398.2 1347.8 L 404.2 1353.8 L 398.2 1359.8 L 392.2 1353.8 Z" class="objective"><title>objective</title></path>
    </g>
    <g class="panel">
      <rect x="544" y="1274" width="508" height="378" rx="8" class="panel-bg" />
      <text x="560" y="1294" class="panel-title">8. cross-river · seed 347862091 · mapq1:04cf23af</text>
      <text x="560" y="1312" class="quality">TF 0.83 · RC 0.88 · RR 0.89 · PS 0.97 · LL 0.61 · CO 0.96 · NV 0.49</text>
      <rect x="650" y="1322" width="296" height="296" class="map-bg" />
      <g class="grid"><path d="M 650.0 1322.0 V 1618.0 M 650.0 1322.0 H 946.0" /><path d="M 709.2 1322.0 V 1618.0 M 650.0 1381.2 H 946.0" /><path d="M 768.4 1322.0 V 1618.0 M 650.0 1440.4 H 946.0" /><path d="M 827.6 1322.0 V 1618.0 M 650.0 1499.6 H 946.0" /><path d="M 886.8 1322.0 V 1618.0 M 650.0 1558.8 H 946.0" /><path d="M 946.0 1322.0 V 1618.0 M 650.0 1618.0 H 946.0" /></g>
      <line x1="815.0" y1="1322.0" x2="785.4" y2="1618.0" class="river" />
      <polyline points="694.7,1353.2 696.4,1356.8 698.0,1360.5 699.6,1364.1 701.2,1367.7 702.8,1371.4 704.4,1375.0 706.0,1378.6 707.6,1382.3 709.2,1385.9 710.9,1389.5 712.5,1393.2 714.1,1396.8 715.7,1400.4 717.3,1404.1 720.8,1403.6 724.3,1403.0 727.8,1402.5 731.4,1402.0 734.9,1401.5 738.4,1401.0 741.9,1400.4 744.6,1397.9 747.4,1395.4 750.1,1392.8 752.9,1390.3 755.6,1387.7 758.3,1385.2 761.1,1382.6 763.8,1380.1 766.5,1377.6 769.3,1375.0" class="road road-major" /><polyline points="769.3,1375.0 769.8,1378.9 770.3,1382.8 770.8,1386.7 771.3,1390.6 771.8,1394.4 772.3,1398.3 772.8,1402.2 773.3,1406.1 773.8,1410.0 774.3,1413.9 774.8,1417.8 775.3,1421.6 775.8,1425.5 776.3,1429.4 776.8,1433.3 777.3,1437.2 777.8,1441.1 778.3,1445.0 778.8,1448.9 779.3,1452.7 779.8,1456.6 780.3,1460.5 780.8,1464.4 781.3,1468.3 781.8,1472.2 782.3,1476.1 782.8,1479.9 783.3,1483.8 783.8,1487.7 784.3,1491.6 787.7,1491.9 791.1,1492.3 794.5,1492.6 797.9,1493.0" class="road road-major" /><polyline points="797.9,1493.0 801.3,1493.3 804.7,1493.6 808.1,1494.0 811.5,1494.3 814.5,1496.6 817.5,1499.0 820.6,1501.3 823.6,1503.6 826.6,1505.9 829.6,1508.3 832.7,1510.6 835.7,1512.9 838.7,1515.2 841.7,1517.5 844.8,1519.9 847.8,1522.2 850.8,1524.5 853.8,1526.8 856.8,1529.2 859.9,1531.5 862.9,1533.8 866.0,1531.8 869.2,1529.8 872.3,1527.9 875.4,1525.9 878.6,1523.9 881.7,1521.9 884.9,1519.9 888.0,1517.9 891.1,1515.9 894.3,1514.0 897.4,1512.0 897.4,1508.7 897.4,1505.3 897.4,1502.0 897.4,1498.7" class="road road-major" /><polyline points="897.4,1498.7 898.0,1494.8 898.7,1491.0 899.3,1487.1 900.0,1483.2 900.6,1479.3 901.3,1475.5 901.9,1471.6 902.5,1467.7 903.2,1463.8 903.8,1460.0 904.5,1456.1 905.1,1452.2 905.8,1448.3 906.4,1444.5 907.0,1440.6 907.7,1436.7 908.3,1432.8 909.0,1429.0 909.6,1425.1 910.3,1421.2 910.9,1417.3 911.5,1413.5" class="road road-major" /><polyline points="769.3,1375.0 766.3,1377.6 763.3,1380.3 760.4,1382.9 757.4,1385.5 754.4,1388.2 751.4,1390.8 748.5,1393.5 745.5,1396.1 742.5,1398.7 739.5,1401.4 736.6,1404.0 733.6,1406.6 730.6,1409.3 729.0,1412.5 727.3,1415.7 725.7,1418.9 724.0,1422.1 722.3,1425.3 720.7,1428.5 719.0,1431.7 717.4,1434.9 715.7,1438.1 714.1,1441.3 713.8,1445.2 713.5,1449.2 713.3,1453.2 713.0,1457.1 712.8,1461.1 712.5,1465.1 712.2,1469.0 712.0,1473.0 711.7,1477.0 711.5,1480.9 711.2,1484.9 710.9,1488.8 710.7,1492.8 710.4,1496.8 710.2,1500.7 709.9,1504.7 709.6,1508.7 709.4,1512.6 709.1,1516.6 708.9,1520.5 708.6,1524.5 708.3,1528.5 708.1,1532.4 707.8,1536.4 707.6,1540.4 707.3,1544.3 707.0,1548.3 706.8,1552.3 706.5,1556.2 706.3,1560.2 706.0,1564.1 705.7,1568.1 705.5,1572.1 705.2,1576.0" class="road road-minor" /><polyline points="705.2,1576.0 705.2,1572.7 705.2,1569.4 705.2,1566.1 705.2,1562.8 707.9,1560.0 710.5,1557.3 713.1,1554.6 715.8,1551.9 718.4,1549.1 721.0,1546.4 723.7,1543.7 726.3,1540.9 728.9,1538.2 731.6,1535.5 734.2,1532.8 736.9,1530.0 739.5,1527.3 742.1,1524.6 744.8,1521.8 747.4,1519.1 750.0,1516.4 752.7,1513.7 753.8,1510.0 755.0,1506.3 756.2,1502.6 757.4,1498.9 758.6,1495.1 759.7,1491.4 760.9,1487.7 762.1,1484.0 763.3,1480.3 764.5,1476.6 765.7,1472.9 766.8,1469.2 768.0,1465.5 769.2,1461.8 770.4,1458.1 771.6,1454.4 772.7,1450.7 773.9,1447.0 775.1,1443.3 776.3,1439.6 777.5,1435.9 778.6,1432.2 779.8,1428.5 781.0,1424.8 782.2,1421.1 783.4,1417.4 784.5,1413.7 785.7,1410.0 786.9,1406.3 788.1,1402.6 789.3,1398.9 790.4,1395.2 791.6,1391.5 792.8,1387.8 794.0,1384.1 795.2,1380.4 796.3,1376.7 797.5,1373.0 800.6,1373.3 803.7,1373.6 806.7,1373.9 809.8,1374.2" class="road road-minor" /><polyline points="809.8,1374.2 812.7,1373.5 815.7,1372.8 818.3,1375.5 821.0,1378.1 823.6,1380.8 826.3,1383.4 828.9,1386.1 830.5,1389.5 832.0,1392.9 833.5,1396.3 835.1,1399.8 836.6,1403.2 838.2,1406.6 839.7,1410.1 841.3,1413.5 842.8,1416.9 844.3,1420.3 845.9,1423.8 847.4,1427.2 849.0,1430.6 850.5,1434.1 852.0,1437.5 855.9,1438.0 859.8,1438.4 863.6,1438.9 867.5,1439.4 871.3,1439.9 875.2,1440.3 876.9,1443.8 878.6,1447.3 880.3,1450.8 882.0,1454.2 883.7,1457.7 885.4,1461.2 887.2,1464.6 888.9,1468.1 890.6,1471.6 892.3,1475.1 894.0,1478.5 895.7,1482.0 897.4,1485.5 897.4,1488.8 897.4,1492.1 897.4,1495.4 897.4,1498.7" class="road road-minor" />
      <rect x="765.8" y="1371.5" width="7" height="7" class="settlement"><title>forest-village</title></rect><rect x="701.7" y="1572.5" width="7" height="7" class="settlement"><title>outlaw-hamlet</title></rect><rect x="893.9" y="1495.2" width="7" height="7" class="settlement"><title>sheriff-post</title></rect>
      <circle cx="915.5" cy="1413.5" r="1.8" class="guard" /><circle cx="909.5" cy="1416.9" r="1.8" class="guard" /><circle cx="909.5" cy="1410.0" r="1.8" class="guard" /><circle cx="819.9" cy="1382.1" r="1.8" class="guard" /><circle cx="817.2" cy="1375.7" r="1.8" class="guard" /><circle cx="824.1" cy="1376.6" r="1.8" class="guard" /><circle cx="808.0" cy="1500.3" r="1.8" class="guard" /><circle cx="814.7" cy="1498.5" r="1.8" class="guard" /><circle cx="812.9" cy="1505.2" r="1.8" class="guard" /><circle cx="808.3" cy="1372.1" r="1.8" class="guard" /><circle cx="809.2" cy="1379.0" r="1.8" class="guard" /><circle cx="802.9" cy="1376.4" r="1.8" class="guard" /><circle cx="745.0" cy="1581.9" r="1.8" class="guard" /><circle cx="738.1" cy="1582.0" r="1.8" class="guard" /><circle cx="741.5" cy="1576.0" r="1.8" class="guard" /><circle cx="674.5" cy="1533.2" r="1.8" class="guard" /><circle cx="675.4" cy="1526.4" r="1.8" class="guard" /><circle cx="680.9" cy="1530.5" r="1.8" class="guard" />
      <circle cx="746.8" cy="1356.6" r="2.7" class="cache" /><circle cx="804.4" cy="1525.0" r="2.7" class="cache" /><circle cx="686.1" cy="1521.6" r="2.7" class="cache" /><circle cx="907.7" cy="1585.6" r="2.7" class="cache" />
      <rect x="806.8" y="1372.2" width="6" height="4" class="crossing" /><rect x="794.9" y="1491.0" width="6" height="4" class="crossing" />
      <circle cx="688.8" cy="1351.5" r="5" class="camp"><title>campfire</title></circle>
      <path d="M 911.5 1407.5 L 917.5 1413.5 L 911.5 1419.5 L 905.5 1413.5 Z" class="objective"><title>objective</title></path>
    </g>
</svg>
