<?xml version="1.0" encoding="UTF-8"?>
<svg xmlns="http://www.w3.org/2000/svg" width="1088" height="1716" viewBox="0 0 1088 1716">
  <title>The People&apos;s Purse regional map curation contact sheet</title>
  <style>
    .sheet-bg { fill: #0d2118; }
    .sheet-title { fill: #f7e8b2; font: 700 26px Georgia, serif; }
    .sheet-meta, .legend { fill: #bcd0bd; font: 12px ui-monospace, monospace; }
    .panel-bg { fill: #173629; stroke: #54755a; stroke-width: 1; }
    .panel-title { fill: #f7e8b2; font: 700 12px ui-monospace, monospace; }
    .quality { fill: #bcd0bd; font: 10px ui-monospace, monospace; }
    .map-bg { fill: #365c39; stroke: #86a16f; stroke-width: 1; }
    .grid path { fill: none; stroke: #9bb58a; stroke-opacity: .2; stroke-width: .7; }
    .river { stroke: #4f9fbd; stroke-width: 15; stroke-linecap: round; opacity: .8; }
    .road { fill: none; stroke: #c5ad78; stroke-linecap: round; stroke-linejoin: round; }
    .road-major { stroke-width: 3.8; }
    .road-minor { stroke-width: 2.4; stroke-dasharray: 4 2; }
    .settlement { fill: #d08445; stroke: #f1c47a; stroke-width: 1; }
    .guard { fill: #cf4c3f; stroke: #6d1f1a; stroke-width: .7; }
    .cache { fill: #efca49; stroke: #5e4a0b; stroke-width: .8; }
    .crossing { fill: #e6e0c0; stroke: #554e39; stroke-width: .8; }
    .camp { fill: #ff9f3f; stroke: #fff0b2; stroke-width: 1.5; }
    .objective { fill: #e44737; stroke: #ffe1b5; stroke-width: 1.2; }
  </style>
  <rect width="1088" height="1716" class="sheet-bg" />
  <text x="24" y="34" class="sheet-title">The People&apos;s Purse · procedural map curation</text>
  <text x="24" y="57" class="sheet-meta">regional-map-baker@1 · sha256:ef4cd4dc2219e71eb5db4441f0ace370504b47d9572f924656dbbf42ad1b4233</text>
  <text x="24" y="78" class="legend">● camp · ◆ objective · ▬ crossing · ■ settlement · red guard · gold cache · tan road</text>
  
    <g class="panel">
      <rect x="24" y="104" width="508" height="378" rx="8" class="panel-bg" />
      <text x="40" y="124" class="panel-title">1. long-haul · seed 280604520 · mapq1:0141d0ca</text>
      <text x="40" y="142" class="quality">TF 0.83 · RC 0.93 · RR 0.91 · PS 1.00 · LL 0.65 · CO 1.00 · NV 0.63</text>
      <rect x="130" y="152" width="296" height="296" class="map-bg" />
      <g class="grid"><path d="M 130.0 152.0 V 448.0 M 130.0 152.0 H 426.0" /><path d="M 189.2 152.0 V 448.0 M 130.0 211.2 H 426.0" /><path d="M 248.4 152.0 V 448.0 M 130.0 270.4 H 426.0" /><path d="M 307.6 152.0 V 448.0 M 130.0 329.6 H 426.0" /><path d="M 366.8 152.0 V 448.0 M 130.0 388.8 H 426.0" /><path d="M 426.0 152.0 V 448.0 M 130.0 448.0 H 426.0" /></g>
      <line x1="295.0" y1="152.0" x2="265.4" y2="448.0" class="river" />
      <polyline points="330.3,420.5 326.8,420.7 323.2,420.8 319.6,421.0 316.1,421.2 312.5,421.3 308.9,421.5 305.1,420.7 301.3,420.0 297.5,419.2 293.7,418.5 289.9,417.7 286.1,417.0 282.3,416.2 282.7,412.3 283.1,408.4 283.5,404.5 283.9,400.6 284.3,396.6 284.7,392.7 280.8,392.3 276.9,392.0 273.0,391.6 269.1,391.2 265.3,390.8 261.4,390.4 257.5,390.0 257.1,393.9 256.7,397.8 256.3,401.8 255.9,405.7 255.5,409.6 255.1,413.5 252.5,412.5 249.8,411.5 247.1,410.4" class="road road-major" /><polyline points="247.1,410.4 249.8,411.5 252.5,412.5 255.1,413.5 255.5,409.6 255.9,405.7 256.3,401.8 256.7,397.8 257.1,393.9 257.5,390.0 260.9,390.4 264.3,390.7 267.7,391.0 271.1,391.4" class="road road-major" /><polyline points="289.6,206.3 286.2,205.9 282.8,205.6 279.4,205.2 276.0,204.9 272.7,206.6 269.3,208.2 266.0,209.9 262.6,211.6 259.3,213.3 256.0,214.9 252.6,216.6 249.3,218.3 245.5,217.4 241.6,216.5 237.8,215.6 234.0,214.7 230.1,213.9 226.3,213.0 222.5,212.1 218.7,211.2 214.8,210.3 211.0,209.4 207.2,208.5 203.3,207.7 199.5,206.8 195.7,205.9 191.9,205.0" class="road road-major" /><polyline points="191.9,205.0 188.5,203.5 185.1,201.9 181.7,200.4 178.4,198.8 175.0,197.3 171.6,195.8 168.3,194.2 164.9,192.7 161.5,191.1" class="road road-major" /><polyline points="395.1,375.1 391.6,374.0 388.1,372.9 384.7,371.9 381.2,370.8 377.7,369.7 374.3,368.6 370.8,367.5 367.3,366.4 363.7,367.1 360.1,367.8 356.4,368.5 352.5,367.9 348.7,367.4 344.8,366.8 340.9,366.3 337.1,365.8 333.2,365.2 329.3,364.7 325.4,364.1 321.6,363.6 317.7,363.0 313.8,362.5 310.0,361.9 306.1,361.4 302.2,360.8 298.3,360.3 294.5,359.8 290.6,359.2 286.7,358.7 286.4,362.4 286.0,366.2 285.6,370.0 285.2,373.7 284.8,377.5 284.5,381.3 284.1,385.1 283.7,388.8 283.3,392.6 280.3,392.3 277.2,392.0 274.1,391.7 271.1,391.4" class="road road-minor" /><polyline points="289.6,206.3 292.6,206.6 295.7,206.9 298.8,207.2 301.8,207.5 301.5,211.4 301.1,215.4 300.7,219.3 300.3,223.2 299.9,227.2 299.5,231.1 299.1,235.1 298.7,239.0 298.3,242.9 297.9,246.9 297.5,250.8 297.1,254.8 296.7,258.7 296.3,262.6 295.9,266.6 295.5,270.5 295.2,274.4 294.8,278.4 294.4,282.3 294.0,286.3 293.6,290.2 293.2,294.1 292.8,298.1 292.4,302.0 292.0,306.0 291.6,309.9 291.2,313.8 290.8,317.8 290.4,321.7 290.0,325.6 289.6,329.6 289.2,333.5 288.9,337.5 288.5,341.4 288.1,345.3 287.7,349.3 287.3,353.2 286.9,357.2 286.5,361.1 286.1,365.0 285.7,369.0 285.3,372.9 284.9,376.8 284.5,380.8 284.1,384.7 283.7,388.7 283.3,392.6 280.3,392.3 277.2,392.0 274.1,391.7 271.1,391.4" class="road road-minor" />
      <rect x="243.6" y="406.9" width="7" height="7" class="settlement"><title>forest-village</title></rect><rect x="391.6" y="371.6" width="7" height="7" class="settlement"><title>outlaw-hamlet</title></rect><rect x="188.4" y="201.5" width="7" height="7" class="settlement"><title>sheriff-post</title></rect>
      <circle cx="165.5" cy="191.1" r="1.8" class="guard" /><circle cx="159.5" cy="194.6" r="1.8" class="guard" /><circle cx="159.5" cy="187.7" r="1.8" class="guard" /><circle cx="299.7" cy="214.2" r="1.8" class="guard" /><circle cx="297.0" cy="207.8" r="1.8" class="guard" /><circle cx="303.9" cy="208.7" r="1.8" class="guard" /><circle cx="256.6" cy="386.4" r="1.8" class="guard" /><circle cx="263.3" cy="384.6" r="1.8" class="guard" /><circle cx="261.5" cy="391.2" r="1.8" class="guard" /><circle cx="246.6" cy="279.9" r="1.8" class="guard" /><circle cx="247.6" cy="286.7" r="1.8" class="guard" /><circle cx="241.2" cy="284.1" r="1.8" class="guard" /><circle cx="275.6" cy="360.3" r="1.8" class="guard" /><circle cx="268.7" cy="360.4" r="1.8" class="guard" /><circle cx="272.1" cy="354.4" r="1.8" class="guard" /><circle cx="220.5" cy="240.8" r="1.8" class="guard" /><circle cx="221.3" cy="234.0" r="1.8" class="guard" /><circle cx="226.8" cy="238.1" r="1.8" class="guard" /><circle cx="336.3" cy="294.2" r="1.8" class="guard" /><circle cx="342.9" cy="295.9" r="1.8" class="guard" /><circle cx="338.1" cy="300.8" r="1.8" class="guard" />
      <circle cx="217.7" cy="244.2" r="2.7" class="cache" /><circle cx="281.4" cy="416.8" r="2.7" class="cache" /><circle cx="167.6" cy="236.5" r="2.7" class="cache" /><circle cx="163.2" cy="358.6" r="2.7" class="cache" />
      <rect x="286.6" y="204.3" width="6" height="4" class="crossing" /><rect x="268.1" y="389.4" width="6" height="4" class="crossing" />
      <circle cx="330.3" cy="420.5" r="5" class="camp"><title>campfire</title></circle>
      <path d="M 161.5 185.1 L 167.5 191.1 L 161.5 197.1 L 155.5 191.1 Z" class="objective"><title>objective</title></path>
    </g>
    <g class="panel">
      <rect x="544" y="104" width="508" height="378" rx="8" class="panel-bg" />
      <text x="560" y="124" class="panel-title">2. cross-river · seed 3648607890 · mapq1:6b1fe159</text>
      <text x="560" y="142" class="quality">TF 0.83 · RC 0.99 · RR 0.77 · PS 0.88 · LL 0.65 · CO 0.96 · NV 0.50</text>
      <rect x="650" y="152" width="296" height="296" class="map-bg" />
      <g class="grid"><path d="M 650.0 152.0 V 448.0 M 650.0 152.0 H 946.0" /><path d="M 709.2 152.0 V 448.0 M 650.0 211.2 H 946.0" /><path d="M 768.4 152.0 V 448.0 M 650.0 270.4 H 946.0" /><path d="M 827.6 152.0 V 448.0 M 650.0 329.6 H 946.0" /><path d="M 886.8 152.0 V 448.0 M 650.0 388.8 H 946.0" /><path d="M 946.0 152.0 V 448.0 M 650.0 448.0 H 946.0" /></g>
      <line x1="815.0" y1="152.0" x2="785.4" y2="448.0" class="river" />
      <polyline points="907.4,363.5 909.2,361.5 911.0,359.4 912.9,357.4 911.1,354.2 909.4,351.1 907.7,347.9 906.0,344.7 904.3,341.5 902.6,338.3 900.8,335.1 899.1,331.9 897.4,328.7" class="road road-major" /><polyline points="897.4,328.7 899.1,331.9 900.8,335.1 902.6,338.3 904.3,341.5 906.0,344.7 907.7,347.9 909.4,351.1 911.1,354.2 912.9,357.4 909.0,357.9 905.2,358.4 901.3,358.9 897.5,359.4 893.6,359.9 889.8,360.4 886.0,360.9 882.1,361.4 878.3,361.8 874.4,362.3 870.6,362.8 866.7,363.3 862.9,363.8 862.5,360.1 862.0,356.3 861.6,352.6 861.1,348.8 860.7,345.0 860.3,341.3 859.8,337.5 859.4,333.8 858.9,330.0 858.5,326.3 858.1,322.5 857.6,318.8 857.2,315.0 856.7,311.3 856.3,307.5 855.9,303.8 855.4,300.0 851.6,300.1 847.9,300.2 844.1,300.4 840.3,300.5 836.5,300.6 832.7,300.7 828.9,300.9 825.1,301.0 821.4,301.1 817.6,301.2 813.8,301.4 813.4,305.2 813.0,309.0 812.6,312.8 812.3,316.7 811.9,320.5 811.5,324.3 811.1,328.1 810.7,332.0 810.3,335.8 810.0,339.6 809.6,343.4 809.2,347.3 808.8,351.1 808.4,354.9 808.1,358.8 807.7,362.6 807.3,366.4 806.9,370.2 806.5,374.1 806.1,377.9 805.8,381.7 805.4,385.5 805.0,389.4 804.6,393.2 804.2,397.0 800.8,396.7 797.4,396.3 794.0,396.0 790.6,395.7" class="road road-major" /><polyline points="809.1,211.2 805.6,211.5 802.2,211.8 798.7,212.2 795.2,212.5 791.5,213.3 787.8,214.1 784.1,215.0 780.4,215.8 776.7,216.6 773.0,217.4 769.3,218.3 765.5,217.4 761.6,216.5 757.8,215.6 754.0,214.7 750.1,213.9 746.3,213.0 742.5,212.1 738.7,211.2 734.8,210.3 731.0,209.4 727.2,208.5 723.3,207.7 719.5,206.8 715.7,205.9 711.9,205.0" class="road road-major" /><polyline points="711.9,205.0 710.0,208.3 708.1,211.6 706.2,214.9 704.3,218.2 702.5,221.5 700.6,224.8 698.7,228.1 696.8,231.4 694.9,234.7 693.1,238.0 691.2,241.3 689.3,244.6 687.4,247.9" class="road road-major" /><polyline points="705.2,406.0 708.5,406.0 711.9,406.0 715.2,406.0 718.5,406.0 719.4,402.3 720.4,398.6 721.3,394.9 722.3,391.1 723.2,387.4 724.1,383.7 725.1,380.0 726.0,376.2 727.0,372.5 727.9,368.8 728.9,365.1 729.8,361.3 730.8,357.6 731.7,353.9 735.4,353.4 739.0,352.8 742.7,352.3 746.4,351.7 750.0,351.2 753.7,350.7 756.0,353.8 758.4,356.9 760.7,360.0 763.0,363.1 765.3,366.2 767.7,369.3 770.0,372.5 772.3,375.6 774.7,378.7 777.0,381.8 779.3,384.9 779.0,388.1 778.7,391.3 778.4,394.4 781.4,394.7 784.5,395.0 787.6,395.4 790.6,395.7" class="road road-minor" /><polyline points="809.1,211.2 812.1,212.1 815.1,213.1 818.1,214.1 821.1,215.1 820.7,219.0 820.3,223.0 819.9,226.9 819.5,230.9 819.1,234.8 818.7,238.8 818.3,242.7 817.9,246.7 817.5,250.6 817.1,254.6 816.7,258.6 816.3,262.5 816.0,266.5 815.6,270.4 815.2,274.4 814.8,278.3 814.4,282.3 814.0,286.2 813.6,290.2 813.2,294.1 812.8,298.1 812.4,302.0 812.0,306.0 811.6,309.9 811.2,313.9 810.8,317.8 810.4,321.8 810.0,325.7 809.6,329.7 809.2,333.6 808.8,337.6 808.4,341.6 808.0,345.5 807.7,349.5 807.3,353.4 806.9,357.4 806.5,361.3 806.1,365.3 805.7,369.2 805.3,373.2 804.9,377.1 804.5,381.1 804.1,385.0 803.7,389.0 803.3,392.9 802.9,396.9 799.8,396.6 796.8,396.3 793.7,396.0 790.6,395.7" class="road road-minor" />
      <rect x="893.9" y="325.2" width="7" height="7" class="settlement"><title>forest-village</title></rect><rect x="701.7" y="402.5" width="7" height="7" class="settlement"><title>outlaw-hamlet</title></rect><rect x="708.4" y="201.5" width="7" height="7" class="settlement"><title>sheriff-post</title></rect>
      <circle cx="691.4" cy="247.9" r="1.8" class="guard" /><circle cx="685.4" cy="251.3" r="1.8" class="guard" /><circle cx="685.4" cy="244.5" r="1.8" class="guard" /><circle cx="819.2" cy="219.1" r="1.8" class="guard" /><circle cx="816.5" cy="212.7" r="1.8" class="guard" /><circle cx="823.4" cy="213.6" r="1.8" class="guard" /><circle cx="776.2" cy="390.7" r="1.8" class="guard" /><circle cx="782.8" cy="388.9" r="1.8" class="guard" /><circle cx="781.1" cy="395.5" r="1.8" class="guard" /><circle cx="810.9" cy="291.7" r="1.8" class="guard" /><circle cx="811.8" cy="298.5" r="1.8" class="guard" /><circle cx="805.5" cy="295.9" r="1.8" class="guard" /><circle cx="685.2" cy="421.7" r="1.8" class="guard" /><circle cx="678.3" cy="421.8" r="1.8" class="guard" /><circle cx="681.7" cy="415.8" r="1.8" class="guard" />
      <circle cx="914.6" cy="412.5" r="2.7" class="cache" /><circle cx="742.9" cy="409.0" r="2.7" class="cache" /><circle cx="677.7" cy="415.2" r="2.7" class="cache" /><circle cx="686.7" cy="357.8" r="2.7" class="cache" />
      <rect x="806.1" y="209.2" width="6" height="4" class="crossing" /><rect x="787.6" y="393.7" width="6" height="4" class="crossing" />
      <circle cx="907.4" cy="363.5" r="5" class="camp"><title>campfire</title></circle>
      <path d="M 687.4 241.9 L 693.4 247.9 L 687.4 253.9 L 681.4 247.9 Z" class="objective"><title>objective</title></path>
    </g>
    <g class="panel">
      <rect x="24" y="494" width="508" height="378" rx="8" class="panel-bg" />
      <text x="40" y="514" class="panel-title">3. cross-river · seed 3448269906 · mapq1:3e7fe574</text>
      <text x="40" y="532" class="quality">TF 0.83 · RC 0.87 · RR 1.00 · PS 0.94 · LL 0.60 · CO 0.93 · NV 0.64</text>
      <rect x="130" y="542" width="296" height="296" class="map-bg" />
      <g class="grid"><path d="M 130.0 542.0 V 838.0 M 130.0 542.0 H 426.0" /><path d="M 189.2 542.0 V 838.0 M 130.0 601.2 H 426.0" /><path d="M 248.4 542.0 V 838.0 M 130.0 660.4 H 426.0" /><path d="M 307.6 542.0 V 838.0 M 130.0 719.6 H 426.0" /><path d="M 366.8 542.0 V 838.0 M 130.0 778.8 H 426.0" /><path d="M 426.0 542.0 V 838.0 M 130.0 838.0 H 426.0" /></g>
      <line x1="295.0" y1="542.0" x2="265.4" y2="838.0" class="river" />
      <polyline points="160.4,634.8 162.7,637.8 164.9,640.7 167.2,643.7 169.5,646.6 171.7,649.5 174.0,652.5 176.3,655.4 178.5,658.3 180.8,661.3" class="road road-major" /><polyline points="180.8,661.3 178.8,658.1 176.9,654.9 174.9,651.7 173.0,648.5 171.0,645.3 169.0,642.1 167.1,638.9 165.1,635.8 163.1,632.6 167.1,632.5 171.1,632.5 175.0,632.5 179.0,632.5 183.0,632.4 186.9,632.4 190.9,632.4 194.9,632.4 198.8,632.3 202.8,632.3 206.7,632.3 210.7,632.2 214.7,632.2 218.6,632.2 222.6,632.2 226.6,632.1 230.5,632.1 234.5,632.1 238.5,632.1 242.4,632.0 246.4,632.0 250.4,632.0 254.3,632.0 258.3,631.9 262.2,631.9 266.2,631.9 270.2,631.8 274.1,631.8 278.1,631.8 282.1,631.8 286.0,631.7" class="road road-major" /><polyline points="286.0,631.7 289.4,632.3 292.8,632.8 296.2,633.4 299.5,633.9 299.2,637.5 298.8,641.1 298.5,644.7 298.1,648.3 297.7,651.9 297.4,655.5 297.0,659.1 296.7,662.6 300.6,662.9 304.5,663.1 308.5,663.3 312.4,663.5 316.3,663.8 320.3,664.0 324.2,664.2 328.1,664.4 332.0,664.7 332.5,668.5 333.0,672.4 333.5,676.3 333.9,680.2 334.4,684.1 334.9,687.9 335.3,691.8 335.8,695.7 336.3,699.6 336.8,703.4 337.2,707.3 337.7,711.2 338.2,715.1 338.6,718.9 339.1,722.8 339.6,726.7 340.1,730.6 340.5,734.4 341.0,738.3 341.5,742.2 342.0,746.1 342.4,749.9 342.9,753.8 346.7,753.3 350.6,752.8 354.4,752.3 358.3,751.8 362.1,751.4 366.0,750.9 369.8,750.4 373.6,749.9 377.5,749.4 381.3,748.9 385.2,748.4 389.0,747.9 392.9,747.4 392.9,743.6 392.9,739.8 392.9,735.9 392.9,732.1 392.9,728.3 392.9,724.5 392.9,720.6 392.9,716.8 392.9,713.0 392.9,709.1 392.9,705.3 392.9,701.5 392.9,697.7 392.9,693.8 392.9,690.0 390.9,686.8 388.9,683.6 387.0,680.4 385.0,677.2 383.0,674.0 381.1,670.9 379.1,667.7 377.2,664.5 375.2,661.3" class="road road-major" /><polyline points="375.2,661.3 377.4,658.2 379.7,655.1 381.9,652.0 384.2,648.9 386.4,645.8 388.6,642.7 390.9,639.6 393.1,636.5 395.4,633.4 397.6,630.3" class="road road-major" /><polyline points="185.2,796.0 188.5,796.0 191.9,796.0 195.2,796.0 198.5,796.0 199.4,792.3 200.4,788.6 201.3,784.9 202.3,781.1 203.2,777.4 204.1,773.7 205.1,770.0 206.0,766.2 207.0,762.5 207.9,758.8 208.9,755.1 209.8,751.3 210.8,747.6 211.7,743.9 215.6,744.3 219.5,744.6 223.4,745.0 227.3,745.3 231.3,745.7 235.2,746.0 239.1,746.4 243.0,746.8 246.9,747.1 250.8,747.5 254.7,747.8 258.6,748.2 262.5,748.5 266.4,748.9 270.3,749.2 274.2,749.6" class="road road-minor" /><polyline points="286.0,631.7 289.1,632.3 292.1,632.8 295.2,633.3 298.2,633.8 297.8,637.6 297.5,641.5 297.1,645.3 296.7,649.1 296.3,652.9 295.9,656.8 295.5,660.6 295.2,664.4 294.8,668.3 294.4,672.1 294.0,675.9 293.6,679.7 293.2,683.6 292.9,687.4 292.5,691.2 292.1,695.1 291.7,698.9 291.3,702.7 290.9,706.5 290.6,710.4 290.2,714.2 289.8,718.0 289.4,721.9 289.0,725.7 288.6,729.5 288.3,733.3 287.9,737.2 287.5,741.0 287.1,744.8 286.7,748.7 283.6,748.9 280.5,749.1 277.4,749.4 274.2,749.6" class="road road-minor" />
      <rect x="177.3" y="657.8" width="7" height="7" class="settlement"><title>forest-village</title></rect><rect x="181.7" y="792.5" width="7" height="7" class="settlement"><title>outlaw-hamlet</title></rect><rect x="371.7" y="657.8" width="7" height="7" class="settlement"><title>sheriff-post</title></rect>
      <circle cx="401.6" cy="630.3" r="1.8" class="guard" /><circle cx="395.6" cy="633.8" r="1.8" class="guard" /><circle cx="395.6" cy="626.9" r="1.8" class="guard" /><circle cx="296.1" cy="639.7" r="1.8" class="guard" /><circle cx="293.5" cy="633.3" r="1.8" class="guard" /><circle cx="300.3" cy="634.2" r="1.8" class="guard" /><circle cx="259.8" cy="744.6" r="1.8" class="guard" /><circle cx="266.4" cy="742.8" r="1.8" class="guard" /><circle cx="264.7" cy="749.5" r="1.8" class="guard" /><circle cx="287.1" cy="622.3" r="1.8" class="guard" /><circle cx="288.1" cy="629.1" r="1.8" class="guard" /><circle cx="281.7" cy="626.5" r="1.8" class="guard" /><circle cx="336.0" cy="685.8" r="1.8" class="guard" /><circle cx="329.1" cy="685.9" r="1.8" class="guard" /><circle cx="332.5" cy="679.9" r="1.8" class="guard" /><circle cx="213.3" cy="756.4" r="1.8" class="guard" /><circle cx="214.2" cy="749.5" r="1.8" class="guard" /><circle cx="219.7" cy="753.7" r="1.8" class="guard" />
      <circle cx="387.3" cy="684.9" r="2.7" class="cache" /><circle cx="169.7" cy="568.7" r="2.7" class="cache" /><circle cx="336.9" cy="808.6" r="2.7" class="cache" /><circle cx="219.2" cy="690.1" r="2.7" class="cache" />
      <rect x="283.0" y="629.7" width="6" height="4" class="crossing" /><rect x="271.2" y="747.6" width="6" height="4" class="crossing" />
      <circle cx="160.4" cy="634.8" r="5" class="camp"><title>campfire</title></circle>
      <path d="M 397.6 624.3 L 403.6 630.3 L 397.6 636.3 L 391.6 630.3 Z" class="objective"><title>objective</title></path>
    </g>
    <g class="panel">
      <rect x="544" y="494" width="508" height="378" rx="8" class="panel-bg" />
      <text x="560" y="514" class="panel-title">4. cross-river · seed 1450388841 · mapq1:0abb8711</text>
      <text x="560" y="532" class="quality">TF 0.83 · RC 0.69 · RR 0.75 · PS 1.00 · LL 0.65 · CO 0.90 · NV 0.70</text>
      <rect x="650" y="542" width="296" height="296" class="map-bg" />
      <g class="grid"><path d="M 650.0 542.0 V 838.0 M 650.0 542.0 H 946.0" /><path d="M 709.2 542.0 V 838.0 M 650.0 601.2 H 946.0" /><path d="M 768.4 542.0 V 838.0 M 650.0 660.4 H 946.0" /><path d="M 827.6 542.0 V 838.0 M 650.0 719.6 H 946.0" /><path d="M 886.8 542.0 V 838.0 M 650.0 778.8 H 946.0" /><path d="M 946.0 542.0 V 838.0 M 650.0 838.0 H 946.0" /></g>
      <line x1="815.0" y1="542.0" x2="785.4" y2="838.0" class="river" />
      <polyline points="737.5,581.7 741.0,583.2 744.5,584.6 748.1,586.1 751.6,587.6 755.1,589.1 758.7,590.6 762.2,592.0 765.7,593.5 769.3,595.0" class="road road-major" /><polyline points="769.3,595.0 770.4,598.6 771.5,602.2 772.7,605.8 773.8,609.4 774.9,613.0 776.0,616.7 777.1,620.3 778.3,623.9 779.4,627.5 780.5,631.1 781.6,634.7 782.8,638.3 783.9,641.9 785.0,645.5 786.1,649.1 787.3,652.7 788.4,656.3 789.5,659.9 789.1,663.7 788.7,667.5 788.4,671.3 788.0,675.1 787.6,679.0 787.2,682.8 786.8,686.6 786.5,690.4 786.1,694.2 785.7,698.0 785.3,701.8 784.9,705.6 788.3,705.9 791.7,706.3 795.1,706.6 798.5,706.9" class="road road-major" /><polyline points="798.5,706.9 801.9,707.3 805.3,707.6 808.7,708.0 812.1,708.3 812.4,704.9 812.8,701.5 813.1,698.1 813.5,694.7 813.8,691.4 817.6,691.2 821.4,691.1 825.1,691.0 828.9,690.9 832.7,690.7 836.5,690.6 840.3,690.5 844.1,690.4 847.9,690.2 851.6,690.1 855.4,690.0 855.9,693.8 856.3,697.5 856.7,701.3 857.2,705.0 857.6,708.8 858.1,712.5 858.5,716.3 858.9,720.0 859.4,723.8 859.8,727.5 860.3,731.3 860.7,735.0 861.1,738.8 861.6,742.6 862.0,746.3 862.5,750.1 862.9,753.8 866.7,753.3 870.6,752.8 874.4,752.3 878.3,751.8 882.1,751.4 886.0,750.9 889.8,750.4 893.6,749.9 897.5,749.4 901.3,748.9 905.2,748.4 909.0,747.9 912.9,747.4 912.9,743.6 912.9,739.8 912.9,735.9 912.9,732.1 912.9,728.3 912.9,724.5 912.9,720.6 912.9,716.8 912.9,713.0 912.9,709.1 912.9,705.3 912.9,701.5 912.9,697.7 912.9,693.8 912.9,690.0 910.9,686.8 908.9,683.6 907.0,680.4 905.0,677.2 903.0,674.0 901.1,670.9 899.1,667.7 897.2,664.5 895.2,661.3" class="road road-major" /><polyline points="895.2,661.3 897.1,664.3 899.1,667.3 901.0,670.4 903.0,673.4 904.9,676.4 906.8,679.4 908.8,682.4 910.7,685.5 912.7,688.5" class="road road-major" /><polyline points="705.2,796.0 708.5,796.0 711.9,796.0 715.2,796.0 718.5,796.0 719.4,792.3 720.4,788.6 721.3,784.9 722.3,781.1 723.2,777.4 724.1,773.7 725.1,770.0 726.0,766.2 727.0,762.5 727.9,758.8 728.9,755.1 729.8,751.3 730.8,747.6 731.7,743.9 735.4,743.4 739.0,742.8 742.7,742.3 746.4,741.7 750.0,741.2 753.7,740.7 756.0,743.8 758.4,746.9 760.7,750.0 763.0,753.1 765.3,756.2 767.7,759.3 770.0,762.5 772.3,765.6 774.7,768.7 777.0,771.8 779.3,774.9 779.0,777.8 778.7,780.8 778.5,783.7 781.5,784.0 784.6,784.3 787.7,784.6 790.7,784.9" class="road road-minor" /><polyline points="798.5,706.9 801.6,707.3 804.6,707.6 807.7,707.9 810.8,708.2 810.4,712.1 810.0,716.0 809.6,719.9 809.2,723.8 808.8,727.7 808.4,731.6 808.1,735.5 807.7,739.4 807.3,743.2 806.9,747.1 806.5,751.0 806.1,754.9 805.7,758.8 805.3,762.7 804.9,766.6 804.5,770.5 804.2,774.4 803.8,778.3 803.4,782.2 803.0,786.1 799.9,785.8 796.9,785.5 793.8,785.2 790.7,784.9" class="road road-minor" />
      <rect x="765.8" y="591.5" width="7" height="7" class="settlement"><title>forest-village</title></rect><rect x="701.7" y="792.5" width="7" height="7" class="settlement"><title>outlaw-hamlet</title></rect><rect x="891.7" y="657.8" width="7" height="7" class="settlement"><title>sheriff-post</title></rect>
      <circle cx="916.6" cy="688.5" r="1.8" class="guard" /><circle cx="910.7" cy="691.9" r="1.8" class="guard" /><circle cx="910.7" cy="685.1" r="1.8" class="guard" /><circle cx="814.5" cy="716.0" r="1.8" class="guard" /><circle cx="811.9" cy="709.6" r="1.8" class="guard" /><circle cx="818.7" cy="710.5" r="1.8" class="guard" /><circle cx="776.3" cy="779.9" r="1.8" class="guard" /><circle cx="782.9" cy="778.1" r="1.8" class="guard" /><circle cx="781.2" cy="784.8" r="1.8" class="guard" /><circle cx="833.2" cy="624.8" r="1.8" class="guard" /><circle cx="834.1" cy="631.6" r="1.8" class="guard" /><circle cx="827.7" cy="629.0" r="1.8" class="guard" /><circle cx="687.4" cy="632.7" r="1.8" class="guard" /><circle cx="680.5" cy="632.8" r="1.8" class="guard" /><circle cx="683.9" cy="626.8" r="1.8" class="guard" /><circle cx="741.6" cy="695.0" r="1.8" class="guard" /><circle cx="742.4" cy="688.1" r="1.8" class="guard" /><circle cx="747.9" cy="692.3" r="1.8" class="guard" /><circle cx="904.6" cy="739.8" r="1.8" class="guard" /><circle cx="911.3" cy="741.5" r="1.8" class="guard" /><circle cx="906.4" cy="746.5" r="1.8" class="guard" />
      <circle cx="685.1" cy="687.4" r="2.7" class="cache" /><circle cx="743.4" cy="637.4" r="2.7" class="cache" /><circle cx="740.7" cy="689.7" r="2.7" class="cache" /><circle cx="851.6" cy="803.4" r="2.7" class="cache" />
      <rect x="795.5" y="704.9" width="6" height="4" class="crossing" /><rect x="787.7" y="782.9" width="6" height="4" class="crossing" />
      <circle cx="737.5" cy="581.7" r="5" class="camp"><title>campfire</title></circle>
      <path d="M 912.7 682.5 L 918.7 688.5 L 912.7 694.5 L 906.7 688.5 Z" class="objective"><title>objective</title></path>
    </g>
    <g class="panel">
      <rect x="24" y="884" width="508" height="378" rx="8" class="panel-bg" />
      <text x="40" y="904" class="panel-title">5. central-expedition · seed 3518969603 · mapq1:43e97fce</text>
      <text x="40" y="922" class="quality">TF 0.83 · RC 0.90 · RR 0.76 · PS 1.00 · LL 0.79 · CO 0.90 · NV 0.44</text>
      <rect x="130" y="932" width="296" height="296" class="map-bg" />
      <g class="grid"><path d="M 130.0 932.0 V 1228.0 M 130.0 932.0 H 426.0" /><path d="M 189.2 932.0 V 1228.0 M 130.0 991.2 H 426.0" /><path d="M 248.4 932.0 V 1228.0 M 130.0 1050.4 H 426.0" /><path d="M 307.6 932.0 V 1228.0 M 130.0 1109.6 H 426.0" /><path d="M 366.8 932.0 V 1228.0 M 130.0 1168.8 H 426.0" /><path d="M 426.0 932.0 V 1228.0 M 130.0 1228.0 H 426.0" /></g>
      <line x1="295.0" y1="932.0" x2="265.4" y2="1228.0" class="river" />
      <polyline points="222.6,1028.2 218.8,1027.9 215.1,1027.5 211.4,1027.2 207.7,1026.8 204.0,1026.5 200.3,1026.1 196.6,1025.8 192.8,1025.4 189.1,1025.0 185.4,1024.7 181.7,1024.3 178.0,1024.0 174.3,1023.6 170.6,1023.3 166.8,1022.9 163.1,1022.6 165.1,1025.8 167.1,1028.9 169.0,1032.1 171.0,1035.3 173.0,1038.5 174.9,1041.7 176.9,1044.9 178.8,1048.1 180.8,1051.3" class="road road-major" /><polyline points="180.8,1051.3 178.8,1048.1 176.9,1044.9 174.9,1041.7 173.0,1038.5 171.0,1035.3 169.0,1032.1 167.1,1028.9 165.1,1025.8 163.1,1022.6 166.9,1021.6 170.6,1020.6 174.3,1019.6 178.1,1018.6 181.8,1017.6 185.6,1016.6 189.3,1015.5 193.0,1014.5 196.8,1013.5 200.5,1012.5 204.2,1011.5 208.0,1010.5 211.7,1009.5 215.5,1008.5 219.2,1007.5 222.9,1006.5 226.7,1005.5 230.4,1004.5 234.1,1003.5 237.9,1002.5 241.6,1001.5 245.3,1000.5 249.1,999.5 252.8,998.5 256.6,997.5 260.3,996.5 264.0,995.5 267.8,994.5 271.5,993.5 275.2,992.5 278.7,992.4 282.1,992.4 285.5,992.3 289.0,992.3" class="road road-major" /><polyline points="274.6,1136.0 271.2,1136.1 267.7,1136.1 264.3,1136.1 260.9,1136.1 260.5,1139.9 260.1,1143.7 259.7,1147.6 259.4,1151.4 259.0,1155.2 258.6,1159.0 258.2,1162.9 257.8,1166.7 257.4,1170.5 257.1,1174.4 256.7,1178.2 256.3,1182.0 255.9,1185.8 255.5,1189.7 255.1,1193.5 252.5,1192.5 249.8,1191.5 247.1,1190.4" class="road road-major" /><polyline points="247.1,1190.4 243.2,1190.6 239.3,1190.8 235.5,1191.0 231.6,1191.2 227.7,1191.4 223.8,1191.5 220.0,1191.7 216.1,1191.9 212.2,1192.1 208.3,1192.3 204.5,1192.5 200.6,1192.6 196.7,1192.8 192.8,1193.0 189.0,1193.2 185.1,1193.4 181.2,1193.6 177.3,1193.8 173.5,1193.9 169.6,1194.1" class="road road-major" /><polyline points="370.8,991.6 371.4,995.5 372.1,999.4 372.8,1003.3 373.4,1007.3 374.1,1011.2 374.8,1015.1 375.4,1019.0 376.1,1022.9 376.7,1026.8 377.4,1030.7 378.1,1034.6 378.7,1038.5 379.4,1042.4 380.1,1046.3 380.7,1050.2 381.4,1054.1 382.0,1058.0 382.7,1061.9 383.4,1065.8 384.0,1069.7 384.7,1073.6 385.4,1077.5 386.0,1081.4 386.7,1085.3 387.3,1089.2 388.0,1093.1 388.7,1097.0 389.3,1100.9 390.0,1104.8 390.7,1108.7 388.7,1111.9 386.8,1115.0 384.8,1118.1 382.9,1121.3 380.9,1124.4 379.0,1127.6 377.1,1130.7 375.1,1133.9 373.2,1137.0 371.2,1140.2 369.3,1143.3 367.3,1146.4 363.8,1145.4 360.2,1144.4 356.7,1143.4 353.2,1142.4 349.6,1141.4 346.1,1140.4 342.5,1139.4 339.0,1138.4 335.4,1137.4 333.0,1134.3 330.7,1131.2 328.3,1128.1 325.9,1124.9 323.5,1121.8 321.1,1118.7 318.7,1115.6 316.3,1112.5 314.0,1109.3 311.6,1106.2 309.2,1103.1 306.8,1100.0 304.4,1096.8 302.0,1093.7 299.6,1090.6 297.2,1087.5 294.9,1084.3 292.5,1081.2 292.9,1077.3 293.3,1073.4 293.6,1069.5 294.0,1065.6 294.4,1061.6 294.8,1057.7 295.2,1053.8 295.6,1049.9 296.0,1046.0 296.4,1042.1 296.8,1038.2 297.2,1034.2 297.6,1030.3 298.0,1026.4 298.3,1022.5 298.7,1018.6 299.1,1014.7 299.5,1010.7 299.9,1006.8 300.3,1002.9 300.7,999.0 301.1,995.1 298.1,994.4 295.0,993.7 292.0,993.0 289.0,992.3" class="road road-minor" /><polyline points="289.0,992.3 292.0,993.0 295.0,993.7 298.1,994.4 301.1,995.1 300.7,999.0 300.3,1003.0 299.9,1006.9 299.5,1010.9 299.1,1014.8 298.7,1018.8 298.3,1022.7 297.9,1026.7 297.5,1030.6 297.1,1034.6 296.7,1038.5 296.3,1042.5 296.0,1046.4 295.6,1050.4 295.2,1054.3 294.8,1058.3 294.4,1062.2 294.0,1066.2 293.6,1070.1 293.2,1074.1 292.8,1078.0 292.4,1082.0 292.0,1085.9 291.6,1089.9 291.2,1093.8 290.8,1097.8 290.4,1101.7 290.0,1105.7 289.6,1109.6 289.2,1113.6 288.8,1117.5 288.4,1121.5 288.1,1125.4 287.7,1129.4 287.3,1133.3 286.9,1137.3 283.8,1137.0 280.7,1136.7 277.7,1136.3 274.6,1136.0" class="road road-minor" />
      <rect x="177.3" y="1047.8" width="7" height="7" class="settlement"><title>forest-village</title></rect><rect x="367.3" y="988.1" width="7" height="7" class="settlement"><title>outlaw-hamlet</title></rect><rect x="243.6" y="1186.9" width="7" height="7" class="settlement"><title>sheriff-post</title></rect>
      <circle cx="173.6" cy="1194.1" r="1.8" class="guard" /><circle cx="167.6" cy="1197.6" r="1.8" class="guard" /><circle cx="167.6" cy="1190.7" r="1.8" class="guard" /><circle cx="299.1" cy="1000.2" r="1.8" class="guard" /><circle cx="296.4" cy="993.8" r="1.8" class="guard" /><circle cx="303.3" cy="994.7" r="1.8" class="guard" /><circle cx="260.2" cy="1131.1" r="1.8" class="guard" /><circle cx="266.8" cy="1129.2" r="1.8" class="guard" /><circle cx="265.0" cy="1135.9" r="1.8" class="guard" /><circle cx="204.2" cy="1100.9" r="1.8" class="guard" /><circle cx="205.1" cy="1107.7" r="1.8" class="guard" /><circle cx="198.8" cy="1105.1" r="1.8" class="guard" /><circle cx="335.5" cy="1082.7" r="1.8" class="guard" /><circle cx="328.6" cy="1082.7" r="1.8" class="guard" /><circle cx="332.0" cy="1076.7" r="1.8" class="guard" /><circle cx="272.7" cy="1203.1" r="1.8" class="guard" /><circle cx="273.6" cy="1196.3" r="1.8" class="guard" /><circle cx="279.1" cy="1200.4" r="1.8" class="guard" />
      <circle cx="389.0" cy="970.9" r="2.7" class="cache" /><circle cx="335.6" cy="965.6" r="2.7" class="cache" /><circle cx="331.5" cy="1138.6" r="2.7" class="cache" /><circle cx="390.4" cy="1134.9" r="2.7" class="cache" />
      <rect x="286.0" y="990.3" width="6" height="4" class="crossing" /><rect x="271.6" y="1134.0" width="6" height="4" class="crossing" />
      <circle cx="222.6" cy="1028.2" r="5" class="camp"><title>campfire</title></circle>
      <path d="M 169.6 1188.1 L 175.6 1194.1 L 169.6 1200.1 L 163.6 1194.1 Z" class="objective"><title>objective</title></path>
    </g>
    <g class="panel">
      <rect x="544" y="884" width="508" height="378" rx="8" class="panel-bg" />
      <text x="560" y="904" class="panel-title">6. central-expedition · seed 163161187 · mapq1:33866360</text>
      <text x="560" y="922" class="quality">TF 0.83 · RC 0.83 · RR 0.77 · PS 0.96 · LL 0.69 · CO 1.00 · NV 0.65</text>
      <rect x="650" y="932" width="296" height="296" class="map-bg" />
      <g class="grid"><path d="M 650.0 932.0 V 1228.0 M 650.0 932.0 H 946.0" /><path d="M 709.2 932.0 V 1228.0 M 650.0 991.2 H 946.0" /><path d="M 768.4 932.0 V 1228.0 M 650.0 1050.4 H 946.0" /><path d="M 827.6 932.0 V 1228.0 M 650.0 1109.6 H 946.0" /><path d="M 886.8 932.0 V 1228.0 M 650.0 1168.8 H 946.0" /><path d="M 946.0 932.0 V 1228.0 M 650.0 1228.0 H 946.0" /></g>
      <line x1="815.0" y1="932.0" x2="785.4" y2="1228.0" class="river" />
      <polyline points="861.3,1084.7 864.9,1085.7 868.5,1086.8 872.1,1087.9 875.7,1089.0 879.3,1090.1 883.0,1091.1 886.6,1092.2 890.2,1093.3 893.8,1094.4 897.4,1095.5 897.4,1098.8 897.4,1102.1 897.4,1105.4 897.4,1108.7" class="road road-major" /><polyline points="897.4,1108.7 897.4,1105.4 897.4,1102.1 897.4,1098.8 897.4,1095.5 893.9,1094.2 890.4,1092.9 886.9,1091.6 883.4,1090.3 879.9,1089.0 876.4,1087.7 872.9,1086.4 869.4,1085.2 865.9,1083.9 862.4,1082.6 858.9,1081.3 855.4,1080.0 851.6,1080.1 847.9,1080.2 844.1,1080.4 840.3,1080.5 836.5,1080.6 832.7,1080.7 828.9,1080.9 825.1,1081.0 821.4,1081.1 817.6,1081.2 813.8,1081.4 813.4,1085.2 813.0,1089.1 812.6,1093.0 812.2,1096.9 811.9,1100.8 811.5,1104.6 811.1,1108.5 810.7,1112.4 810.3,1116.3 809.9,1120.2 809.5,1124.0 809.1,1127.9 808.7,1131.8 808.4,1135.7 808.0,1139.6 807.6,1143.4 807.2,1147.3 806.8,1151.2 806.4,1155.1 806.0,1159.0 805.6,1162.8 805.3,1166.7 804.9,1170.6 801.5,1170.3 798.1,1169.9 794.7,1169.6 791.3,1169.2" class="road road-major" /><polyline points="809.6,985.9 813.0,986.3 816.4,986.6 819.8,986.9 823.2,987.3 822.8,991.1 822.4,995.0 822.0,998.8 821.7,1002.7 821.3,1006.5 820.9,1010.3 820.5,1014.2 820.1,1018.0 819.7,1021.9 819.4,1025.7 819.0,1029.6 818.6,1033.4 818.2,1037.3 817.8,1041.1 817.4,1045.0 817.0,1048.8 816.7,1052.6 820.6,1052.9 824.5,1053.1 828.5,1053.3 832.4,1053.5 836.3,1053.8 840.3,1054.0 844.2,1054.2 848.1,1054.4 852.0,1054.7 852.5,1058.3 853.0,1061.9 853.5,1065.5 854.0,1069.1 854.5,1072.8 854.9,1076.4 855.4,1080.0 858.9,1081.3 862.4,1082.6 865.9,1083.9 869.4,1085.2 872.9,1086.4 876.4,1087.7 879.9,1089.0 883.4,1090.3 886.9,1091.6 890.4,1092.9 893.9,1094.2 897.4,1095.5 898.3,1091.8 899.2,1088.1 900.2,1084.4 901.1,1080.7 902.0,1077.1 902.9,1073.4 903.8,1069.7 904.8,1066.0 905.7,1062.3 906.6,1058.6 907.5,1055.0 908.4,1051.3 907.3,1047.6 906.2,1043.8 905.1,1040.1 904.0,1036.4 902.9,1032.6 901.8,1028.9 900.7,1025.2 899.6,1021.5 898.5,1017.7 897.4,1014.0 896.3,1010.3 895.2,1006.6 894.1,1002.8 893.0,999.1 891.9,995.4 890.8,991.6" class="road road-major" /><polyline points="890.8,991.6 893.3,988.9 895.8,986.1 898.4,983.4 900.9,980.6 903.5,977.9 906.0,975.1 908.5,972.4 911.1,969.6 913.6,966.9 916.1,964.1" class="road road-major" /><polyline points="705.2,1186.0 708.5,1186.0 711.9,1186.0 715.2,1186.0 718.5,1186.0 719.4,1182.3 720.4,1178.6 721.3,1174.9 722.3,1171.1 723.2,1167.4 724.1,1163.7 725.1,1160.0 726.0,1156.2 727.0,1152.5 727.9,1148.8 728.9,1145.1 729.8,1141.3 730.8,1137.6 731.7,1133.9 735.4,1133.4 739.0,1132.8 742.7,1132.3 746.4,1131.7 750.0,1131.2 753.7,1130.7 756.0,1133.8 758.4,1136.9 760.7,1140.0 763.0,1143.1 765.3,1146.2 767.7,1149.3 770.0,1152.5 772.3,1155.6 774.7,1158.7 777.0,1161.8 779.3,1164.9 782.3,1166.0 785.3,1167.1 788.3,1168.2 791.3,1169.2" class="road road-minor" /><polyline points="809.6,985.9 812.7,986.2 815.7,986.5 818.8,986.8 821.9,987.1 821.5,991.1 821.1,995.0 820.7,998.9 820.3,1002.8 819.9,1006.7 819.5,1010.7 819.1,1014.6 818.7,1018.5 818.4,1022.4 818.0,1026.3 817.6,1030.2 817.2,1034.2 816.8,1038.1 816.4,1042.0 816.0,1045.9 815.6,1049.8 815.2,1053.8 814.8,1057.7 814.4,1061.6 814.0,1065.5 813.7,1069.4 813.3,1073.3 812.9,1077.3 812.5,1081.2 812.1,1085.1 811.7,1089.0 811.3,1092.9 810.9,1096.9 810.5,1100.8 810.1,1104.7 809.7,1108.6 809.3,1112.5 809.0,1116.4 808.6,1120.4 808.2,1124.3 807.8,1128.2 807.4,1132.1 807.0,1136.0 806.6,1139.9 806.2,1143.9 805.8,1147.8 805.4,1151.7 805.0,1155.6 804.6,1159.5 804.3,1163.5 803.9,1167.4 800.7,1167.8 797.6,1168.3 794.4,1168.8 791.3,1169.2" class="road road-minor" />
      <rect x="893.9" y="1105.2" width="7" height="7" class="settlement"><title>forest-village</title></rect><rect x="701.7" y="1182.5" width="7" height="7" class="settlement"><title>outlaw-hamlet</title></rect><rect x="887.3" y="988.1" width="7" height="7" class="settlement"><title>sheriff-post</title></rect>
      <circle cx="920.1" cy="964.1" r="1.8" class="guard" /><circle cx="914.1" cy="967.6" r="1.8" class="guard" /><circle cx="914.1" cy="960.7" r="1.8" class="guard" /><circle cx="819.7" cy="993.8" r="1.8" class="guard" /><circle cx="817.1" cy="987.5" r="1.8" class="guard" /><circle cx="823.9" cy="988.4" r="1.8" class="guard" /><circle cx="776.8" cy="1164.3" r="1.8" class="guard" /><circle cx="783.5" cy="1162.4" r="1.8" class="guard" /><circle cx="781.7" cy="1169.1" r="1.8" class="guard" /><circle cx="896.8" cy="1014.1" r="1.8" class="guard" /><circle cx="897.8" cy="1020.9" r="1.8" class="guard" /><circle cx="891.4" cy="1018.3" r="1.8" class="guard" /><circle cx="685.7" cy="1025.0" r="1.8" class="guard" /><circle cx="678.8" cy="1025.0" r="1.8" class="guard" /><circle cx="682.2" cy="1019.1" r="1.8" class="guard" /><circle cx="739.0" cy="963.0" r="1.8" class="guard" /><circle cx="739.9" cy="956.1" r="1.8" class="guard" /><circle cx="745.4" cy="960.3" r="1.8" class="guard" /><circle cx="848.7" cy="1016.2" r="1.8" class="guard" /><circle cx="855.4" cy="1018.0" r="1.8" class="guard" /><circle cx="850.6" cy="1022.9" r="1.8" class="guard" />
      <circle cx="804.5" cy="1200.3" r="2.7" class="cache" /><circle cx="801.4" cy="968.3" r="2.7" class="cache" /><circle cx="740.6" cy="1076.6" r="2.7" class="cache" /><circle cx="740.7" cy="1195.4" r="2.7" class="cache" />
      <rect x="806.6" y="983.9" width="6" height="4" class="crossing" /><rect x="788.3" y="1167.2" width="6" height="4" class="crossing" />
      <circle cx="861.3" cy="1084.7" r="5" class="camp"><title>campfire</title></circle>
      <path d="M 916.1 958.1 L 922.1 964.1 L 916.1 970.1 L 910.1 964.1 Z" class="objective"><title>objective</title></path>
    </g>
    <g class="panel">
      <rect x="24" y="1274" width="508" height="378" rx="8" class="panel-bg" />
      <text x="40" y="1294" class="panel-title">7. central-expedition · seed 2948478113 · mapq1:111ec4c0</text>
      <text x="40" y="1312" class="quality">TF 0.83 · RC 0.97 · RR 0.62 · PS 0.97 · LL 0.70 · CO 0.96 · NV 0.70</text>
      <rect x="130" y="1322" width="296" height="296" class="map-bg" />
      <g class="grid"><path d="M 130.0 1322.0 V 1618.0 M 130.0 1322.0 H 426.0" /><path d="M 189.2 1322.0 V 1618.0 M 130.0 1381.2 H 426.0" /><path d="M 248.4 1322.0 V 1618.0 M 130.0 1440.4 H 426.0" /><path d="M 307.6 1322.0 V 1618.0 M 130.0 1499.6 H 426.0" /><path d="M 366.8 1322.0 V 1618.0 M 130.0 1558.8 H 426.0" /><path d="M 426.0 1322.0 V 1618.0 M 130.0 1618.0 H 426.0" /></g>
      <line x1="295.0" y1="1322.0" x2="265.4" y2="1618.0" class="river" />
      <polyline points="220.6,1474.4 220.6,1472.2 220.6,1470.0 222.1,1473.5 223.7,1477.1 225.2,1480.6 226.8,1484.1 228.4,1487.7 229.9,1491.2 231.5,1494.7 233.0,1498.3 234.6,1501.8 236.2,1505.3 237.7,1508.9 239.3,1512.4 240.8,1515.9 242.4,1519.5 244.0,1523.0 245.5,1526.5 247.1,1530.1 248.6,1533.6 250.2,1537.1 251.8,1540.7 253.3,1544.2 254.9,1547.7 256.5,1551.3 258.0,1554.8 256.2,1551.6 254.3,1548.4 252.5,1545.3 250.6,1542.1 248.8,1538.9 246.9,1535.7 245.1,1532.5 243.2,1529.4 241.4,1526.2 239.5,1523.0 237.7,1519.8 235.8,1516.6 234.0,1513.5 230.5,1512.1 227.1,1510.8 223.7,1509.4 220.3,1508.1 216.8,1506.8 213.4,1505.4 210.0,1504.1 206.6,1502.7 203.1,1501.4 199.7,1500.1 196.3,1498.7 193.0,1498.7 189.6,1498.7 186.3,1498.7 183.0,1498.7" class="road road-major" /><polyline points="183.0,1498.7 186.3,1498.7 189.6,1498.7 193.0,1498.7 196.3,1498.7 199.7,1500.1 203.1,1501.4 206.6,1502.7 210.0,1504.1 213.4,1505.4 216.8,1506.8 220.3,1508.1 223.7,1509.4 227.1,1510.8 230.5,1512.1 234.0,1513.5 235.8,1516.6 237.7,1519.8 239.5,1523.0 241.4,1526.2 243.2,1529.4 245.1,1532.5 246.9,1535.7 248.8,1538.9 250.6,1542.1 252.5,1545.3 254.3,1548.4 256.2,1551.6 258.0,1554.8 257.7,1558.0 257.4,1561.2 257.1,1564.4 260.4,1564.7 263.8,1565.1 267.2,1565.4 270.6,1565.7" class="road road-major" /><polyline points="270.6,1565.7 274.0,1566.1 277.4,1566.4 280.8,1566.8 284.2,1567.1 284.6,1563.3 285.0,1559.4 285.4,1555.6 285.7,1551.8 286.1,1548.0 286.5,1544.1 286.9,1540.3 287.3,1536.5 287.7,1532.6 288.0,1528.8 288.4,1525.0 288.8,1521.1 289.2,1517.3 289.6,1513.5 290.0,1509.7 290.3,1505.8 290.7,1502.0 291.1,1498.2 291.5,1494.3 291.9,1490.5 292.3,1486.7 292.6,1482.8 293.0,1479.0 293.4,1475.2 293.8,1471.4 297.6,1471.2 301.4,1471.1 305.1,1471.0 308.9,1470.9 312.7,1470.7 316.5,1470.6 320.3,1470.5 324.1,1470.4 327.9,1470.2 331.6,1470.1 335.4,1470.0 335.9,1473.8 336.3,1477.5 336.7,1481.3 337.2,1485.0 337.6,1488.8 338.1,1492.5 338.5,1496.3 338.9,1500.0 339.4,1503.8 339.8,1507.5 340.3,1511.3 340.7,1515.0 341.1,1518.8 341.6,1522.6 342.0,1526.3 342.5,1530.1 342.9,1533.8 346.7,1533.3 350.6,1532.8 354.4,1532.3 358.3,1531.8 362.1,1531.4 366.0,1530.9 369.8,1530.4 373.6,1529.9 377.5,1529.4 381.3,1528.9 385.2,1528.4 389.0,1527.9 392.9,1527.4 391.1,1524.2 389.4,1521.1 387.7,1517.9 386.0,1514.7 384.3,1511.5 382.6,1508.3 380.8,1505.1 379.1,1501.9 377.4,1498.7" class="road road-major" /><polyline points="377.4,1498.7 379.4,1501.9 381.4,1505.0 383.3,1508.2 385.3,1511.4 387.3,1514.5 389.3,1517.7 391.3,1520.9 393.2,1524.0" class="road road-major" /><polyline points="191.9,1375.0 195.5,1376.3 199.1,1377.5 202.8,1378.8 206.4,1380.0 210.0,1381.3 213.7,1382.6 217.3,1383.8 221.0,1385.1 224.6,1386.3 228.2,1387.6 231.9,1388.8 235.5,1390.1 239.1,1391.4 242.8,1392.6 246.4,1393.9 250.1,1395.1 253.7,1396.4 257.3,1397.6 261.0,1398.9 264.6,1400.1 268.2,1401.4 271.9,1402.7 275.5,1403.9 279.2,1405.2 282.8,1406.4 286.4,1407.7" class="road road-minor" /><polyline points="286.4,1407.7 289.5,1408.0 292.6,1408.3 295.6,1408.6 298.7,1408.9 298.3,1412.9 297.9,1416.8 297.5,1420.8 297.1,1424.7 296.7,1428.7 296.3,1432.6 295.9,1436.6 295.5,1440.5 295.1,1444.5 294.8,1448.4 294.4,1452.4 294.0,1456.3 293.6,1460.3 293.2,1464.2 292.8,1468.2 292.4,1472.1 292.0,1476.1 291.6,1480.0 291.2,1484.0 290.8,1487.9 290.4,1491.9 290.0,1495.8 289.6,1499.8 289.2,1503.7 288.8,1507.7 288.4,1511.7 288.0,1515.6 287.6,1519.6 287.2,1523.5 286.9,1527.5 286.5,1531.4 286.1,1535.4 285.7,1539.3 285.3,1543.3 284.9,1547.2 284.5,1551.2 284.1,1555.1 283.7,1559.1 283.3,1563.0 282.9,1567.0 279.8,1566.7 276.8,1566.4 273.7,1566.1 270.6,1565.7" class="road road-minor" />
      <rect x="179.5" y="1495.2" width="7" height="7" class="settlement"><title>forest-village</title></rect><rect x="188.4" y="1371.5" width="7" height="7" class="settlement"><title>outlaw-hamlet</title></rect><rect x="373.9" y="1495.2" width="7" height="7" class="settlement"><title>sheriff-post</title></rect>
      <circle cx="397.2" cy="1524.0" r="1.8" class="guard" /><circle cx="391.3" cy="1527.5" r="1.8" class="guard" /><circle cx="391.3" cy="1520.6" r="1.8" class="guard" /><circle cx="296.5" cy="1415.6" r="1.8" class="guard" /><circle cx="293.9" cy="1409.2" r="1.8" class="guard" /><circle cx="300.7" cy="1410.1" r="1.8" class="guard" /><circle cx="256.2" cy="1560.8" r="1.8" class="guard" /><circle cx="262.8" cy="1558.9" r="1.8" class="guard" /><circle cx="261.1" cy="1565.6" r="1.8" class="guard" /><circle cx="315.0" cy="1488.9" r="1.8" class="guard" /><circle cx="316.0" cy="1495.7" r="1.8" class="guard" /><circle cx="309.6" cy="1493.1" r="1.8" class="guard" /><circle cx="398.4" cy="1478.1" r="1.8" class="guard" /><circle cx="391.6" cy="1478.1" r="1.8" class="guard" /><circle cx="395.0" cy="1472.1" r="1.8" class="guard" /><circle cx="163.8" cy="1416.3" r="1.8" class="guard" /><circle cx="164.6" cy="1409.5" r="1.8" class="guard" /><circle cx="170.1" cy="1413.6" r="1.8" class="guard" />
      <circle cx="387.4" cy="1583.0" r="2.7" class="cache" /><circle cx="164.1" cy="1355.3" r="2.7" class="cache" /><circle cx="386.9" cy="1408.4" r="2.7" class="cache" /><circle cx="217.0" cy="1521.6" r="2.7" class="cache" />
      <rect x="283.4" y="1405.7" width="6" height="4" class="crossing" /><rect x="267.6" y="1563.7" width="6" height="4" class="crossing" />
      <circle cx="220.6" cy="1474.4" r="5" class="camp"><title>campfire</title></circle>
      <path d="M 393.2 1518.0 L 399.2 1524.0 L 393.2 1530.0 L 387.2 1524.0 Z" class="objective"><title>objective</title></path>
    </g>
    <g class="panel">
      <rect x="544" y="1274" width="508" height="378" rx="8" class="panel-bg" />
      <text x="560" y="1294" class="panel-title">8. central-expedition · seed 2377843643 · mapq1:0721cd03</text>
      <text x="560" y="1312" class="quality">TF 0.83 · RC 0.67 · RR 0.82 · PS 0.94 · LL 0.71 · CO 0.82 · NV 0.55</text>
      <rect x="650" y="1322" width="296" height="296" class="map-bg" />
      <g class="grid"><path d="M 650.0 1322.0 V 1618.0 M 650.0 1322.0 H 946.0" /><path d="M 709.2 1322.0 V 1618.0 M 650.0 1381.2 H 946.0" /><path d="M 768.4 1322.0 V 1618.0 M 650.0 1440.4 H 946.0" /><path d="M 827.6 1322.0 V 1618.0 M 650.0 1499.6 H 946.0" /><path d="M 886.8 1322.0 V 1618.0 M 650.0 1558.8 H 946.0" /><path d="M 946.0 1322.0 V 1618.0 M 650.0 1618.0 H 946.0" /></g>
      <line x1="815.0" y1="1322.0" x2="785.4" y2="1618.0" class="river" />
      <polyline points="741.3,1472.4 740.6,1470.0 742.1,1473.5 743.7,1477.1 745.2,1480.6 746.8,1484.1 748.4,1487.7 749.9,1491.2 751.5,1494.7 753.0,1498.3 754.6,1501.8 756.2,1505.3 757.7,1508.9 759.3,1512.4 760.8,1515.9 762.4,1519.5 764.0,1523.0 765.5,1526.5 767.1,1530.1 768.6,1533.6 770.2,1537.1 771.8,1540.7 773.3,1544.2 774.9,1547.7 776.5,1551.3 778.0,1554.8 776.2,1551.6 774.3,1548.4 772.5,1545.3 770.6,1542.1 768.8,1538.9 766.9,1535.7 765.1,1532.5 763.2,1529.4 761.4,1526.2 759.5,1523.0 757.7,1519.8 755.8,1516.6 754.0,1513.5 750.5,1512.1 747.1,1510.8 743.7,1509.4 740.3,1508.1 736.8,1506.8 733.4,1505.4 730.0,1504.1 726.6,1502.7 723.1,1501.4 719.7,1500.1 716.3,1498.7 713.0,1498.7 709.6,1498.7 706.3,1498.7 703.0,1498.7" class="road road-major" /><polyline points="703.0,1498.7 699.7,1498.7 696.4,1498.7 693.1,1498.7 689.8,1498.7 689.6,1494.9 689.5,1491.1 689.3,1487.2 689.2,1483.4 689.0,1479.6 688.9,1475.7 688.7,1471.9 688.6,1468.1 688.4,1464.3 688.3,1460.4 688.1,1456.6 688.0,1452.8 687.8,1448.9 687.7,1445.1 687.6,1441.3 689.2,1437.7 690.8,1434.2 692.4,1430.7 694.0,1427.1 695.7,1423.6 697.3,1420.1 698.9,1416.5 700.5,1413.0 702.1,1409.5 703.8,1405.9 705.4,1402.4 707.0,1398.9 708.6,1395.3 710.2,1391.8 711.9,1388.3 715.2,1389.6 718.5,1391.0 721.9,1392.3 725.2,1393.7 728.5,1395.0 731.9,1396.4 735.2,1397.7 738.6,1399.1 741.9,1400.4 745.5,1401.4 749.1,1402.4 752.7,1403.4 756.2,1404.4 759.8,1405.4 763.4,1406.3 767.0,1407.3 770.6,1408.3 774.2,1409.3 777.7,1410.3 781.3,1411.2 784.9,1412.2 788.5,1413.2 792.1,1414.2 791.7,1418.0 791.3,1421.7 790.9,1425.5 790.6,1429.2 790.2,1433.0 789.8,1436.7 789.4,1440.5 789.1,1444.3 788.7,1448.0 788.3,1451.8 787.9,1455.5 787.6,1459.3 787.2,1463.1 786.8,1466.8 786.4,1470.6 786.1,1474.3 785.7,1478.1 785.3,1481.9 784.9,1485.6 788.3,1486.0 791.7,1486.3 795.1,1486.6 798.5,1487.0" class="road road-major" /><polyline points="798.5,1487.0 801.9,1487.3 805.3,1487.7 808.7,1488.0 812.1,1488.3 812.4,1484.9 812.8,1481.5 813.1,1478.1 813.5,1474.8 813.8,1471.4 817.6,1471.2 821.4,1471.1 825.1,1471.0 828.9,1470.9 832.7,1470.7 836.5,1470.6 840.3,1470.5 844.1,1470.4 847.9,1470.2 851.6,1470.1 855.4,1470.0 855.9,1473.8 856.3,1477.5 856.7,1481.3 857.2,1485.0 857.6,1488.8 858.1,1492.5 858.5,1496.3 858.9,1500.0 859.4,1503.8 859.8,1507.5 860.3,1511.3 860.7,1515.0 861.1,1518.8 861.6,1522.6 862.0,1526.3 862.5,1530.1 862.9,1533.8 866.4,1533.2 869.9,1532.5 873.4,1531.9 876.9,1531.2 880.4,1530.6 883.9,1529.9 887.3,1529.2 890.4,1531.0 893.5,1532.8 896.6,1534.5 899.7,1536.3 902.8,1538.1 905.8,1539.8 908.9,1541.6 912.0,1543.3 915.1,1545.1" class="road road-major" /><polyline points="915.1,1545.1 914.6,1548.8 914.2,1552.6 913.7,1556.3 913.2,1560.1 912.8,1563.8 912.3,1567.5 911.9,1571.3 911.4,1575.0 911.0,1578.8 910.5,1582.5 910.0,1586.2" class="road road-major" /><polyline points="711.9,1375.0 715.5,1376.6 719.1,1378.1 722.7,1379.7 726.3,1381.3 729.9,1382.8 733.5,1384.4 737.1,1385.9 740.7,1387.5 744.3,1389.0 747.9,1390.6 751.5,1392.2 755.1,1393.7 758.8,1395.3 762.4,1396.8 766.0,1398.4 769.6,1400.0 773.2,1401.5 776.8,1403.1 780.4,1404.6 784.0,1406.2 787.6,1407.8 791.2,1409.3 794.8,1410.9 798.4,1412.4 802.0,1414.0 805.7,1415.6" class="road road-minor" /><polyline points="805.7,1415.6 808.7,1415.9 811.8,1416.2 814.9,1416.5 817.9,1416.8 817.5,1420.5 817.2,1424.3 816.8,1428.1 816.4,1431.8 816.0,1435.6 815.7,1439.3 815.3,1443.1 814.9,1446.8 814.5,1450.6 814.2,1454.4 813.8,1458.1 813.4,1461.9 813.0,1465.6 812.7,1469.4 812.3,1473.2 811.9,1476.9 811.5,1480.7 811.2,1484.4 810.8,1488.2 807.7,1487.9 804.6,1487.6 801.6,1487.3 798.5,1487.0" class="road road-minor" />
      <rect x="699.5" y="1495.2" width="7" height="7" class="settlement"><title>forest-village</title></rect><rect x="708.4" y="1371.5" width="7" height="7" class="settlement"><title>outlaw-hamlet</title></rect><rect x="911.6" y="1541.6" width="7" height="7" class="settlement"><title>sheriff-post</title></rect>
      <circle cx="914.0" cy="1586.2" r="1.8" class="guard" /><circle cx="908.1" cy="1589.7" r="1.8" class="guard" /><circle cx="908.1" cy="1582.8" r="1.8" class="guard" /><circle cx="815.7" cy="1423.5" r="1.8" class="guard" /><circle cx="813.1" cy="1417.1" r="1.8" class="guard" /><circle cx="819.9" cy="1418.0" r="1.8" class="guard" /><circle cx="811.8" cy="1482.5" r="1.8" class="guard" /><circle cx="818.4" cy="1480.7" r="1.8" class="guard" /><circle cx="816.7" cy="1487.3" r="1.8" class="guard" /><circle cx="833.8" cy="1519.0" r="1.8" class="guard" /><circle cx="834.7" cy="1525.8" r="1.8" class="guard" /><circle cx="828.4" cy="1523.2" r="1.8" class="guard" /><circle cx="683.7" cy="1529.3" r="1.8" class="guard" /><circle cx="676.8" cy="1529.3" r="1.8" class="guard" /><circle cx="680.2" cy="1523.4" r="1.8" class="guard" />
      <circle cx="860.8" cy="1591.3" r="2.7" class="cache" /><circle cx="687.4" cy="1419.2" r="2.7" class="cache" /><circle cx="914.6" cy="1358.1" r="2.7" class="cache" /><circle cx="801.7" cy="1591.2" r="2.7" class="cache" />
      <rect x="802.7" y="1413.6" width="6" height="4" class="crossing" /><rect x="795.5" y="1485.0" width="6" height="4" class="crossing" />
      <circle cx="741.3" cy="1472.4" r="5" class="camp"><title>campfire</title></circle>
      <path d="M 910.0 1580.2 L 916.0 1586.2 L 910.0 1592.2 L 904.0 1586.2 Z" class="objective"><title>objective</title></path>
    </g>
</svg>
